<svg width="215" height="62" viewBox="0 0 215 62" fill="none" xmlns="http://www.w3.org/2000/svg">
<g filter="url(#filter0_di_396_43)">
<rect x="3" y="2" width="56" height="56" rx="8" fill="white"/>
<rect x="3.5" y="2.5" width="55" height="55" rx="7.5" stroke="#2F2B43" stroke-opacity="0.1"/>
<g clip-path="url(#clip0_396_43)">
<path d="M31.84 19.8685L34.5657 25.3713C34.6277 25.511 34.7252 25.632 34.8486 25.7222C34.9719 25.8125 35.1167 25.8688 35.2686 25.8856L41.2857 26.777C41.4599 26.7994 41.6242 26.8709 41.7593 26.9832C41.8944 27.0954 41.9948 27.2438 42.0487 27.411C42.1026 27.5782 42.1079 27.7572 42.0639 27.9273C42.0198 28.0973 41.9283 28.2513 41.8 28.3713L37.4629 32.6742C37.3522 32.7776 37.2691 32.9071 37.2212 33.0508C37.1733 33.1945 37.1621 33.3479 37.1886 33.497L38.2343 39.5485C38.2646 39.7224 38.2454 39.9012 38.1791 40.0648C38.1127 40.2283 38.0017 40.37 37.8588 40.4736C37.7159 40.5772 37.5468 40.6386 37.3708 40.6508C37.1947 40.663 37.0187 40.6256 36.8629 40.5428L31.4457 37.6799C31.307 37.6118 31.1545 37.5764 31 37.5764C30.8455 37.5764 30.693 37.6118 30.5543 37.6799L25.1371 40.5428C24.9813 40.6256 24.8053 40.663 24.6292 40.6508C24.4532 40.6386 24.2841 40.5772 24.1412 40.4736C23.9983 40.37 23.8873 40.2283 23.821 40.0648C23.7546 39.9012 23.7354 39.7224 23.7657 39.5485L24.8114 33.4285C24.8379 33.2793 24.8267 33.1259 24.7788 32.9822C24.7309 32.8385 24.6478 32.709 24.5371 32.6056L20.1486 28.3713C20.0187 28.2481 19.9274 28.0898 19.8857 27.9157C19.844 27.7416 19.8537 27.5591 19.9135 27.3904C19.9734 27.2217 20.0809 27.0739 20.223 26.9651C20.3652 26.8562 20.5358 26.7909 20.7143 26.777L26.7314 25.8856C26.8833 25.8688 27.0281 25.8125 27.1515 25.7222C27.2748 25.632 27.3723 25.511 27.4343 25.3713L30.16 19.8685C30.2342 19.7082 30.3528 19.5725 30.5016 19.4774C30.6504 19.3823 30.8234 19.3318 31 19.3318C31.1766 19.3318 31.3496 19.3823 31.4984 19.4774C31.6473 19.5725 31.7658 19.7082 31.84 19.8685Z" stroke="black" stroke-width="2" stroke-linecap="round" stroke-linejoin="round"/>
</g>
</g>
<path d="M85.9432 18.1477H84.1705C84.1023 17.7689 83.9754 17.4356 83.7898 17.1477C83.6042 16.8598 83.3769 16.6155 83.108 16.4148C82.839 16.214 82.5379 16.0625 82.2045 15.9602C81.875 15.858 81.5246 15.8068 81.1534 15.8068C80.483 15.8068 79.8826 15.9754 79.3523 16.3125C78.8258 16.6496 78.4091 17.1439 78.1023 17.7955C77.7992 18.447 77.6477 19.2424 77.6477 20.1818C77.6477 21.1288 77.7992 21.928 78.1023 22.5795C78.4091 23.2311 78.8277 23.7235 79.358 24.0568C79.8883 24.3902 80.4848 24.5568 81.1477 24.5568C81.5152 24.5568 81.8636 24.5076 82.1932 24.4091C82.5265 24.3068 82.8277 24.1572 83.0966 23.9602C83.3655 23.7633 83.5928 23.5227 83.7784 23.2386C83.9678 22.9508 84.0985 22.6212 84.1705 22.25L85.9432 22.2557C85.8485 22.8277 85.6648 23.3542 85.392 23.8352C85.1231 24.3125 84.7765 24.7254 84.3523 25.0739C83.9318 25.4186 83.4508 25.6856 82.9091 25.875C82.3674 26.0644 81.7765 26.1591 81.1364 26.1591C80.1288 26.1591 79.2311 25.9205 78.4432 25.4432C77.6553 24.9621 77.0341 24.2746 76.5795 23.3807C76.1288 22.4867 75.9034 21.4205 75.9034 20.1818C75.9034 18.9394 76.1307 17.8731 76.5852 16.983C77.0398 16.089 77.661 15.4034 78.4489 14.9261C79.2367 14.4451 80.1326 14.2045 81.1364 14.2045C81.7538 14.2045 82.3295 14.2936 82.8636 14.4716C83.4015 14.6458 83.8845 14.9034 84.3125 15.2443C84.7405 15.5814 85.0947 15.9943 85.375 16.483C85.6553 16.9678 85.8447 17.5227 85.9432 18.1477ZM93.4361 22.3807V17.2727H95.1406V26H93.4702V24.4886H93.3793C93.1785 24.9545 92.8565 25.3428 92.4134 25.6534C91.974 25.9602 91.4266 26.1136 90.7713 26.1136C90.2107 26.1136 89.7145 25.9905 89.2827 25.7443C88.8546 25.4943 88.5175 25.125 88.2713 24.6364C88.0289 24.1477 87.9077 23.5436 87.9077 22.8239V17.2727H89.6065V22.6193C89.6065 23.214 89.7713 23.6875 90.1009 24.0398C90.4304 24.392 90.8584 24.5682 91.3849 24.5682C91.7031 24.5682 92.0194 24.4886 92.3338 24.3295C92.652 24.1705 92.9152 23.9299 93.1236 23.608C93.3357 23.286 93.4399 22.8769 93.4361 22.3807ZM103.963 19.4034L102.423 19.6761C102.359 19.4792 102.257 19.2917 102.116 19.1136C101.98 18.9356 101.795 18.7898 101.56 18.6761C101.325 18.5625 101.031 18.5057 100.679 18.5057C100.198 18.5057 99.7964 18.6136 99.4744 18.8295C99.1525 19.0417 98.9915 19.3163 98.9915 19.6534C98.9915 19.9451 99.0994 20.1799 99.3153 20.358C99.5313 20.536 99.8797 20.6818 100.361 20.7955L101.747 21.1136C102.55 21.2992 103.149 21.5852 103.543 21.9716C103.937 22.358 104.134 22.8598 104.134 23.4773C104.134 24 103.982 24.4659 103.679 24.875C103.38 25.2803 102.961 25.5985 102.423 25.8295C101.889 26.0606 101.27 26.1761 100.565 26.1761C99.5881 26.1761 98.7907 25.9678 98.1733 25.5511C97.5559 25.1307 97.1771 24.5341 97.0369 23.7614L98.679 23.5114C98.7813 23.9394 98.9915 24.2633 99.3097 24.483C99.6278 24.6989 100.043 24.8068 100.554 24.8068C101.111 24.8068 101.556 24.6913 101.889 24.4602C102.223 24.2254 102.389 23.9394 102.389 23.6023C102.389 23.3295 102.287 23.1004 102.082 22.9148C101.882 22.7292 101.573 22.589 101.156 22.4943L99.679 22.1705C98.8646 21.9848 98.2623 21.6894 97.8722 21.2841C97.4858 20.8788 97.2926 20.3655 97.2926 19.7443C97.2926 19.2292 97.4366 18.7784 97.7244 18.392C98.0123 18.0057 98.41 17.7045 98.9176 17.4886C99.4252 17.2689 100.007 17.1591 100.662 17.1591C101.605 17.1591 102.348 17.3636 102.889 17.7727C103.431 18.178 103.789 18.7216 103.963 19.4034ZM110.075 17.2727V18.6364H105.308V17.2727H110.075ZM106.587 15.1818H108.286V23.4375C108.286 23.767 108.335 24.0152 108.433 24.1818C108.532 24.3447 108.659 24.4564 108.814 24.517C108.973 24.5739 109.145 24.6023 109.331 24.6023C109.467 24.6023 109.587 24.5928 109.689 24.5739C109.791 24.5549 109.871 24.5398 109.928 24.5284L110.234 25.9318C110.136 25.9697 109.996 26.0076 109.814 26.0455C109.632 26.0871 109.405 26.1098 109.132 26.1136C108.685 26.1212 108.268 26.0417 107.882 25.875C107.496 25.7083 107.183 25.4508 106.945 25.1023C106.706 24.7538 106.587 24.3163 106.587 23.7898V15.1818ZM115.537 26.1761C114.719 26.1761 114.005 25.9886 113.395 25.6136C112.785 25.2386 112.312 24.714 111.974 24.0398C111.637 23.3655 111.469 22.5777 111.469 21.6761C111.469 20.7708 111.637 19.9792 111.974 19.3011C112.312 18.6231 112.785 18.0966 113.395 17.7216C114.005 17.3466 114.719 17.1591 115.537 17.1591C116.355 17.1591 117.069 17.3466 117.679 17.7216C118.289 18.0966 118.762 18.6231 119.099 19.3011C119.437 19.9792 119.605 20.7708 119.605 21.6761C119.605 22.5777 119.437 23.3655 119.099 24.0398C118.762 24.714 118.289 25.2386 117.679 25.6136C117.069 25.9886 116.355 26.1761 115.537 26.1761ZM115.543 24.75C116.073 24.75 116.512 24.6098 116.861 24.3295C117.209 24.0492 117.467 23.6761 117.634 23.2102C117.804 22.7443 117.889 22.2311 117.889 21.6705C117.889 21.1136 117.804 20.6023 117.634 20.1364C117.467 19.6667 117.209 19.2898 116.861 19.0057C116.512 18.7216 116.073 18.5795 115.543 18.5795C115.009 18.5795 114.565 18.7216 114.213 19.0057C113.865 19.2898 113.605 19.6667 113.435 20.1364C113.268 20.6023 113.185 21.1136 113.185 21.6705C113.185 22.2311 113.268 22.7443 113.435 23.2102C113.605 23.6761 113.865 24.0492 114.213 24.3295C114.565 24.6098 115.009 24.75 115.543 24.75ZM121.501 26V17.2727H123.132V18.6932H123.24C123.422 18.2121 123.719 17.8371 124.132 17.5682C124.545 17.2955 125.039 17.1591 125.615 17.1591C126.198 17.1591 126.687 17.2955 127.081 17.5682C127.479 17.8409 127.772 18.2159 127.962 18.6932H128.053C128.261 18.2273 128.592 17.8561 129.047 17.5795C129.501 17.2992 130.043 17.1591 130.672 17.1591C131.464 17.1591 132.109 17.4072 132.609 17.9034C133.113 18.3996 133.365 19.1477 133.365 20.1477V26H131.666V20.3068C131.666 19.7159 131.505 19.2879 131.183 19.0227C130.861 18.7576 130.477 18.625 130.03 18.625C129.477 18.625 129.047 18.7955 128.74 19.1364C128.433 19.4735 128.28 19.9072 128.28 20.4375V26H126.587V20.1989C126.587 19.7254 126.439 19.3447 126.143 19.0568C125.848 18.7689 125.464 18.625 124.99 18.625C124.668 18.625 124.371 18.7102 124.098 18.8807C123.829 19.0473 123.611 19.2803 123.445 19.5795C123.282 19.8788 123.2 20.2254 123.2 20.6193V26H121.501ZM139.403 26.1761C138.544 26.1761 137.803 25.9924 137.182 25.625C136.564 25.2538 136.087 24.733 135.75 24.0625C135.417 23.3883 135.25 22.5985 135.25 21.6932C135.25 20.7992 135.417 20.0114 135.75 19.3295C136.087 18.6477 136.557 18.1155 137.159 17.733C137.765 17.3504 138.473 17.1591 139.284 17.1591C139.777 17.1591 140.254 17.2405 140.716 17.4034C141.178 17.5663 141.593 17.822 141.96 18.1705C142.328 18.5189 142.617 18.9716 142.83 19.5284C143.042 20.0814 143.148 20.7538 143.148 21.5455V22.1477H136.21V20.875H141.483C141.483 20.428 141.392 20.0322 141.21 19.6875C141.028 19.339 140.773 19.0644 140.443 18.8636C140.117 18.6629 139.735 18.5625 139.295 18.5625C138.818 18.5625 138.402 18.6799 138.045 18.9148C137.693 19.1458 137.42 19.4489 137.227 19.8239C137.038 20.1951 136.943 20.5985 136.943 21.0341V22.0284C136.943 22.6117 137.045 23.108 137.25 23.517C137.458 23.9261 137.748 24.2386 138.119 24.4545C138.491 24.6667 138.924 24.7727 139.42 24.7727C139.742 24.7727 140.036 24.7273 140.301 24.6364C140.566 24.5417 140.795 24.4015 140.989 24.2159C141.182 24.0303 141.33 23.8011 141.432 23.5284L143.04 23.8182C142.911 24.2917 142.68 24.7064 142.347 25.0625C142.017 25.4148 141.602 25.6894 141.102 25.8864C140.606 26.0795 140.04 26.1761 139.403 26.1761ZM145.033 26V17.2727H146.675V18.6591H146.766C146.925 18.1894 147.205 17.8201 147.607 17.5511C148.012 17.2784 148.47 17.142 148.982 17.142C149.088 17.142 149.213 17.1458 149.357 17.1534C149.504 17.161 149.62 17.1705 149.703 17.1818V18.8068C149.635 18.7879 149.514 18.767 149.339 18.7443C149.165 18.7178 148.991 18.7045 148.817 18.7045C148.415 18.7045 148.057 18.7898 147.743 18.9602C147.432 19.1269 147.186 19.3598 147.004 19.6591C146.822 19.9545 146.732 20.2917 146.732 20.6705V26H145.033ZM157.713 19.4034L156.173 19.6761C156.109 19.4792 156.007 19.2917 155.866 19.1136C155.73 18.9356 155.545 18.7898 155.31 18.6761C155.075 18.5625 154.781 18.5057 154.429 18.5057C153.948 18.5057 153.546 18.6136 153.224 18.8295C152.902 19.0417 152.741 19.3163 152.741 19.6534C152.741 19.9451 152.849 20.1799 153.065 20.358C153.281 20.536 153.63 20.6818 154.111 20.7955L155.497 21.1136C156.3 21.2992 156.899 21.5852 157.293 21.9716C157.687 22.358 157.884 22.8598 157.884 23.4773C157.884 24 157.732 24.4659 157.429 24.875C157.13 25.2803 156.711 25.5985 156.173 25.8295C155.639 26.0606 155.02 26.1761 154.315 26.1761C153.338 26.1761 152.541 25.9678 151.923 25.5511C151.306 25.1307 150.927 24.5341 150.787 23.7614L152.429 23.5114C152.531 23.9394 152.741 24.2633 153.06 24.483C153.378 24.6989 153.793 24.8068 154.304 24.8068C154.861 24.8068 155.306 24.6913 155.639 24.4602C155.973 24.2254 156.139 23.9394 156.139 23.6023C156.139 23.3295 156.037 23.1004 155.832 22.9148C155.632 22.7292 155.323 22.589 154.906 22.4943L153.429 22.1705C152.615 21.9848 152.012 21.6894 151.622 21.2841C151.236 20.8788 151.043 20.3655 151.043 19.7443C151.043 19.2292 151.187 18.7784 151.474 18.392C151.762 18.0057 152.16 17.7045 152.668 17.4886C153.175 17.2689 153.757 17.1591 154.412 17.1591C155.355 17.1591 156.098 17.3636 156.639 17.7727C157.181 18.178 157.539 18.7216 157.713 19.4034ZM163.986 26V17.2727H165.628V18.6591H165.719C165.878 18.1894 166.158 17.8201 166.56 17.5511C166.965 17.2784 167.423 17.142 167.935 17.142C168.041 17.142 168.166 17.1458 168.31 17.1534C168.457 17.161 168.573 17.1705 168.656 17.1818V18.8068C168.588 18.7879 168.467 18.767 168.293 18.7443C168.118 18.7178 167.944 18.7045 167.77 18.7045C167.368 18.7045 167.01 18.7898 166.696 18.9602C166.385 19.1269 166.139 19.3598 165.957 19.6591C165.776 19.9545 165.685 20.2917 165.685 20.6705V26H163.986ZM172.588 26.1932C172.035 26.1932 171.535 26.0909 171.088 25.8864C170.641 25.678 170.287 25.3769 170.026 24.983C169.768 24.589 169.639 24.1061 169.639 23.5341C169.639 23.0417 169.734 22.6364 169.923 22.3182C170.113 22 170.368 21.7481 170.69 21.5625C171.012 21.3769 171.372 21.2367 171.77 21.142C172.168 21.0473 172.573 20.9754 172.986 20.9261C173.509 20.8655 173.933 20.8163 174.259 20.7784C174.584 20.7367 174.821 20.6705 174.969 20.5795C175.116 20.4886 175.19 20.3409 175.19 20.1364V20.0966C175.19 19.6004 175.05 19.2159 174.77 18.9432C174.493 18.6705 174.08 18.5341 173.531 18.5341C172.959 18.5341 172.509 18.661 172.179 18.9148C171.853 19.1648 171.628 19.4432 171.503 19.75L169.906 19.3864C170.096 18.8561 170.372 18.428 170.736 18.1023C171.103 17.7727 171.526 17.5341 172.003 17.3864C172.48 17.2348 172.982 17.1591 173.509 17.1591C173.857 17.1591 174.226 17.2008 174.616 17.2841C175.01 17.3636 175.378 17.5114 175.719 17.7273C176.063 17.9432 176.346 18.2519 176.565 18.6534C176.785 19.0511 176.895 19.5682 176.895 20.2045V26H175.236V24.8068H175.168C175.058 25.0265 174.893 25.2424 174.673 25.4545C174.454 25.6667 174.171 25.8428 173.827 25.983C173.482 26.1231 173.069 26.1932 172.588 26.1932ZM172.957 24.8295C173.427 24.8295 173.829 24.7367 174.162 24.5511C174.499 24.3655 174.755 24.1231 174.929 23.8239C175.107 23.5208 175.196 23.197 175.196 22.8523V21.7273C175.135 21.7879 175.018 21.8447 174.844 21.8977C174.673 21.947 174.478 21.9905 174.259 22.0284C174.039 22.0625 173.825 22.0947 173.616 22.125C173.408 22.1515 173.234 22.1742 173.094 22.1932C172.764 22.2348 172.463 22.3049 172.19 22.4034C171.921 22.5019 171.705 22.6439 171.543 22.8295C171.384 23.0114 171.304 23.2538 171.304 23.5568C171.304 23.9773 171.459 24.2955 171.77 24.5114C172.08 24.7235 172.476 24.8295 172.957 24.8295ZM183.232 17.2727V18.6364H178.464V17.2727H183.232ZM179.743 15.1818H181.442V23.4375C181.442 23.767 181.491 24.0152 181.589 24.1818C181.688 24.3447 181.815 24.4564 181.97 24.517C182.129 24.5739 182.302 24.6023 182.487 24.6023C182.624 24.6023 182.743 24.5928 182.845 24.5739C182.947 24.5549 183.027 24.5398 183.084 24.5284L183.391 25.9318C183.292 25.9697 183.152 26.0076 182.97 26.0455C182.788 26.0871 182.561 26.1098 182.288 26.1136C181.841 26.1212 181.425 26.0417 181.038 25.875C180.652 25.7083 180.339 25.4508 180.101 25.1023C179.862 24.7538 179.743 24.3163 179.743 23.7898V15.1818ZM188.778 26.1761C187.919 26.1761 187.178 25.9924 186.557 25.625C185.939 25.2538 185.462 24.733 185.125 24.0625C184.792 23.3883 184.625 22.5985 184.625 21.6932C184.625 20.7992 184.792 20.0114 185.125 19.3295C185.462 18.6477 185.932 18.1155 186.534 17.733C187.14 17.3504 187.848 17.1591 188.659 17.1591C189.152 17.1591 189.629 17.2405 190.091 17.4034C190.553 17.5663 190.968 17.822 191.335 18.1705C191.703 18.5189 191.992 18.9716 192.205 19.5284C192.417 20.0814 192.523 20.7538 192.523 21.5455V22.1477H185.585V20.875H190.858C190.858 20.428 190.767 20.0322 190.585 19.6875C190.403 19.339 190.148 19.0644 189.818 18.8636C189.492 18.6629 189.11 18.5625 188.67 18.5625C188.193 18.5625 187.777 18.6799 187.42 18.9148C187.068 19.1458 186.795 19.4489 186.602 19.8239C186.413 20.1951 186.318 20.5985 186.318 21.0341V22.0284C186.318 22.6117 186.42 23.108 186.625 23.517C186.833 23.9261 187.123 24.2386 187.494 24.4545C187.866 24.6667 188.299 24.7727 188.795 24.7727C189.117 24.7727 189.411 24.7273 189.676 24.6364C189.941 24.5417 190.17 24.4015 190.364 24.2159C190.557 24.0303 190.705 23.8011 190.807 23.5284L192.415 23.8182C192.286 24.2917 192.055 24.7064 191.722 25.0625C191.392 25.4148 190.977 25.6894 190.477 25.8864C189.981 26.0795 189.415 26.1761 188.778 26.1761ZM81.6705 41.3807V36.2727H83.375V45H81.7045V43.4886H81.6136C81.4129 43.9545 81.0909 44.3428 80.6477 44.6534C80.2083 44.9602 79.661 45.1136 79.0057 45.1136C78.4451 45.1136 77.9489 44.9905 77.517 44.7443C77.089 44.4943 76.7519 44.125 76.5057 43.6364C76.2633 43.1477 76.142 42.5436 76.142 41.8239V36.2727H77.8409V41.6193C77.8409 42.214 78.0057 42.6875 78.3352 43.0398C78.6648 43.392 79.0928 43.5682 79.6193 43.5682C79.9375 43.5682 80.2538 43.4886 80.5682 43.3295C80.8864 43.1705 81.1496 42.9299 81.358 42.608C81.5701 42.286 81.6742 41.8769 81.6705 41.3807ZM92.1974 38.4034L90.6577 38.6761C90.5933 38.4792 90.491 38.2917 90.3509 38.1136C90.2145 37.9356 90.0289 37.7898 89.794 37.6761C89.5592 37.5625 89.2656 37.5057 88.9134 37.5057C88.4323 37.5057 88.0308 37.6136 87.7088 37.8295C87.3868 38.0417 87.2259 38.3163 87.2259 38.6534C87.2259 38.9451 87.3338 39.1799 87.5497 39.358C87.7656 39.536 88.1141 39.6818 88.5952 39.7955L89.9815 40.1136C90.7846 40.2992 91.383 40.5852 91.777 40.9716C92.1709 41.358 92.3679 41.8598 92.3679 42.4773C92.3679 43 92.2164 43.4659 91.9134 43.875C91.6141 44.2803 91.1955 44.5985 90.6577 44.8295C90.1236 45.0606 89.5043 45.1761 88.7997 45.1761C87.8224 45.1761 87.0251 44.9678 86.4077 44.5511C85.7902 44.1307 85.4115 43.5341 85.2713 42.7614L86.9134 42.5114C87.0156 42.9394 87.2259 43.2633 87.544 43.483C87.8622 43.6989 88.277 43.8068 88.7884 43.8068C89.3452 43.8068 89.7902 43.6913 90.1236 43.4602C90.4569 43.2254 90.6236 42.9394 90.6236 42.6023C90.6236 42.3295 90.5213 42.1004 90.3168 41.9148C90.116 41.7292 89.8073 41.589 89.3906 41.4943L87.9134 41.1705C87.099 40.9848 86.4967 40.6894 86.1065 40.2841C85.7202 39.8788 85.527 39.3655 85.527 38.7443C85.527 38.2292 85.6709 37.7784 85.9588 37.392C86.2467 37.0057 86.6444 36.7045 87.152 36.4886C87.6596 36.2689 88.241 36.1591 88.8963 36.1591C89.8395 36.1591 90.5819 36.3636 91.1236 36.7727C91.6652 37.178 92.0232 37.7216 92.1974 38.4034ZM98.2031 42.7273V41.3068L103.232 33.3636H104.351V35.4545H103.641L100.044 41.1477V41.2386H106.936V42.7273H98.2031ZM103.72 45V42.2955L103.732 41.6477V33.3636H105.396V45H103.72ZM110.138 45.108C109.827 45.108 109.56 44.9981 109.337 44.7784C109.113 44.5549 109.001 44.286 109.001 43.9716C109.001 43.661 109.113 43.3958 109.337 43.1761C109.56 42.9527 109.827 42.8409 110.138 42.8409C110.448 42.8409 110.715 42.9527 110.939 43.1761C111.162 43.3958 111.274 43.661 111.274 43.9716C111.274 44.1799 111.221 44.3712 111.115 44.5455C111.013 44.7159 110.876 44.8523 110.706 44.9545C110.536 45.0568 110.346 45.108 110.138 45.108ZM117.663 45.1591C116.849 45.1591 116.129 45.0189 115.504 44.7386C114.883 44.4583 114.396 44.072 114.044 43.5795C113.692 43.0871 113.518 42.5265 113.521 41.8977C113.518 41.4053 113.618 40.9527 113.822 40.5398C114.031 40.1231 114.313 39.7765 114.669 39.5C115.025 39.2197 115.423 39.0417 115.862 38.9659V38.8977C115.283 38.7576 114.819 38.447 114.47 37.9659C114.122 37.4848 113.949 36.9318 113.953 36.3068C113.949 35.7121 114.107 35.1818 114.425 34.7159C114.747 34.2462 115.188 33.8769 115.749 33.608C116.309 33.339 116.947 33.2045 117.663 33.2045C118.372 33.2045 119.004 33.3409 119.561 33.6136C120.122 33.8826 120.563 34.2519 120.885 34.7216C121.207 35.1875 121.37 35.7159 121.374 36.3068C121.37 36.9318 121.192 37.4848 120.839 37.9659C120.487 38.447 120.029 38.7576 119.464 38.8977V38.9659C119.9 39.0417 120.292 39.2197 120.641 39.5C120.993 39.7765 121.273 40.1231 121.482 40.5398C121.694 40.9527 121.802 41.4053 121.805 41.8977C121.802 42.5265 121.624 43.0871 121.271 43.5795C120.919 44.072 120.43 44.4583 119.805 44.7386C119.184 45.0189 118.47 45.1591 117.663 45.1591ZM117.663 43.7216C118.144 43.7216 118.561 43.642 118.913 43.483C119.266 43.3201 119.538 43.0947 119.732 42.8068C119.925 42.5152 120.023 42.1742 120.027 41.7841C120.023 41.3788 119.917 41.0208 119.709 40.7102C119.504 40.3996 119.226 40.1553 118.874 39.9773C118.521 39.7992 118.118 39.7102 117.663 39.7102C117.205 39.7102 116.798 39.7992 116.442 39.9773C116.086 40.1553 115.805 40.3996 115.601 40.7102C115.396 41.0208 115.296 41.3788 115.3 41.7841C115.296 42.1742 115.389 42.5152 115.578 42.8068C115.771 43.0947 116.046 43.3201 116.402 43.483C116.758 43.642 117.179 43.7216 117.663 43.7216ZM117.663 38.3068C118.05 38.3068 118.393 38.2292 118.692 38.0739C118.991 37.9186 119.226 37.7027 119.396 37.4261C119.571 37.1496 119.66 36.8258 119.663 36.4545C119.66 36.0909 119.572 35.7727 119.402 35.5C119.235 35.2273 119.002 35.017 118.703 34.8693C118.404 34.7178 118.057 34.642 117.663 34.642C117.262 34.642 116.91 34.7178 116.607 34.8693C116.307 35.017 116.074 35.2273 115.908 35.5C115.741 35.7727 115.66 36.0909 115.663 36.4545C115.66 36.8258 115.743 37.1496 115.913 37.4261C116.084 37.7027 116.319 37.9186 116.618 38.0739C116.921 38.2292 117.269 38.3068 117.663 38.3068ZM132.746 32.8182L128.996 46.75H127.479L131.229 32.8182H132.746ZM142.526 45.1591C141.813 45.1591 141.173 45.0227 140.605 44.75C140.041 44.4735 139.59 44.0947 139.253 43.6136C138.916 43.1326 138.736 42.5833 138.713 41.9659H140.418C140.459 42.4659 140.681 42.8769 141.082 43.1989C141.484 43.5208 141.965 43.6818 142.526 43.6818C142.973 43.6818 143.368 43.5795 143.713 43.375C144.062 43.1667 144.334 42.8807 144.531 42.517C144.732 42.1534 144.832 41.7386 144.832 41.2727C144.832 40.7992 144.73 40.3769 144.526 40.0057C144.321 39.6345 144.039 39.3428 143.679 39.1307C143.323 38.9186 142.914 38.8106 142.452 38.8068C142.099 38.8068 141.745 38.8674 141.389 38.9886C141.033 39.1098 140.745 39.2689 140.526 39.4659L138.918 39.2273L139.571 33.3636H145.969V34.8693H141.031L140.662 38.125H140.73C140.957 37.9053 141.259 37.7216 141.634 37.5739C142.012 37.4261 142.418 37.3523 142.849 37.3523C143.558 37.3523 144.188 37.5208 144.741 37.858C145.298 38.1951 145.736 38.6553 146.054 39.2386C146.376 39.8182 146.535 40.4848 146.531 41.2386C146.535 41.9924 146.365 42.6648 146.02 43.2557C145.679 43.8466 145.205 44.3125 144.599 44.6534C143.997 44.9905 143.306 45.1591 142.526 45.1591ZM150.107 45.108C149.796 45.108 149.529 44.9981 149.305 44.7784C149.082 44.5549 148.97 44.286 148.97 43.9716C148.97 43.661 149.082 43.3958 149.305 43.1761C149.529 42.9527 149.796 42.8409 150.107 42.8409C150.417 42.8409 150.684 42.9527 150.908 43.1761C151.131 43.3958 151.243 43.661 151.243 43.9716C151.243 44.1799 151.19 44.3712 151.084 44.5455C150.982 44.7159 150.845 44.8523 150.675 44.9545C150.504 45.0568 150.315 45.108 150.107 45.108ZM157.632 45.1932C156.734 45.1894 155.967 44.9527 155.331 44.483C154.695 44.0133 154.208 43.3295 153.871 42.4318C153.534 41.5341 153.365 40.4527 153.365 39.1875C153.365 37.9261 153.534 36.8485 153.871 35.9545C154.212 35.0606 154.7 34.3788 155.337 33.9091C155.977 33.4394 156.742 33.2045 157.632 33.2045C158.522 33.2045 159.286 33.4413 159.922 33.9148C160.558 34.3845 161.045 35.0663 161.382 35.9602C161.723 36.8504 161.893 37.9261 161.893 39.1875C161.893 40.4564 161.725 41.5398 161.388 42.4375C161.051 43.3314 160.564 44.0152 159.928 44.4886C159.291 44.9583 158.526 45.1932 157.632 45.1932ZM157.632 43.6761C158.42 43.6761 159.036 43.2917 159.479 42.5227C159.926 41.7538 160.149 40.642 160.149 39.1875C160.149 38.2216 160.047 37.4053 159.842 36.7386C159.642 36.0682 159.352 35.5606 158.973 35.2159C158.598 34.8674 158.151 34.6932 157.632 34.6932C156.848 34.6932 156.232 35.0795 155.786 35.8523C155.339 36.625 155.113 37.7367 155.109 39.1875C155.109 40.1572 155.21 40.9773 155.411 41.6477C155.615 42.3144 155.905 42.8201 156.28 43.1648C156.655 43.5057 157.106 43.6761 157.632 43.6761Z" fill="#111111"/>
<defs>
<filter id="filter0_di_396_43" x="0" y="0" width="62" height="62" filterUnits="userSpaceOnUse" color-interpolation-filters="sRGB">
<feFlood flood-opacity="0" result="BackgroundImageFix"/>
<feColorMatrix in="SourceAlpha" type="matrix" values="0 0 0 0 0 0 0 0 0 0 0 0 0 0 0 0 0 0 127 0" result="hardAlpha"/>
<feOffset dy="1"/>
<feGaussianBlur stdDeviation="1.5"/>
<feComposite in2="hardAlpha" operator="out"/>
<feColorMatrix type="matrix" values="0 0 0 0 0.184314 0 0 0 0 0.168627 0 0 0 0 0.262745 0 0 0 0.1 0"/>
<feBlend mode="normal" in2="BackgroundImageFix" result="effect1_dropShadow_396_43"/>
<feBlend mode="normal" in="SourceGraphic" in2="effect1_dropShadow_396_43" result="shape"/>
<feColorMatrix in="SourceAlpha" type="matrix" values="0 0 0 0 0 0 0 0 0 0 0 0 0 0 0 0 0 0 127 0" result="hardAlpha"/>
<feOffset dy="-1"/>
<feComposite in2="hardAlpha" operator="arithmetic" k2="-1" k3="1"/>
<feColorMatrix type="matrix" values="0 0 0 0 0.184314 0 0 0 0 0.168627 0 0 0 0 0.262745 0 0 0 0.1 0"/>
<feBlend mode="normal" in2="shape" result="effect2_innerShadow_396_43"/>
</filter>
<clipPath id="clip0_396_43">
<rect width="24" height="24" fill="white" transform="translate(19 18)"/>
</clipPath>
</defs>
</svg>
