<svg width="216" height="62" viewBox="0 0 216 62" fill="none" xmlns="http://www.w3.org/2000/svg">
<g filter="url(#filter0_di_396_33)">
<rect x="3.33325" y="2" width="56" height="56" rx="8" fill="white"/>
<rect x="3.83325" y="2.5" width="55" height="55" rx="7.5" stroke="#2F2B43" stroke-opacity="0.1"/>
<g clip-path="url(#clip0_396_33)">
<path d="M29.4579 18.8572V24.5606" stroke="black" stroke-width="2" stroke-linecap="round" stroke-linejoin="round"/>
<path d="M38.727 30V24.5605H20.1904V35.9674C20.1904 36.1547 20.2273 36.3402 20.299 36.5132C20.3707 36.6863 20.4757 36.8435 20.6082 36.9759C20.7406 37.1084 20.8979 37.2134 21.0709 37.2851C21.2439 37.3568 21.4294 37.3937 21.6167 37.3937H29.619" stroke="black" stroke-width="2" stroke-linecap="round" stroke-linejoin="round"/>
<path d="M20.1904 24.5606L22.3299 20.4395C22.5604 19.9751 22.9132 19.5824 23.3502 19.3036C23.7873 19.0248 24.2922 18.8704 24.8104 18.8572H34.107C34.6376 18.8573 35.1576 19.0054 35.6085 19.285C36.0595 19.5645 36.4235 19.9643 36.6596 20.4395L38.727 24.5606" stroke="black" stroke-width="2" stroke-linecap="round" stroke-linejoin="round"/>
<path d="M33.0476 35.1428H39.4762C41.1322 35.1428 42.4762 36.4868 42.4762 38.1428C42.4762 38.9385 42.1601 39.7015 41.5975 40.2641C41.0349 40.8268 40.2718 41.1428 39.4762 41.1428H33.9048" stroke="black" stroke-width="2" stroke-linecap="round" stroke-linejoin="round"/>
<path d="M35.619 37.7144L33.0476 35.143L35.619 32.5715" stroke="black" stroke-width="2" stroke-linecap="round" stroke-linejoin="round"/>
</g>
</g>
<path d="M76.6117 26V14.3636H83.8276V15.875H78.3673V19.4205H83.3105V20.9261H78.3673V26H76.6117ZM85.7409 26V17.2727H87.383V18.6591H87.4739C87.633 18.1894 87.9133 17.8201 88.3148 17.5511C88.7201 17.2784 89.1784 17.142 89.6898 17.142C89.7958 17.142 89.9208 17.1458 90.0648 17.1534C90.2125 17.161 90.328 17.1705 90.4114 17.1818V18.8068C90.3432 18.7879 90.222 18.767 90.0477 18.7443C89.8735 18.7178 89.6993 18.7045 89.525 18.7045C89.1235 18.7045 88.7655 18.7898 88.4511 18.9602C88.1405 19.1269 87.8943 19.3598 87.7125 19.6591C87.5307 19.9545 87.4398 20.2917 87.4398 20.6705V26H85.7409ZM95.3304 26.1761C94.4706 26.1761 93.73 25.9924 93.1088 25.625C92.4914 25.2538 92.0141 24.733 91.677 24.0625C91.3437 23.3883 91.177 22.5985 91.177 21.6932C91.177 20.7992 91.3437 20.0114 91.677 19.3295C92.0141 18.6477 92.4838 18.1155 93.0861 17.733C93.6922 17.3504 94.4005 17.1591 95.2111 17.1591C95.7035 17.1591 96.1808 17.2405 96.6429 17.4034C97.105 17.5663 97.5198 17.822 97.8872 18.1705C98.2547 18.5189 98.5444 18.9716 98.7565 19.5284C98.9687 20.0814 99.0747 20.7538 99.0747 21.5455V22.1477H92.1372V20.875H97.41C97.41 20.428 97.319 20.0322 97.1372 19.6875C96.9554 19.339 96.6997 19.0644 96.3702 18.8636C96.0444 18.6629 95.6619 18.5625 95.2225 18.5625C94.7452 18.5625 94.3285 18.6799 93.9725 18.9148C93.6202 19.1458 93.3475 19.4489 93.1543 19.8239C92.9649 20.1951 92.8702 20.5985 92.8702 21.0341V22.0284C92.8702 22.6117 92.9725 23.108 93.177 23.517C93.3853 23.9261 93.6751 24.2386 94.0463 24.4545C94.4175 24.6667 94.8512 24.7727 95.3475 24.7727C95.6694 24.7727 95.963 24.7273 96.2281 24.6364C96.4933 24.5417 96.7225 24.4015 96.9156 24.2159C97.1088 24.0303 97.2565 23.8011 97.3588 23.5284L98.9668 23.8182C98.838 24.2917 98.6069 24.7064 98.2736 25.0625C97.944 25.4148 97.5293 25.6894 97.0293 25.8864C96.5331 26.0795 95.9668 26.1761 95.3304 26.1761ZM104.721 26.1761C103.861 26.1761 103.121 25.9924 102.499 25.625C101.882 25.2538 101.405 24.733 101.068 24.0625C100.734 23.3883 100.568 22.5985 100.568 21.6932C100.568 20.7992 100.734 20.0114 101.068 19.3295C101.405 18.6477 101.874 18.1155 102.477 17.733C103.083 17.3504 103.791 17.1591 104.602 17.1591C105.094 17.1591 105.571 17.2405 106.034 17.4034C106.496 17.5663 106.91 17.822 107.278 18.1705C107.645 18.5189 107.935 18.9716 108.147 19.5284C108.359 20.0814 108.465 20.7538 108.465 21.5455V22.1477H101.528V20.875H106.801C106.801 20.428 106.71 20.0322 106.528 19.6875C106.346 19.339 106.09 19.0644 105.761 18.8636C105.435 18.6629 105.052 18.5625 104.613 18.5625C104.136 18.5625 103.719 18.6799 103.363 18.9148C103.011 19.1458 102.738 19.4489 102.545 19.8239C102.356 20.1951 102.261 20.5985 102.261 21.0341V22.0284C102.261 22.6117 102.363 23.108 102.568 23.517C102.776 23.9261 103.066 24.2386 103.437 24.4545C103.808 24.6667 104.242 24.7727 104.738 24.7727C105.06 24.7727 105.354 24.7273 105.619 24.6364C105.884 24.5417 106.113 24.4015 106.306 24.2159C106.499 24.0303 106.647 23.8011 106.749 23.5284L108.357 23.8182C108.229 24.2917 107.998 24.7064 107.664 25.0625C107.335 25.4148 106.92 25.6894 106.42 25.8864C105.924 26.0795 105.357 26.1761 104.721 26.1761ZM114.585 26V17.2727H116.227V18.6591H116.318C116.477 18.1894 116.757 17.8201 117.159 17.5511C117.564 17.2784 118.022 17.142 118.534 17.142C118.64 17.142 118.765 17.1458 118.909 17.1534C119.056 17.161 119.172 17.1705 119.255 17.1818V18.8068C119.187 18.7879 119.066 18.767 118.891 18.7443C118.717 18.7178 118.543 18.7045 118.369 18.7045C117.967 18.7045 117.609 18.7898 117.295 18.9602C116.984 19.1269 116.738 19.3598 116.556 19.6591C116.374 19.9545 116.284 20.2917 116.284 20.6705V26H114.585ZM124.174 26.1761C123.314 26.1761 122.574 25.9924 121.953 25.625C121.335 25.2538 120.858 24.733 120.521 24.0625C120.187 23.3883 120.021 22.5985 120.021 21.6932C120.021 20.7992 120.187 20.0114 120.521 19.3295C120.858 18.6477 121.328 18.1155 121.93 17.733C122.536 17.3504 123.244 17.1591 124.055 17.1591C124.547 17.1591 125.025 17.2405 125.487 17.4034C125.949 17.5663 126.364 17.822 126.731 18.1705C127.098 18.5189 127.388 18.9716 127.6 19.5284C127.812 20.0814 127.918 20.7538 127.918 21.5455V22.1477H120.981V20.875H126.254C126.254 20.428 126.163 20.0322 125.981 19.6875C125.799 19.339 125.543 19.0644 125.214 18.8636C124.888 18.6629 124.506 18.5625 124.066 18.5625C123.589 18.5625 123.172 18.6799 122.816 18.9148C122.464 19.1458 122.191 19.4489 121.998 19.8239C121.809 20.1951 121.714 20.5985 121.714 21.0341V22.0284C121.714 22.6117 121.816 23.108 122.021 23.517C122.229 23.9261 122.519 24.2386 122.89 24.4545C123.261 24.6667 123.695 24.7727 124.191 24.7727C124.513 24.7727 124.807 24.7273 125.072 24.6364C125.337 24.5417 125.566 24.4015 125.759 24.2159C125.953 24.0303 126.1 23.8011 126.203 23.5284L127.811 23.8182C127.682 24.2917 127.451 24.7064 127.117 25.0625C126.788 25.4148 126.373 25.6894 125.873 25.8864C125.377 26.0795 124.811 26.1761 124.174 26.1761ZM133.877 17.2727V18.6364H129.11V17.2727H133.877ZM130.389 15.1818H132.088V23.4375C132.088 23.767 132.137 24.0152 132.235 24.1818C132.334 24.3447 132.461 24.4564 132.616 24.517C132.775 24.5739 132.947 24.6023 133.133 24.6023C133.269 24.6023 133.389 24.5928 133.491 24.5739C133.593 24.5549 133.673 24.5398 133.73 24.5284L134.036 25.9318C133.938 25.9697 133.798 26.0076 133.616 26.0455C133.434 26.0871 133.207 26.1098 132.934 26.1136C132.487 26.1212 132.07 26.0417 131.684 25.875C131.298 25.7083 130.985 25.4508 130.747 25.1023C130.508 24.7538 130.389 24.3163 130.389 23.7898V15.1818ZM141.285 22.3807V17.2727H142.99V26H141.319V24.4886H141.228C141.027 24.9545 140.705 25.3428 140.262 25.6534C139.823 25.9602 139.275 26.1136 138.62 26.1136C138.06 26.1136 137.563 25.9905 137.132 25.7443C136.704 25.4943 136.366 25.125 136.12 24.6364C135.878 24.1477 135.757 23.5436 135.757 22.8239V17.2727H137.455V22.6193C137.455 23.214 137.62 23.6875 137.95 24.0398C138.279 24.392 138.707 24.5682 139.234 24.5682C139.552 24.5682 139.868 24.4886 140.183 24.3295C140.501 24.1705 140.764 23.9299 140.972 23.608C141.185 23.286 141.289 22.8769 141.285 22.3807ZM145.272 26V17.2727H146.914V18.6591H147.005C147.164 18.1894 147.445 17.8201 147.846 17.5511C148.251 17.2784 148.71 17.142 149.221 17.142C149.327 17.142 149.452 17.1458 149.596 17.1534C149.744 17.161 149.859 17.1705 149.943 17.1818V18.8068C149.874 18.7879 149.753 18.767 149.579 18.7443C149.405 18.7178 149.231 18.7045 149.056 18.7045C148.655 18.7045 148.297 18.7898 147.982 18.9602C147.672 19.1269 147.426 19.3598 147.244 19.6591C147.062 19.9545 146.971 20.2917 146.971 20.6705V26H145.272ZM153.112 20.8182V26H151.413V17.2727H153.043V18.6932H153.151C153.352 18.2311 153.667 17.8598 154.095 17.5795C154.526 17.2992 155.07 17.1591 155.725 17.1591C156.32 17.1591 156.841 17.2841 157.288 17.5341C157.735 17.7803 158.081 18.1477 158.328 18.6364C158.574 19.125 158.697 19.7292 158.697 20.4489V26H156.998V20.6534C156.998 20.0208 156.833 19.5265 156.504 19.1705C156.174 18.8106 155.722 18.6307 155.146 18.6307C154.752 18.6307 154.401 18.7159 154.095 18.8864C153.792 19.0568 153.551 19.3068 153.373 19.6364C153.199 19.9621 153.112 20.3561 153.112 20.8182ZM167.515 19.4034L165.975 19.6761C165.911 19.4792 165.809 19.2917 165.668 19.1136C165.532 18.9356 165.347 18.7898 165.112 18.6761C164.877 18.5625 164.583 18.5057 164.231 18.5057C163.75 18.5057 163.348 18.6136 163.026 18.8295C162.704 19.0417 162.543 19.3163 162.543 19.6534C162.543 19.9451 162.651 20.1799 162.867 20.358C163.083 20.536 163.432 20.6818 163.913 20.7955L165.299 21.1136C166.102 21.2992 166.701 21.5852 167.095 21.9716C167.489 22.358 167.686 22.8598 167.686 23.4773C167.686 24 167.534 24.4659 167.231 24.875C166.932 25.2803 166.513 25.5985 165.975 25.8295C165.441 26.0606 164.822 26.1761 164.117 26.1761C163.14 26.1761 162.343 25.9678 161.725 25.5511C161.108 25.1307 160.729 24.5341 160.589 23.7614L162.231 23.5114C162.333 23.9394 162.543 24.2633 162.862 24.483C163.18 24.6989 163.595 24.8068 164.106 24.8068C164.663 24.8068 165.108 24.6913 165.441 24.4602C165.775 24.2254 165.941 23.9394 165.941 23.6023C165.941 23.3295 165.839 23.1004 165.634 22.9148C165.434 22.7292 165.125 22.589 164.708 22.4943L163.231 22.1705C162.417 21.9848 161.814 21.6894 161.424 21.2841C161.038 20.8788 160.845 20.3655 160.845 19.7443C160.845 19.2292 160.989 18.7784 161.276 18.392C161.564 18.0057 161.962 17.7045 162.47 17.4886C162.977 17.2689 163.559 17.1591 164.214 17.1591C165.157 17.1591 165.9 17.3636 166.441 17.7727C166.983 18.178 167.341 18.7216 167.515 19.4034ZM78.3673 45L75.7992 36.2727H77.5548L79.2651 42.6818H79.3503L81.0662 36.2727H82.8219L84.5264 42.6534H84.6117L86.3105 36.2727H88.0662L85.5037 45H83.7708L81.998 38.6989H81.8673L80.0946 45H78.3673ZM89.6784 45V36.2727H91.3773V45H89.6784ZM90.5364 34.9261C90.2409 34.9261 89.9871 34.8277 89.775 34.6307C89.5667 34.4299 89.4625 34.1913 89.4625 33.9148C89.4625 33.6345 89.5667 33.3958 89.775 33.1989C89.9871 32.9981 90.2409 32.8977 90.5364 32.8977C90.8318 32.8977 91.0837 32.9981 91.2921 33.1989C91.5042 33.3958 91.6102 33.6345 91.6102 33.9148C91.6102 34.1913 91.5042 34.4299 91.2921 34.6307C91.0837 34.8277 90.8318 34.9261 90.5364 34.9261ZM97.7367 36.2727V37.6364H92.9696V36.2727H97.7367ZM94.248 34.1818H95.9469V42.4375C95.9469 42.767 95.9961 43.0152 96.0946 43.1818C96.1931 43.3447 96.32 43.4564 96.4753 43.517C96.6344 43.5739 96.8067 43.6023 96.9923 43.6023C97.1287 43.6023 97.248 43.5928 97.3503 43.5739C97.4526 43.5549 97.5321 43.5398 97.5889 43.5284L97.8958 44.9318C97.7973 44.9697 97.6571 45.0076 97.4753 45.0455C97.2935 45.0871 97.0662 45.1098 96.7935 45.1136C96.3465 45.1212 95.9298 45.0417 95.5435 44.875C95.1571 44.7083 94.8446 44.4508 94.606 44.1023C94.3673 43.7538 94.248 43.3163 94.248 42.7898V34.1818ZM101.502 39.8182V45H99.8034V33.3636H101.48V37.6932H101.588C101.792 37.2235 102.105 36.8504 102.525 36.5739C102.945 36.2973 103.495 36.1591 104.173 36.1591C104.771 36.1591 105.294 36.2822 105.741 36.5284C106.192 36.7746 106.54 37.142 106.786 37.6307C107.036 38.1155 107.161 38.7216 107.161 39.4489V45H105.463V39.6534C105.463 39.0133 105.298 38.517 104.968 38.1648C104.639 37.8087 104.18 37.6307 103.593 37.6307C103.192 37.6307 102.832 37.7159 102.514 37.8864C102.199 38.0568 101.951 38.3068 101.769 38.6364C101.591 38.9621 101.502 39.3561 101.502 39.8182ZM109.428 45V36.2727H111.127V45H109.428ZM110.286 34.9261C109.991 34.9261 109.737 34.8277 109.525 34.6307C109.317 34.4299 109.213 34.1913 109.213 33.9148C109.213 33.6345 109.317 33.3958 109.525 33.1989C109.737 32.9981 109.991 32.8977 110.286 32.8977C110.582 32.8977 110.834 32.9981 111.042 33.1989C111.254 33.3958 111.36 33.6345 111.36 33.9148C111.36 34.1913 111.254 34.4299 111.042 34.6307C110.834 34.8277 110.582 34.9261 110.286 34.9261ZM115.112 39.8182V45H113.413V36.2727H115.043V37.6932H115.151C115.352 37.2311 115.667 36.8598 116.095 36.5795C116.526 36.2992 117.07 36.1591 117.725 36.1591C118.32 36.1591 118.841 36.2841 119.288 36.5341C119.735 36.7803 120.081 37.1477 120.328 37.6364C120.574 38.125 120.697 38.7292 120.697 39.4489V45H118.998V39.6534C118.998 39.0208 118.833 38.5265 118.504 38.1705C118.174 37.8106 117.722 37.6307 117.146 37.6307C116.752 37.6307 116.401 37.7159 116.095 37.8864C115.792 38.0568 115.551 38.3068 115.373 38.6364C115.199 38.9621 115.112 39.3561 115.112 39.8182ZM131.363 45.1591C130.583 45.1591 129.886 45.0246 129.272 44.7557C128.662 44.4867 128.179 44.1136 127.823 43.6364C127.471 43.1553 127.282 42.5985 127.255 41.9659H129.039C129.062 42.3106 129.177 42.6098 129.386 42.8636C129.598 43.1136 129.874 43.3068 130.215 43.4432C130.556 43.5795 130.935 43.6477 131.352 43.6477C131.81 43.6477 132.215 43.5682 132.568 43.4091C132.924 43.25 133.202 43.0284 133.403 42.7443C133.604 42.4564 133.704 42.125 133.704 41.75C133.704 41.3598 133.604 41.017 133.403 40.7216C133.206 40.4223 132.916 40.1875 132.534 40.017C132.155 39.8466 131.696 39.7614 131.159 39.7614H130.176V38.3295H131.159C131.59 38.3295 131.969 38.2519 132.295 38.0966C132.624 37.9413 132.882 37.7254 133.068 37.4489C133.253 37.1686 133.346 36.8409 133.346 36.4659C133.346 36.1061 133.265 35.7936 133.102 35.5284C132.943 35.2595 132.715 35.0492 132.42 34.8977C132.128 34.7462 131.784 34.6705 131.386 34.6705C131.007 34.6705 130.653 34.7405 130.323 34.8807C129.998 35.017 129.732 35.214 129.528 35.4716C129.323 35.7254 129.213 36.0303 129.198 36.3864H127.499C127.518 35.7576 127.704 35.2045 128.056 34.7273C128.412 34.25 128.882 33.8769 129.465 33.608C130.049 33.339 130.696 33.2045 131.409 33.2045C132.155 33.2045 132.799 33.3504 133.34 33.642C133.886 33.9299 134.306 34.3144 134.602 34.7955C134.901 35.2765 135.049 35.803 135.045 36.375C135.049 37.0265 134.867 37.5795 134.499 38.0341C134.136 38.4886 133.651 38.7936 133.045 38.9489V39.0398C133.818 39.1572 134.416 39.464 134.84 39.9602C135.268 40.4564 135.481 41.072 135.477 41.8068C135.481 42.447 135.302 43.0208 134.943 43.5284C134.587 44.036 134.1 44.4356 133.482 44.7273C132.865 45.0152 132.159 45.1591 131.363 45.1591ZM141.887 45.1932C140.99 45.1894 140.222 44.9527 139.586 44.483C138.95 44.0133 138.463 43.3295 138.126 42.4318C137.789 41.5341 137.62 40.4527 137.62 39.1875C137.62 37.9261 137.789 36.8485 138.126 35.9545C138.467 35.0606 138.955 34.3788 139.592 33.9091C140.232 33.4394 140.997 33.2045 141.887 33.2045C142.777 33.2045 143.541 33.4413 144.177 33.9148C144.813 34.3845 145.3 35.0663 145.637 35.9602C145.978 36.8504 146.149 37.9261 146.149 39.1875C146.149 40.4564 145.98 41.5398 145.643 42.4375C145.306 43.3314 144.819 44.0152 144.183 44.4886C143.546 44.9583 142.781 45.1932 141.887 45.1932ZM141.887 43.6761C142.675 43.6761 143.291 43.2917 143.734 42.5227C144.181 41.7538 144.404 40.642 144.404 39.1875C144.404 38.2216 144.302 37.4053 144.097 36.7386C143.897 36.0682 143.607 35.5606 143.228 35.2159C142.853 34.8674 142.406 34.6932 141.887 34.6932C141.103 34.6932 140.488 35.0795 140.041 35.8523C139.594 36.625 139.368 37.7367 139.365 39.1875C139.365 40.1572 139.465 40.9773 139.666 41.6477C139.87 42.3144 140.16 42.8201 140.535 43.1648C140.91 43.5057 141.361 43.6761 141.887 43.6761ZM155.805 45.1705C155.1 45.1705 154.472 44.9905 153.918 44.6307C153.369 44.267 152.937 43.75 152.623 43.0795C152.312 42.4053 152.157 41.5966 152.157 40.6534C152.157 39.7102 152.314 38.9034 152.629 38.233C152.947 37.5625 153.382 37.0492 153.936 36.6932C154.489 36.3371 155.115 36.1591 155.816 36.1591C156.358 36.1591 156.793 36.25 157.123 36.4318C157.456 36.6098 157.714 36.8182 157.896 37.0568C158.081 37.2955 158.225 37.5057 158.328 37.6875H158.43V33.3636H160.129V45H158.47V43.642H158.328C158.225 43.8277 158.078 44.0398 157.884 44.2784C157.695 44.517 157.434 44.7254 157.1 44.9034C156.767 45.0814 156.335 45.1705 155.805 45.1705ZM156.18 43.7216C156.668 43.7216 157.081 43.5928 157.418 43.3352C157.759 43.0739 158.017 42.7121 158.191 42.25C158.369 41.7879 158.458 41.25 158.458 40.6364C158.458 40.0303 158.371 39.5 158.197 39.0455C158.023 38.5909 157.767 38.2367 157.43 37.983C157.093 37.7292 156.676 37.6023 156.18 37.6023C155.668 37.6023 155.242 37.7348 154.901 38C154.561 38.2652 154.303 38.6269 154.129 39.0852C153.958 39.5436 153.873 40.0606 153.873 40.6364C153.873 41.2197 153.96 41.7443 154.134 42.2102C154.309 42.6761 154.566 43.0455 154.907 43.3182C155.252 43.5871 155.676 43.7216 156.18 43.7216ZM165.093 45.1932C164.54 45.1932 164.04 45.0909 163.593 44.8864C163.146 44.678 162.792 44.3769 162.531 43.983C162.273 43.589 162.144 43.1061 162.144 42.5341C162.144 42.0417 162.239 41.6364 162.428 41.3182C162.618 41 162.873 40.7481 163.195 40.5625C163.517 40.3769 163.877 40.2367 164.275 40.142C164.673 40.0473 165.078 39.9754 165.491 39.9261C166.014 39.8655 166.438 39.8163 166.764 39.7784C167.089 39.7367 167.326 39.6705 167.474 39.5795C167.622 39.4886 167.695 39.3409 167.695 39.1364V39.0966C167.695 38.6004 167.555 38.2159 167.275 37.9432C166.998 37.6705 166.586 37.5341 166.036 37.5341C165.464 37.5341 165.014 37.661 164.684 37.9148C164.358 38.1648 164.133 38.4432 164.008 38.75L162.411 38.3864C162.601 37.8561 162.877 37.428 163.241 37.1023C163.608 36.7727 164.031 36.5341 164.508 36.3864C164.985 36.2348 165.487 36.1591 166.014 36.1591C166.362 36.1591 166.731 36.2008 167.122 36.2841C167.516 36.3636 167.883 36.5114 168.224 36.7273C168.569 36.9432 168.851 37.2519 169.07 37.6534C169.29 38.0511 169.4 38.5682 169.4 39.2045V45H167.741V43.8068H167.673C167.563 44.0265 167.398 44.2424 167.178 44.4545C166.959 44.6667 166.677 44.8428 166.332 44.983C165.987 45.1231 165.574 45.1932 165.093 45.1932ZM165.463 43.8295C165.932 43.8295 166.334 43.7367 166.667 43.5511C167.004 43.3655 167.26 43.1231 167.434 42.8239C167.612 42.5208 167.701 42.197 167.701 41.8523V40.7273C167.641 40.7879 167.523 40.8447 167.349 40.8977C167.178 40.947 166.983 40.9905 166.764 41.0284C166.544 41.0625 166.33 41.0947 166.122 41.125C165.913 41.1515 165.739 41.1742 165.599 41.1932C165.269 41.2348 164.968 41.3049 164.695 41.4034C164.427 41.5019 164.211 41.6439 164.048 41.8295C163.889 42.0114 163.809 42.2538 163.809 42.5568C163.809 42.9773 163.964 43.2955 164.275 43.5114C164.586 43.7235 164.981 43.8295 165.463 43.8295ZM172.424 48.2727C172.17 48.2727 171.939 48.2519 171.731 48.2102C171.523 48.1723 171.367 48.1307 171.265 48.0852L171.674 46.6932C171.985 46.7765 172.261 46.8125 172.504 46.8011C172.746 46.7898 172.96 46.6989 173.146 46.5284C173.335 46.358 173.502 46.0795 173.646 45.6932L173.856 45.1136L170.663 36.2727H172.481L174.691 43.0455H174.782L176.992 36.2727H178.816L175.22 46.1648C175.053 46.6193 174.841 47.0038 174.583 47.3182C174.326 47.6364 174.019 47.875 173.663 48.0341C173.307 48.1932 172.894 48.2727 172.424 48.2727ZM186.953 38.4034L185.413 38.6761C185.348 38.4792 185.246 38.2917 185.106 38.1136C184.97 37.9356 184.784 37.7898 184.549 37.6761C184.314 37.5625 184.021 37.5057 183.668 37.5057C183.187 37.5057 182.786 37.6136 182.464 37.8295C182.142 38.0417 181.981 38.3163 181.981 38.6534C181.981 38.9451 182.089 39.1799 182.305 39.358C182.521 39.536 182.869 39.6818 183.35 39.7955L184.737 40.1136C185.54 40.2992 186.138 40.5852 186.532 40.9716C186.926 41.358 187.123 41.8598 187.123 42.4773C187.123 43 186.972 43.4659 186.668 43.875C186.369 44.2803 185.951 44.5985 185.413 44.8295C184.879 45.0606 184.259 45.1761 183.555 45.1761C182.578 45.1761 181.78 44.9678 181.163 44.5511C180.545 44.1307 180.167 43.5341 180.026 42.7614L181.668 42.5114C181.771 42.9394 181.981 43.2633 182.299 43.483C182.617 43.6989 183.032 43.8068 183.543 43.8068C184.1 43.8068 184.545 43.6913 184.879 43.4602C185.212 43.2254 185.379 42.9394 185.379 42.6023C185.379 42.3295 185.276 42.1004 185.072 41.9148C184.871 41.7292 184.562 41.589 184.146 41.4943L182.668 41.1705C181.854 40.9848 181.252 40.6894 180.862 40.2841C180.475 39.8788 180.282 39.3655 180.282 38.7443C180.282 38.2292 180.426 37.7784 180.714 37.392C181.002 37.0057 181.4 36.7045 181.907 36.4886C182.415 36.2689 182.996 36.1591 183.651 36.1591C184.595 36.1591 185.337 36.3636 185.879 36.7727C186.42 37.178 186.778 37.7216 186.953 38.4034Z" fill="#111111"/>
<defs>
<filter id="filter0_di_396_33" x="0.333252" y="0" width="62" height="62" filterUnits="userSpaceOnUse" color-interpolation-filters="sRGB">
<feFlood flood-opacity="0" result="BackgroundImageFix"/>
<feColorMatrix in="SourceAlpha" type="matrix" values="0 0 0 0 0 0 0 0 0 0 0 0 0 0 0 0 0 0 127 0" result="hardAlpha"/>
<feOffset dy="1"/>
<feGaussianBlur stdDeviation="1.5"/>
<feComposite in2="hardAlpha" operator="out"/>
<feColorMatrix type="matrix" values="0 0 0 0 0.184314 0 0 0 0 0.168627 0 0 0 0 0.262745 0 0 0 0.1 0"/>
<feBlend mode="normal" in2="BackgroundImageFix" result="effect1_dropShadow_396_33"/>
<feBlend mode="normal" in="SourceGraphic" in2="effect1_dropShadow_396_33" result="shape"/>
<feColorMatrix in="SourceAlpha" type="matrix" values="0 0 0 0 0 0 0 0 0 0 0 0 0 0 0 0 0 0 127 0" result="hardAlpha"/>
<feOffset dy="-1"/>
<feComposite in2="hardAlpha" operator="arithmetic" k2="-1" k3="1"/>
<feColorMatrix type="matrix" values="0 0 0 0 0.184314 0 0 0 0 0.168627 0 0 0 0 0.262745 0 0 0 0.1 0"/>
<feBlend mode="normal" in2="shape" result="effect2_innerShadow_396_33"/>
</filter>
<clipPath id="clip0_396_33">
<rect width="24" height="24" fill="white" transform="translate(19.3333 18)"/>
</clipPath>
</defs>
</svg>
