<svg width="216" height="62" viewBox="0 0 216 62" fill="none" xmlns="http://www.w3.org/2000/svg">
<g filter="url(#filter0_di_396_23)">
<rect x="3.66663" y="2" width="56" height="56" rx="8" fill="white"/>
<rect x="4.16663" y="2.5" width="55" height="55" rx="7.5" stroke="#2F2B43" stroke-opacity="0.1"/>
<path d="M29.4579 18.8572V24.5606" stroke="black" stroke-width="2" stroke-linecap="round" stroke-linejoin="round"/>
<path d="M38.7271 26.9468V24.5605H20.1905V35.9674C20.1905 36.1547 20.2274 36.3402 20.2991 36.5132C20.3707 36.6863 20.4758 36.8435 20.6082 36.9759C20.7407 37.1084 20.8979 37.2134 21.071 37.2851C21.244 37.3568 21.4295 37.3937 21.6168 37.3937H27.8516" stroke="black" stroke-width="2" stroke-linecap="round" stroke-linejoin="round"/>
<path d="M20.1905 24.5606L22.3299 20.4395C22.5604 19.9751 22.9132 19.5824 23.3503 19.3036C23.7874 19.0248 24.2922 18.8704 24.8105 18.8572H34.1071C34.6376 18.8573 35.1576 19.0054 35.6086 19.285C36.0595 19.5645 36.4235 19.9643 36.6596 20.4395L38.7271 24.5606" stroke="black" stroke-width="2" stroke-linecap="round" stroke-linejoin="round"/>
<path d="M37.3333 42C38.9246 42 40.4507 41.3679 41.576 40.2426C42.7012 39.1174 43.3333 37.5913 43.3333 36C43.3333 34.4087 42.7012 32.8826 41.576 31.7574C40.4507 30.6321 38.9246 30 37.3333 30C35.742 30 34.2159 30.6321 33.0907 31.7574C31.9655 32.8826 31.3333 34.4087 31.3333 36C31.3333 37.5913 31.9655 39.1174 33.0907 40.2426C34.2159 41.3679 35.742 42 37.3333 42Z" stroke="black" stroke-width="2" stroke-linecap="round" stroke-linejoin="round"/>
<path d="M39.7333 33.6001L37.3333 36.0001" stroke="black" stroke-width="2" stroke-linecap="round" stroke-linejoin="round"/>
</g>
<path d="M76.945 26V14.3636H84.1609V15.875H78.7007V19.4205H83.6439V20.9261H78.7007V26H76.945ZM86.0743 26V17.2727H87.7163V18.6591H87.8073C87.9663 18.1894 88.2466 17.8201 88.6482 17.5511C89.0535 17.2784 89.5118 17.142 90.0232 17.142C90.1292 17.142 90.2542 17.1458 90.3982 17.1534C90.5459 17.161 90.6614 17.1705 90.7448 17.1818V18.8068C90.6766 18.7879 90.5554 18.767 90.3811 18.7443C90.2069 18.7178 90.0326 18.7045 89.8584 18.7045C89.4569 18.7045 89.0989 18.7898 88.7845 18.9602C88.4739 19.1269 88.2277 19.3598 88.0459 19.6591C87.8641 19.9545 87.7732 20.2917 87.7732 20.6705V26H86.0743ZM95.6638 26.1761C94.8039 26.1761 94.0634 25.9924 93.4422 25.625C92.8248 25.2538 92.3475 24.733 92.0104 24.0625C91.677 23.3883 91.5104 22.5985 91.5104 21.6932C91.5104 20.7992 91.677 20.0114 92.0104 19.3295C92.3475 18.6477 92.8172 18.1155 93.4195 17.733C94.0255 17.3504 94.7339 17.1591 95.5445 17.1591C96.0369 17.1591 96.5142 17.2405 96.9763 17.4034C97.4384 17.5663 97.8532 17.822 98.2206 18.1705C98.588 18.5189 98.8778 18.9716 99.0899 19.5284C99.302 20.0814 99.4081 20.7538 99.4081 21.5455V22.1477H92.4706V20.875H97.7433C97.7433 20.428 97.6524 20.0322 97.4706 19.6875C97.2888 19.339 97.0331 19.0644 96.7036 18.8636C96.3778 18.6629 95.9952 18.5625 95.5558 18.5625C95.0786 18.5625 94.6619 18.6799 94.3058 18.9148C93.9536 19.1458 93.6808 19.4489 93.4876 19.8239C93.2983 20.1951 93.2036 20.5985 93.2036 21.0341V22.0284C93.2036 22.6117 93.3058 23.108 93.5104 23.517C93.7187 23.9261 94.0085 24.2386 94.3797 24.4545C94.7509 24.6667 95.1846 24.7727 95.6808 24.7727C96.0028 24.7727 96.2964 24.7273 96.5615 24.6364C96.8267 24.5417 97.0558 24.4015 97.249 24.2159C97.4422 24.0303 97.5899 23.8011 97.6922 23.5284L99.3001 23.8182C99.1714 24.2917 98.9403 24.7064 98.607 25.0625C98.2774 25.4148 97.8626 25.6894 97.3626 25.8864C96.8664 26.0795 96.3001 26.1761 95.6638 26.1761ZM105.054 26.1761C104.195 26.1761 103.454 25.9924 102.833 25.625C102.215 25.2538 101.738 24.733 101.401 24.0625C101.068 23.3883 100.901 22.5985 100.901 21.6932C100.901 20.7992 101.068 20.0114 101.401 19.3295C101.738 18.6477 102.208 18.1155 102.81 17.733C103.416 17.3504 104.124 17.1591 104.935 17.1591C105.428 17.1591 105.905 17.2405 106.367 17.4034C106.829 17.5663 107.244 17.822 107.611 18.1705C107.979 18.5189 108.268 18.9716 108.481 19.5284C108.693 20.0814 108.799 20.7538 108.799 21.5455V22.1477H101.861V20.875H107.134C107.134 20.428 107.043 20.0322 106.861 19.6875C106.679 19.339 106.424 19.0644 106.094 18.8636C105.768 18.6629 105.386 18.5625 104.946 18.5625C104.469 18.5625 104.053 18.6799 103.696 18.9148C103.344 19.1458 103.071 19.4489 102.878 19.8239C102.689 20.1951 102.594 20.5985 102.594 21.0341V22.0284C102.594 22.6117 102.696 23.108 102.901 23.517C103.109 23.9261 103.399 24.2386 103.77 24.4545C104.142 24.6667 104.575 24.7727 105.071 24.7727C105.393 24.7727 105.687 24.7273 105.952 24.6364C106.217 24.5417 106.446 24.4015 106.64 24.2159C106.833 24.0303 106.981 23.8011 107.083 23.5284L108.691 23.8182C108.562 24.2917 108.331 24.7064 107.998 25.0625C107.668 25.4148 107.253 25.6894 106.753 25.8864C106.257 26.0795 105.691 26.1761 105.054 26.1761ZM115.054 26V14.3636H122.35V15.875H116.81V19.4205H121.969V20.9261H116.81V24.4886H122.418V26H115.054ZM125.9 17.2727L127.826 20.6705L129.769 17.2727H131.627L128.905 21.6364L131.65 26H129.792L127.826 22.7386L125.865 26H124.002L126.718 21.6364L124.036 17.2727H125.9ZM133.371 29.2727V17.2727H135.03V18.6875H135.172C135.271 18.5057 135.413 18.2955 135.598 18.0568C135.784 17.8182 136.042 17.6098 136.371 17.4318C136.701 17.25 137.136 17.1591 137.678 17.1591C138.383 17.1591 139.011 17.3371 139.564 17.6932C140.117 18.0492 140.551 18.5625 140.865 19.233C141.184 19.9034 141.343 20.7102 141.343 21.6534C141.343 22.5966 141.186 23.4053 140.871 24.0795C140.557 24.75 140.125 25.267 139.576 25.6307C139.026 25.9905 138.4 26.1705 137.695 26.1705C137.165 26.1705 136.731 26.0814 136.394 25.9034C136.061 25.7254 135.799 25.517 135.61 25.2784C135.42 25.0398 135.275 24.8277 135.172 24.642H135.07V29.2727H133.371ZM135.036 21.6364C135.036 22.25 135.125 22.7879 135.303 23.25C135.481 23.7121 135.739 24.0739 136.076 24.3352C136.413 24.5928 136.826 24.7216 137.314 24.7216C137.822 24.7216 138.246 24.5871 138.587 24.3182C138.928 24.0455 139.186 23.6761 139.36 23.2102C139.538 22.7443 139.627 22.2197 139.627 21.6364C139.627 21.0606 139.54 20.5436 139.365 20.0852C139.195 19.6269 138.937 19.2652 138.593 19C138.252 18.7348 137.826 18.6023 137.314 18.6023C136.822 18.6023 136.405 18.7292 136.064 18.983C135.727 19.2367 135.472 19.5909 135.297 20.0455C135.123 20.5 135.036 21.0303 135.036 21.6364ZM143.246 26V17.2727H144.888V18.6591H144.979C145.138 18.1894 145.419 17.8201 145.82 17.5511C146.225 17.2784 146.684 17.142 147.195 17.142C147.301 17.142 147.426 17.1458 147.57 17.1534C147.718 17.161 147.833 17.1705 147.917 17.1818V18.8068C147.848 18.7879 147.727 18.767 147.553 18.7443C147.379 18.7178 147.205 18.7045 147.03 18.7045C146.629 18.7045 146.271 18.7898 145.956 18.9602C145.646 19.1269 145.4 19.3598 145.218 19.6591C145.036 19.9545 144.945 20.2917 144.945 20.6705V26H143.246ZM152.836 26.1761C151.976 26.1761 151.235 25.9924 150.614 25.625C149.997 25.2538 149.519 24.733 149.182 24.0625C148.849 23.3883 148.682 22.5985 148.682 21.6932C148.682 20.7992 148.849 20.0114 149.182 19.3295C149.519 18.6477 149.989 18.1155 150.591 17.733C151.197 17.3504 151.906 17.1591 152.716 17.1591C153.209 17.1591 153.686 17.2405 154.148 17.4034C154.61 17.5663 155.025 17.822 155.392 18.1705C155.76 18.5189 156.05 18.9716 156.262 19.5284C156.474 20.0814 156.58 20.7538 156.58 21.5455V22.1477H149.642V20.875H154.915C154.915 20.428 154.824 20.0322 154.642 19.6875C154.461 19.339 154.205 19.0644 153.875 18.8636C153.55 18.6629 153.167 18.5625 152.728 18.5625C152.25 18.5625 151.834 18.6799 151.478 18.9148C151.125 19.1458 150.853 19.4489 150.66 19.8239C150.47 20.1951 150.375 20.5985 150.375 21.0341V22.0284C150.375 22.6117 150.478 23.108 150.682 23.517C150.891 23.9261 151.18 24.2386 151.552 24.4545C151.923 24.6667 152.356 24.7727 152.853 24.7727C153.175 24.7727 153.468 24.7273 153.733 24.6364C153.999 24.5417 154.228 24.4015 154.421 24.2159C154.614 24.0303 154.762 23.8011 154.864 23.5284L156.472 23.8182C156.343 24.2917 156.112 24.7064 155.779 25.0625C155.449 25.4148 155.035 25.6894 154.535 25.8864C154.038 26.0795 153.472 26.1761 152.836 26.1761ZM165.005 19.4034L163.465 19.6761C163.401 19.4792 163.298 19.2917 163.158 19.1136C163.022 18.9356 162.836 18.7898 162.601 18.6761C162.366 18.5625 162.073 18.5057 161.721 18.5057C161.24 18.5057 160.838 18.6136 160.516 18.8295C160.194 19.0417 160.033 19.3163 160.033 19.6534C160.033 19.9451 160.141 20.1799 160.357 20.358C160.573 20.536 160.921 20.6818 161.402 20.7955L162.789 21.1136C163.592 21.2992 164.19 21.5852 164.584 21.9716C164.978 22.358 165.175 22.8598 165.175 23.4773C165.175 24 165.024 24.4659 164.721 24.875C164.421 25.2803 164.003 25.5985 163.465 25.8295C162.931 26.0606 162.312 26.1761 161.607 26.1761C160.63 26.1761 159.832 25.9678 159.215 25.5511C158.597 25.1307 158.219 24.5341 158.079 23.7614L159.721 23.5114C159.823 23.9394 160.033 24.2633 160.351 24.483C160.669 24.6989 161.084 24.8068 161.596 24.8068C162.152 24.8068 162.597 24.6913 162.931 24.4602C163.264 24.2254 163.431 23.9394 163.431 23.6023C163.431 23.3295 163.329 23.1004 163.124 22.9148C162.923 22.7292 162.615 22.589 162.198 22.4943L160.721 22.1705C159.906 21.9848 159.304 21.6894 158.914 21.2841C158.527 20.8788 158.334 20.3655 158.334 19.7443C158.334 19.2292 158.478 18.7784 158.766 18.392C159.054 18.0057 159.452 17.7045 159.959 17.4886C160.467 17.2689 161.048 17.1591 161.704 17.1591C162.647 17.1591 163.389 17.3636 163.931 17.7727C164.472 18.178 164.83 18.7216 165.005 19.4034ZM173.583 19.4034L172.043 19.6761C171.979 19.4792 171.876 19.2917 171.736 19.1136C171.6 18.9356 171.414 18.7898 171.179 18.6761C170.945 18.5625 170.651 18.5057 170.299 18.5057C169.818 18.5057 169.416 18.6136 169.094 18.8295C168.772 19.0417 168.611 19.3163 168.611 19.6534C168.611 19.9451 168.719 20.1799 168.935 20.358C169.151 20.536 169.499 20.6818 169.981 20.7955L171.367 21.1136C172.17 21.2992 172.768 21.5852 173.162 21.9716C173.556 22.358 173.753 22.8598 173.753 23.4773C173.753 24 173.602 24.4659 173.299 24.875C172.999 25.2803 172.581 25.5985 172.043 25.8295C171.509 26.0606 170.89 26.1761 170.185 26.1761C169.208 26.1761 168.41 25.9678 167.793 25.5511C167.176 25.1307 166.797 24.5341 166.657 23.7614L168.299 23.5114C168.401 23.9394 168.611 24.2633 168.929 24.483C169.248 24.6989 169.662 24.8068 170.174 24.8068C170.731 24.8068 171.176 24.6913 171.509 24.4602C171.842 24.2254 172.009 23.9394 172.009 23.6023C172.009 23.3295 171.907 23.1004 171.702 22.9148C171.501 22.7292 171.193 22.589 170.776 22.4943L169.299 22.1705C168.484 21.9848 167.882 21.6894 167.492 21.2841C167.106 20.8788 166.912 20.3655 166.912 19.7443C166.912 19.2292 167.056 18.7784 167.344 18.392C167.632 18.0057 168.03 17.7045 168.537 17.4886C169.045 17.2689 169.626 17.1591 170.282 17.1591C171.225 17.1591 171.967 17.3636 172.509 17.7727C173.051 18.178 173.409 18.7216 173.583 19.4034ZM83.2916 36.4205C83.231 35.8826 82.981 35.4659 82.5416 35.1705C82.1022 34.8712 81.5492 34.7216 80.8825 34.7216C80.4053 34.7216 79.9924 34.7973 79.6439 34.9489C79.2954 35.0966 79.0246 35.3011 78.8314 35.5625C78.642 35.8201 78.5473 36.1136 78.5473 36.4432C78.5473 36.7197 78.6117 36.9583 78.7405 37.1591C78.8731 37.3598 79.0454 37.5284 79.2575 37.6648C79.4734 37.7973 79.7045 37.9091 79.9507 38C80.1969 38.0871 80.4337 38.1591 80.6609 38.2159L81.7973 38.5114C82.1685 38.6023 82.5492 38.7254 82.9394 38.8807C83.3295 39.036 83.6912 39.2405 84.0246 39.4943C84.3579 39.7481 84.6269 40.0625 84.8314 40.4375C85.0397 40.8125 85.1439 41.2614 85.1439 41.7841C85.1439 42.4432 84.9734 43.0284 84.6325 43.5398C84.2954 44.0511 83.8049 44.4545 83.1609 44.75C82.5208 45.0455 81.7462 45.1932 80.8371 45.1932C79.9659 45.1932 79.2121 45.0549 78.5757 44.7784C77.9394 44.5019 77.4412 44.1098 77.0814 43.6023C76.7216 43.0909 76.5227 42.4848 76.4848 41.7841H78.2462C78.2803 42.2045 78.4166 42.5549 78.6553 42.8352C78.8977 43.1117 79.2064 43.3182 79.5814 43.4545C79.9602 43.5871 80.375 43.6534 80.8257 43.6534C81.3219 43.6534 81.7632 43.5758 82.1496 43.4205C82.5397 43.2614 82.8466 43.0417 83.07 42.7614C83.2935 42.4773 83.4053 42.1458 83.4053 41.767C83.4053 41.4223 83.3068 41.1402 83.1098 40.9205C82.9166 40.7008 82.6534 40.5189 82.32 40.375C81.9905 40.2311 81.6174 40.1042 81.2007 39.9943L79.8257 39.6193C78.8939 39.3655 78.1553 38.9924 77.6098 38.5C77.0681 38.0076 76.7973 37.3561 76.7973 36.5455C76.7973 35.875 76.9791 35.2898 77.3428 34.7898C77.7064 34.2898 78.1988 33.9015 78.82 33.625C79.4412 33.3447 80.142 33.2045 80.9223 33.2045C81.7102 33.2045 82.4053 33.3428 83.0075 33.6193C83.6136 33.8958 84.0909 34.2765 84.4394 34.7614C84.7878 35.2424 84.9697 35.7955 84.9848 36.4205H83.2916ZM88.8044 39.8182V45H87.1055V33.3636H88.7817V37.6932H88.8896C89.0942 37.2235 89.4067 36.8504 89.8271 36.5739C90.2476 36.2973 90.7968 36.1591 91.4749 36.1591C92.0733 36.1591 92.5961 36.2822 93.043 36.5284C93.4938 36.7746 93.8423 37.142 94.0885 37.6307C94.3385 38.1155 94.4635 38.7216 94.4635 39.4489V45H92.7646V39.6534C92.7646 39.0133 92.5999 38.517 92.2703 38.1648C91.9408 37.8087 91.4824 37.6307 90.8953 37.6307C90.4938 37.6307 90.134 37.7159 89.8158 37.8864C89.5014 38.0568 89.2533 38.3068 89.0715 38.6364C88.8934 38.9621 88.8044 39.3561 88.8044 39.8182ZM96.7305 45V36.2727H98.4294V45H96.7305ZM97.5885 34.9261C97.293 34.9261 97.0393 34.8277 96.8271 34.6307C96.6188 34.4299 96.5146 34.1913 96.5146 33.9148C96.5146 33.6345 96.6188 33.3958 96.8271 33.1989C97.0393 32.9981 97.293 32.8977 97.5885 32.8977C97.884 32.8977 98.1358 32.9981 98.3442 33.1989C98.5563 33.3958 98.6624 33.6345 98.6624 33.9148C98.6624 34.1913 98.5563 34.4299 98.3442 34.6307C98.1358 34.8277 97.884 34.9261 97.5885 34.9261ZM100.715 48.2727V36.2727H102.374V37.6875H102.516C102.615 37.5057 102.757 37.2955 102.942 37.0568C103.128 36.8182 103.385 36.6098 103.715 36.4318C104.044 36.25 104.48 36.1591 105.022 36.1591C105.726 36.1591 106.355 36.3371 106.908 36.6932C107.461 37.0492 107.895 37.5625 108.209 38.233C108.527 38.9034 108.687 39.7102 108.687 40.6534C108.687 41.5966 108.529 42.4053 108.215 43.0795C107.901 43.75 107.469 44.267 106.919 44.6307C106.37 44.9905 105.743 45.1705 105.039 45.1705C104.508 45.1705 104.075 45.0814 103.738 44.9034C103.404 44.7254 103.143 44.517 102.954 44.2784C102.764 44.0398 102.618 43.8277 102.516 43.642H102.414V48.2727H100.715ZM102.38 40.6364C102.38 41.25 102.469 41.7879 102.647 42.25C102.825 42.7121 103.082 43.0739 103.419 43.3352C103.757 43.5928 104.169 43.7216 104.658 43.7216C105.166 43.7216 105.59 43.5871 105.931 43.3182C106.272 43.0455 106.529 42.6761 106.704 42.2102C106.882 41.7443 106.971 41.2197 106.971 40.6364C106.971 40.0606 106.883 39.5436 106.709 39.0852C106.539 38.6269 106.281 38.2652 105.937 38C105.596 37.7348 105.169 37.6023 104.658 37.6023C104.166 37.6023 103.749 37.7292 103.408 37.983C103.071 38.2367 102.815 38.5909 102.641 39.0455C102.467 39.5 102.38 40.0303 102.38 40.6364ZM110.59 48.2727V36.2727H112.249V37.6875H112.391C112.49 37.5057 112.632 37.2955 112.817 37.0568C113.003 36.8182 113.26 36.6098 113.59 36.4318C113.919 36.25 114.355 36.1591 114.897 36.1591C115.601 36.1591 116.23 36.3371 116.783 36.6932C117.336 37.0492 117.77 37.5625 118.084 38.233C118.402 38.9034 118.562 39.7102 118.562 40.6534C118.562 41.5966 118.404 42.4053 118.09 43.0795C117.776 43.75 117.344 44.267 116.794 44.6307C116.245 44.9905 115.618 45.1705 114.914 45.1705C114.383 45.1705 113.95 45.0814 113.613 44.9034C113.279 44.7254 113.018 44.517 112.829 44.2784C112.639 44.0398 112.493 43.8277 112.391 43.642H112.289V48.2727H110.59ZM112.255 40.6364C112.255 41.25 112.344 41.7879 112.522 42.25C112.7 42.7121 112.957 43.0739 113.294 43.3352C113.632 43.5928 114.044 43.7216 114.533 43.7216C115.041 43.7216 115.465 43.5871 115.806 43.3182C116.147 43.0455 116.404 42.6761 116.579 42.2102C116.757 41.7443 116.846 41.2197 116.846 40.6364C116.846 40.0606 116.758 39.5436 116.584 39.0852C116.414 38.6269 116.156 38.2652 115.812 38C115.471 37.7348 115.044 37.6023 114.533 37.6023C114.041 37.6023 113.624 37.7292 113.283 37.983C112.946 38.2367 112.69 38.5909 112.516 39.0455C112.342 39.5 112.255 40.0303 112.255 40.6364ZM120.465 45V36.2727H122.164V45H120.465ZM121.323 34.9261C121.027 34.9261 120.774 34.8277 120.562 34.6307C120.353 34.4299 120.249 34.1913 120.249 33.9148C120.249 33.6345 120.353 33.3958 120.562 33.1989C120.774 32.9981 121.027 32.8977 121.323 32.8977C121.618 32.8977 121.87 32.9981 122.079 33.1989C122.291 33.3958 122.397 33.6345 122.397 33.9148C122.397 34.1913 122.291 34.4299 122.079 34.6307C121.87 34.8277 121.618 34.9261 121.323 34.9261ZM126.148 39.8182V45H124.449V36.2727H126.08V37.6932H126.188C126.389 37.2311 126.703 36.8598 127.131 36.5795C127.563 36.2992 128.106 36.1591 128.762 36.1591C129.356 36.1591 129.877 36.2841 130.324 36.5341C130.771 36.7803 131.118 37.1477 131.364 37.6364C131.61 38.125 131.733 38.7292 131.733 39.4489V45H130.035V39.6534C130.035 39.0208 129.87 38.5265 129.54 38.1705C129.211 37.8106 128.758 37.6307 128.182 37.6307C127.788 37.6307 127.438 37.7159 127.131 37.8864C126.828 38.0568 126.588 38.3068 126.41 38.6364C126.235 38.9621 126.148 39.3561 126.148 39.8182ZM137.671 48.4545C136.978 48.4545 136.381 48.3636 135.881 48.1818C135.385 48 134.98 47.7595 134.665 47.4602C134.351 47.161 134.116 46.8333 133.961 46.4773L135.421 45.875C135.523 46.0417 135.66 46.2178 135.83 46.4034C136.004 46.5928 136.239 46.7538 136.535 46.8864C136.834 47.0189 137.218 47.0852 137.688 47.0852C138.332 47.0852 138.864 46.928 139.285 46.6136C139.705 46.303 139.915 45.8068 139.915 45.125V43.4091H139.807C139.705 43.5947 139.557 43.8011 139.364 44.0284C139.175 44.2557 138.913 44.4527 138.58 44.6193C138.247 44.786 137.813 44.8693 137.279 44.8693C136.589 44.8693 135.968 44.7083 135.415 44.3864C134.866 44.0606 134.43 43.5814 134.108 42.9489C133.79 42.3125 133.631 41.5303 133.631 40.6023C133.631 39.6742 133.788 38.8788 134.103 38.2159C134.421 37.553 134.856 37.0455 135.41 36.6932C135.963 36.3371 136.589 36.1591 137.29 36.1591C137.832 36.1591 138.269 36.25 138.603 36.4318C138.936 36.6098 139.196 36.8182 139.381 37.0568C139.571 37.2955 139.716 37.5057 139.819 37.6875H139.944V36.2727H141.608V45.1932C141.608 45.9432 141.434 46.5587 141.086 47.0398C140.737 47.5208 140.266 47.8769 139.671 48.108C139.08 48.339 138.413 48.4545 137.671 48.4545ZM137.654 43.4602C138.142 43.4602 138.555 43.3466 138.892 43.1193C139.233 42.8883 139.491 42.5587 139.665 42.1307C139.843 41.6989 139.932 41.1818 139.932 40.5795C139.932 39.9924 139.845 39.4754 139.671 39.0284C139.497 38.5814 139.241 38.233 138.904 37.983C138.567 37.7292 138.15 37.6023 137.654 37.6023C137.142 37.6023 136.716 37.7348 136.375 38C136.035 38.2614 135.777 38.6174 135.603 39.0682C135.432 39.5189 135.347 40.0227 135.347 40.5795C135.347 41.1515 135.434 41.6534 135.608 42.0852C135.783 42.517 136.04 42.8542 136.381 43.0966C136.726 43.339 137.15 43.4602 137.654 43.4602Z" fill="#111111"/>
<defs>
<filter id="filter0_di_396_23" x="0.666626" y="0" width="62" height="62" filterUnits="userSpaceOnUse" color-interpolation-filters="sRGB">
<feFlood flood-opacity="0" result="BackgroundImageFix"/>
<feColorMatrix in="SourceAlpha" type="matrix" values="0 0 0 0 0 0 0 0 0 0 0 0 0 0 0 0 0 0 127 0" result="hardAlpha"/>
<feOffset dy="1"/>
<feGaussianBlur stdDeviation="1.5"/>
<feComposite in2="hardAlpha" operator="out"/>
<feColorMatrix type="matrix" values="0 0 0 0 0.184314 0 0 0 0 0.168627 0 0 0 0 0.262745 0 0 0 0.1 0"/>
<feBlend mode="normal" in2="BackgroundImageFix" result="effect1_dropShadow_396_23"/>
<feBlend mode="normal" in="SourceGraphic" in2="effect1_dropShadow_396_23" result="shape"/>
<feColorMatrix in="SourceAlpha" type="matrix" values="0 0 0 0 0 0 0 0 0 0 0 0 0 0 0 0 0 0 127 0" result="hardAlpha"/>
<feOffset dy="-1"/>
<feComposite in2="hardAlpha" operator="arithmetic" k2="-1" k3="1"/>
<feColorMatrix type="matrix" values="0 0 0 0 0.184314 0 0 0 0 0.168627 0 0 0 0 0.262745 0 0 0 0.1 0"/>
<feBlend mode="normal" in2="shape" result="effect2_innerShadow_396_23"/>
</filter>
</defs>
</svg>
