<svg width="215" height="62" viewBox="0 0 215 62" fill="none" xmlns="http://www.w3.org/2000/svg">
<g filter="url(#filter0_di_396_15)">
<rect x="3" y="2" width="56" height="56" rx="8" fill="white"/>
<rect x="3.5" y="2.5" width="55" height="55" rx="7.5" stroke="#2F2B43" stroke-opacity="0.1"/>
<g clip-path="url(#clip0_396_15)">
<path d="M36.9314 29.9949C36.9314 26.7909 31 18.8572 31 18.8572C31 18.8572 25.0686 26.7909 25.0686 29.9949C25.0683 30.7738 25.2216 31.5451 25.5197 32.2648C25.8177 32.9844 26.2546 33.6382 26.8054 34.1889C27.3563 34.7396 28.0103 35.1764 28.73 35.4742C29.4497 35.772 30.2211 35.9251 31 35.9246C32.5728 35.9246 34.0812 35.2999 35.1935 34.1879C36.3059 33.0759 36.931 31.5677 36.9314 29.9949Z" stroke="black" stroke-width="2" stroke-linecap="round" stroke-linejoin="round"/>
<path d="M19.8571 35.9932C21.1787 37.6666 22.8768 39.0042 24.8131 39.8973C26.7494 40.7904 28.8692 41.2136 31 41.1326C33.1308 41.2134 35.2505 40.79 37.1868 39.8969C39.123 39.0039 40.8211 37.6664 42.1429 35.9932" stroke="black" stroke-width="2" stroke-linecap="round" stroke-linejoin="round"/>
</g>
</g>
<path d="M76.2784 26V14.3636H80.4261C81.3314 14.3636 82.0814 14.5284 82.6761 14.858C83.2708 15.1875 83.7159 15.6383 84.0114 16.2102C84.3068 16.7784 84.4545 17.4186 84.4545 18.1307C84.4545 18.8466 84.3049 19.4905 84.0057 20.0625C83.7102 20.6307 83.2633 21.0814 82.6648 21.4148C82.0701 21.7443 81.322 21.9091 80.4205 21.9091H77.5682V20.4205H80.2614C80.8333 20.4205 81.2973 20.322 81.6534 20.125C82.0095 19.9242 82.2708 19.6515 82.4375 19.3068C82.6042 18.9621 82.6875 18.5701 82.6875 18.1307C82.6875 17.6913 82.6042 17.3011 82.4375 16.9602C82.2708 16.6193 82.0076 16.3523 81.6477 16.1591C81.2917 15.9659 80.822 15.8693 80.2386 15.8693H78.0341V26H76.2784ZM86.3764 26V17.2727H88.0185V18.6591H88.1094C88.2685 18.1894 88.5488 17.8201 88.9503 17.5511C89.3556 17.2784 89.8139 17.142 90.3253 17.142C90.4313 17.142 90.5563 17.1458 90.7003 17.1534C90.848 17.161 90.9635 17.1705 91.0469 17.1818V18.8068C90.9787 18.7879 90.8575 18.767 90.6832 18.7443C90.509 18.7178 90.3348 18.7045 90.1605 18.7045C89.759 18.7045 89.401 18.7898 89.0866 18.9602C88.776 19.1269 88.5298 19.3598 88.348 19.6591C88.1662 19.9545 88.0753 20.2917 88.0753 20.6705V26H86.3764ZM95.9659 26.1761C95.1061 26.1761 94.3655 25.9924 93.7443 25.625C93.1269 25.2538 92.6496 24.733 92.3125 24.0625C91.9792 23.3883 91.8125 22.5985 91.8125 21.6932C91.8125 20.7992 91.9792 20.0114 92.3125 19.3295C92.6496 18.6477 93.1193 18.1155 93.7216 17.733C94.3277 17.3504 95.036 17.1591 95.8466 17.1591C96.339 17.1591 96.8163 17.2405 97.2784 17.4034C97.7405 17.5663 98.1553 17.822 98.5227 18.1705C98.8902 18.5189 99.1799 18.9716 99.392 19.5284C99.6042 20.0814 99.7102 20.7538 99.7102 21.5455V22.1477H92.7727V20.875H98.0455C98.0455 20.428 97.9545 20.0322 97.7727 19.6875C97.5909 19.339 97.3352 19.0644 97.0057 18.8636C96.6799 18.6629 96.2973 18.5625 95.858 18.5625C95.3807 18.5625 94.964 18.6799 94.608 18.9148C94.2557 19.1458 93.983 19.4489 93.7898 19.8239C93.6004 20.1951 93.5057 20.5985 93.5057 21.0341V22.0284C93.5057 22.6117 93.608 23.108 93.8125 23.517C94.0208 23.9261 94.3106 24.2386 94.6818 24.4545C95.053 24.6667 95.4867 24.7727 95.983 24.7727C96.3049 24.7727 96.5985 24.7273 96.8636 24.6364C97.1288 24.5417 97.358 24.4015 97.5511 24.2159C97.7443 24.0303 97.892 23.8011 97.9943 23.5284L99.6023 23.8182C99.4735 24.2917 99.2424 24.7064 98.9091 25.0625C98.5795 25.4148 98.1648 25.6894 97.6648 25.8864C97.1686 26.0795 96.6023 26.1761 95.9659 26.1761ZM101.595 26V17.2727H103.226V18.6932H103.334C103.516 18.2121 103.813 17.8371 104.226 17.5682C104.639 17.2955 105.133 17.1591 105.709 17.1591C106.292 17.1591 106.781 17.2955 107.175 17.5682C107.572 17.8409 107.866 18.2159 108.055 18.6932H108.146C108.355 18.2273 108.686 17.8561 109.141 17.5795C109.595 17.2992 110.137 17.1591 110.766 17.1591C111.557 17.1591 112.203 17.4072 112.703 17.9034C113.207 18.3996 113.459 19.1477 113.459 20.1477V26H111.76V20.3068C111.76 19.7159 111.599 19.2879 111.277 19.0227C110.955 18.7576 110.571 18.625 110.124 18.625C109.571 18.625 109.141 18.7955 108.834 19.1364C108.527 19.4735 108.374 19.9072 108.374 20.4375V26H106.68V20.1989C106.68 19.7254 106.533 19.3447 106.237 19.0568C105.942 18.7689 105.557 18.625 105.084 18.625C104.762 18.625 104.464 18.7102 104.192 18.8807C103.923 19.0473 103.705 19.2803 103.538 19.5795C103.375 19.8788 103.294 20.2254 103.294 20.6193V26H101.595ZM115.736 26V17.2727H117.435V26H115.736ZM116.594 15.9261C116.298 15.9261 116.045 15.8277 115.832 15.6307C115.624 15.4299 115.52 15.1913 115.52 14.9148C115.52 14.6345 115.624 14.3958 115.832 14.1989C116.045 13.9981 116.298 13.8977 116.594 13.8977C116.889 13.8977 117.141 13.9981 117.349 14.1989C117.562 14.3958 117.668 14.6345 117.668 14.9148C117.668 15.1913 117.562 15.4299 117.349 15.6307C117.141 15.8277 116.889 15.9261 116.594 15.9261ZM125.249 22.3807V17.2727H126.953V26H125.283V24.4886H125.192C124.991 24.9545 124.669 25.3428 124.226 25.6534C123.786 25.9602 123.239 26.1136 122.584 26.1136C122.023 26.1136 121.527 25.9905 121.095 25.7443C120.667 25.4943 120.33 25.125 120.084 24.6364C119.841 24.1477 119.72 23.5436 119.72 22.8239V17.2727H121.419V22.6193C121.419 23.214 121.584 23.6875 121.913 24.0398C122.243 24.392 122.671 24.5682 123.197 24.5682C123.516 24.5682 123.832 24.4886 124.146 24.3295C124.464 24.1705 124.728 23.9299 124.936 23.608C125.148 23.286 125.252 22.8769 125.249 22.3807ZM129.236 26V17.2727H130.866V18.6932H130.974C131.156 18.2121 131.454 17.8371 131.866 17.5682C132.279 17.2955 132.774 17.1591 133.349 17.1591C133.933 17.1591 134.421 17.2955 134.815 17.5682C135.213 17.8409 135.507 18.2159 135.696 18.6932H135.787C135.995 18.2273 136.327 17.8561 136.781 17.5795C137.236 17.2992 137.777 17.1591 138.406 17.1591C139.198 17.1591 139.844 17.4072 140.344 17.9034C140.848 18.3996 141.099 19.1477 141.099 20.1477V26H139.401V20.3068C139.401 19.7159 139.24 19.2879 138.918 19.0227C138.596 18.7576 138.211 18.625 137.764 18.625C137.211 18.625 136.781 18.7955 136.474 19.1364C136.168 19.4735 136.014 19.9072 136.014 20.4375V26H134.321V20.1989C134.321 19.7254 134.173 19.3447 133.878 19.0568C133.582 18.7689 133.198 18.625 132.724 18.625C132.402 18.625 132.105 18.7102 131.832 18.8807C131.563 19.0473 131.346 19.2803 131.179 19.5795C131.016 19.8788 130.935 20.2254 130.935 20.6193V26H129.236ZM154.151 19.4034L152.611 19.6761C152.546 19.4792 152.444 19.2917 152.304 19.1136C152.168 18.9356 151.982 18.7898 151.747 18.6761C151.512 18.5625 151.219 18.5057 150.866 18.5057C150.385 18.5057 149.984 18.6136 149.662 18.8295C149.34 19.0417 149.179 19.3163 149.179 19.6534C149.179 19.9451 149.287 20.1799 149.503 20.358C149.719 20.536 150.067 20.6818 150.548 20.7955L151.935 21.1136C152.738 21.2992 153.336 21.5852 153.73 21.9716C154.124 22.358 154.321 22.8598 154.321 23.4773C154.321 24 154.17 24.4659 153.866 24.875C153.567 25.2803 153.149 25.5985 152.611 25.8295C152.077 26.0606 151.457 26.1761 150.753 26.1761C149.776 26.1761 148.978 25.9678 148.361 25.5511C147.743 25.1307 147.365 24.5341 147.224 23.7614L148.866 23.5114C148.969 23.9394 149.179 24.2633 149.497 24.483C149.815 24.6989 150.23 24.8068 150.741 24.8068C151.298 24.8068 151.743 24.6913 152.077 24.4602C152.41 24.2254 152.577 23.9394 152.577 23.6023C152.577 23.3295 152.474 23.1004 152.27 22.9148C152.069 22.7292 151.76 22.589 151.344 22.4943L149.866 22.1705C149.052 21.9848 148.45 21.6894 148.06 21.2841C147.673 20.8788 147.48 20.3655 147.48 19.7443C147.48 19.2292 147.624 18.7784 147.912 18.392C148.2 18.0057 148.598 17.7045 149.105 17.4886C149.613 17.2689 150.194 17.1591 150.849 17.1591C151.793 17.1591 152.535 17.3636 153.077 17.7727C153.618 18.178 153.976 18.7216 154.151 19.4034ZM160.263 17.2727V18.6364H155.496V17.2727H160.263ZM156.774 15.1818H158.473V23.4375C158.473 23.767 158.522 24.0152 158.621 24.1818C158.719 24.3447 158.846 24.4564 159.001 24.517C159.161 24.5739 159.333 24.6023 159.518 24.6023C159.655 24.6023 159.774 24.5928 159.876 24.5739C159.979 24.5549 160.058 24.5398 160.115 24.5284L160.422 25.9318C160.323 25.9697 160.183 26.0076 160.001 26.0455C159.82 26.0871 159.592 26.1098 159.32 26.1136C158.873 26.1212 158.456 26.0417 158.07 25.875C157.683 25.7083 157.371 25.4508 157.132 25.1023C156.893 24.7538 156.774 24.3163 156.774 23.7898V15.1818ZM164.682 26.1932C164.129 26.1932 163.629 26.0909 163.182 25.8864C162.735 25.678 162.381 25.3769 162.119 24.983C161.862 24.589 161.733 24.1061 161.733 23.5341C161.733 23.0417 161.828 22.6364 162.017 22.3182C162.206 22 162.462 21.7481 162.784 21.5625C163.106 21.3769 163.466 21.2367 163.864 21.142C164.261 21.0473 164.667 20.9754 165.08 20.9261C165.602 20.8655 166.027 20.8163 166.352 20.7784C166.678 20.7367 166.915 20.6705 167.062 20.5795C167.21 20.4886 167.284 20.3409 167.284 20.1364V20.0966C167.284 19.6004 167.144 19.2159 166.864 18.9432C166.587 18.6705 166.174 18.5341 165.625 18.5341C165.053 18.5341 164.602 18.661 164.273 18.9148C163.947 19.1648 163.722 19.4432 163.597 19.75L162 19.3864C162.189 18.8561 162.466 18.428 162.83 18.1023C163.197 17.7727 163.619 17.5341 164.097 17.3864C164.574 17.2348 165.076 17.1591 165.602 17.1591C165.951 17.1591 166.32 17.2008 166.71 17.2841C167.104 17.3636 167.472 17.5114 167.812 17.7273C168.157 17.9432 168.439 18.2519 168.659 18.6534C168.879 19.0511 168.989 19.5682 168.989 20.2045V26H167.33V24.8068H167.261C167.152 25.0265 166.987 25.2424 166.767 25.4545C166.547 25.6667 166.265 25.8428 165.92 25.983C165.576 26.1231 165.163 26.1932 164.682 26.1932ZM165.051 24.8295C165.521 24.8295 165.922 24.7367 166.256 24.5511C166.593 24.3655 166.848 24.1231 167.023 23.8239C167.201 23.5208 167.29 23.197 167.29 22.8523V21.7273C167.229 21.7879 167.112 21.8447 166.938 21.8977C166.767 21.947 166.572 21.9905 166.352 22.0284C166.133 22.0625 165.919 22.0947 165.71 22.125C165.502 22.1515 165.328 22.1742 165.188 22.1932C164.858 22.2348 164.557 22.3049 164.284 22.4034C164.015 22.5019 163.799 22.6439 163.636 22.8295C163.477 23.0114 163.398 23.2538 163.398 23.5568C163.398 23.9773 163.553 24.2955 163.864 24.5114C164.174 24.7235 164.57 24.8295 165.051 24.8295ZM171.251 26V17.2727H172.95V26H171.251ZM172.109 15.9261C171.814 15.9261 171.56 15.8277 171.348 15.6307C171.14 15.4299 171.036 15.1913 171.036 14.9148C171.036 14.6345 171.14 14.3958 171.348 14.1989C171.56 13.9981 171.814 13.8977 172.109 13.8977C172.405 13.8977 172.657 13.9981 172.865 14.1989C173.077 14.3958 173.183 14.6345 173.183 14.9148C173.183 15.1913 173.077 15.4299 172.865 15.6307C172.657 15.8277 172.405 15.9261 172.109 15.9261ZM176.935 20.8182V26H175.236V17.2727H176.866V18.6932H176.974C177.175 18.2311 177.49 17.8598 177.918 17.5795C178.349 17.2992 178.893 17.1591 179.548 17.1591C180.143 17.1591 180.664 17.2841 181.111 17.5341C181.558 17.7803 181.904 18.1477 182.151 18.6364C182.397 19.125 182.52 19.7292 182.52 20.4489V26H180.821V20.6534C180.821 20.0208 180.656 19.5265 180.327 19.1705C179.997 18.8106 179.545 18.6307 178.969 18.6307C178.575 18.6307 178.224 18.7159 177.918 18.8864C177.615 19.0568 177.374 19.3068 177.196 19.6364C177.022 19.9621 176.935 20.3561 176.935 20.8182ZM76.142 45V36.2727H77.7841V37.6591H77.875C78.0341 37.1894 78.3144 36.8201 78.7159 36.5511C79.1212 36.2784 79.5795 36.142 80.0909 36.142C80.197 36.142 80.322 36.1458 80.4659 36.1534C80.6136 36.161 80.7292 36.1705 80.8125 36.1818V37.8068C80.7443 37.7879 80.6231 37.767 80.4489 37.7443C80.2746 37.7178 80.1004 37.7045 79.9261 37.7045C79.5246 37.7045 79.1667 37.7898 78.8523 37.9602C78.5417 38.1269 78.2955 38.3598 78.1136 38.6591C77.9318 38.9545 77.8409 39.2917 77.8409 39.6705V45H76.142ZM85.7315 45.1761C84.8717 45.1761 84.1312 44.9924 83.5099 44.625C82.8925 44.2538 82.4152 43.733 82.0781 43.0625C81.7448 42.3883 81.5781 41.5985 81.5781 40.6932C81.5781 39.7992 81.7448 39.0114 82.0781 38.3295C82.4152 37.6477 82.8849 37.1155 83.4872 36.733C84.0933 36.3504 84.8016 36.1591 85.6122 36.1591C86.1046 36.1591 86.5819 36.2405 87.044 36.4034C87.5062 36.5663 87.9209 36.822 88.2884 37.1705C88.6558 37.5189 88.9455 37.9716 89.1577 38.5284C89.3698 39.0814 89.4759 39.7538 89.4759 40.5455V41.1477H82.5384V39.875H87.8111C87.8111 39.428 87.7202 39.0322 87.5384 38.6875C87.3565 38.339 87.1009 38.0644 86.7713 37.8636C86.4455 37.6629 86.063 37.5625 85.6236 37.5625C85.1463 37.5625 84.7296 37.6799 84.3736 37.9148C84.0213 38.1458 83.7486 38.4489 83.5554 38.8239C83.366 39.1951 83.2713 39.5985 83.2713 40.0341V41.0284C83.2713 41.6117 83.3736 42.108 83.5781 42.517C83.7865 42.9261 84.0762 43.2386 84.4474 43.4545C84.8187 43.6667 85.2524 43.7727 85.7486 43.7727C86.0705 43.7727 86.3641 43.7273 86.6293 43.6364C86.8944 43.5417 87.1236 43.4015 87.3168 43.2159C87.5099 43.0303 87.6577 42.8011 87.7599 42.5284L89.3679 42.8182C89.2391 43.2917 89.008 43.7064 88.6747 44.0625C88.3452 44.4148 87.9304 44.6894 87.4304 44.8864C86.9342 45.0795 86.3679 45.1761 85.7315 45.1761ZM97.9006 38.4034L96.3608 38.6761C96.2964 38.4792 96.1941 38.2917 96.054 38.1136C95.9176 37.9356 95.732 37.7898 95.4972 37.6761C95.2623 37.5625 94.9688 37.5057 94.6165 37.5057C94.1354 37.5057 93.7339 37.6136 93.4119 37.8295C93.09 38.0417 92.929 38.3163 92.929 38.6534C92.929 38.9451 93.0369 39.1799 93.2528 39.358C93.4688 39.536 93.8172 39.6818 94.2983 39.7955L95.6847 40.1136C96.4877 40.2992 97.0862 40.5852 97.4801 40.9716C97.8741 41.358 98.071 41.8598 98.071 42.4773C98.071 43 97.9195 43.4659 97.6165 43.875C97.3172 44.2803 96.8987 44.5985 96.3608 44.8295C95.8267 45.0606 95.2074 45.1761 94.5028 45.1761C93.5256 45.1761 92.7282 44.9678 92.1108 44.5511C91.4934 44.1307 91.1146 43.5341 90.9744 42.7614L92.6165 42.5114C92.7188 42.9394 92.929 43.2633 93.2472 43.483C93.5653 43.6989 93.9801 43.8068 94.4915 43.8068C95.0483 43.8068 95.4934 43.6913 95.8267 43.4602C96.16 43.2254 96.3267 42.9394 96.3267 42.6023C96.3267 42.3295 96.2244 42.1004 96.0199 41.9148C95.8191 41.7292 95.5104 41.589 95.0938 41.4943L93.6165 41.1705C92.8021 40.9848 92.1998 40.6894 91.8097 40.2841C91.4233 39.8788 91.2301 39.3655 91.2301 38.7443C91.2301 38.2292 91.3741 37.7784 91.6619 37.392C91.9498 37.0057 92.3475 36.7045 92.8551 36.4886C93.3627 36.2689 93.9441 36.1591 94.5994 36.1591C95.5426 36.1591 96.285 36.3636 96.8267 36.7727C97.3684 37.178 97.7263 37.7216 97.9006 38.4034ZM99.9389 45V36.2727H101.638V45H99.9389ZM100.797 34.9261C100.501 34.9261 100.248 34.8277 100.036 34.6307C99.8272 34.4299 99.723 34.1913 99.723 33.9148C99.723 33.6345 99.8272 33.3958 100.036 33.1989C100.248 32.9981 100.501 32.8977 100.797 32.8977C101.092 32.8977 101.344 32.9981 101.553 33.1989C101.765 33.3958 101.871 33.6345 101.871 33.9148C101.871 34.1913 101.765 34.4299 101.553 34.6307C101.344 34.8277 101.092 34.9261 100.797 34.9261ZM110.463 38.4034L108.923 38.6761C108.859 38.4792 108.757 38.2917 108.616 38.1136C108.48 37.9356 108.295 37.7898 108.06 37.6761C107.825 37.5625 107.531 37.5057 107.179 37.5057C106.698 37.5057 106.296 37.6136 105.974 37.8295C105.652 38.0417 105.491 38.3163 105.491 38.6534C105.491 38.9451 105.599 39.1799 105.815 39.358C106.031 39.536 106.38 39.6818 106.861 39.7955L108.247 40.1136C109.05 40.2992 109.649 40.5852 110.043 40.9716C110.437 41.358 110.634 41.8598 110.634 42.4773C110.634 43 110.482 43.4659 110.179 43.875C109.88 44.2803 109.461 44.5985 108.923 44.8295C108.389 45.0606 107.77 45.1761 107.065 45.1761C106.088 45.1761 105.291 44.9678 104.673 44.5511C104.056 44.1307 103.677 43.5341 103.537 42.7614L105.179 42.5114C105.281 42.9394 105.491 43.2633 105.81 43.483C106.128 43.6989 106.543 43.8068 107.054 43.8068C107.611 43.8068 108.056 43.6913 108.389 43.4602C108.723 43.2254 108.889 42.9394 108.889 42.6023C108.889 42.3295 108.787 42.1004 108.582 41.9148C108.382 41.7292 108.073 41.589 107.656 41.4943L106.179 41.1705C105.365 40.9848 104.762 40.6894 104.372 40.2841C103.986 39.8788 103.793 39.3655 103.793 38.7443C103.793 38.2292 103.937 37.7784 104.224 37.392C104.512 37.0057 104.91 36.7045 105.418 36.4886C105.925 36.2689 106.507 36.1591 107.162 36.1591C108.105 36.1591 108.848 36.3636 109.389 36.7727C109.931 37.178 110.289 37.7216 110.463 38.4034ZM116.575 36.2727V37.6364H111.808V36.2727H116.575ZM113.087 34.1818H114.786V42.4375C114.786 42.767 114.835 43.0152 114.933 43.1818C115.032 43.3447 115.159 43.4564 115.314 43.517C115.473 43.5739 115.645 43.6023 115.831 43.6023C115.967 43.6023 116.087 43.5928 116.189 43.5739C116.291 43.5549 116.371 43.5398 116.428 43.5284L116.734 44.9318C116.636 44.9697 116.496 45.0076 116.314 45.0455C116.132 45.0871 115.905 45.1098 115.632 45.1136C115.185 45.1212 114.768 45.0417 114.382 44.875C113.996 44.7083 113.683 44.4508 113.445 44.1023C113.206 43.7538 113.087 43.3163 113.087 42.7898V34.1818ZM120.994 45.1932C120.441 45.1932 119.941 45.0909 119.494 44.8864C119.047 44.678 118.693 44.3769 118.432 43.983C118.174 43.589 118.045 43.1061 118.045 42.5341C118.045 42.0417 118.14 41.6364 118.33 41.3182C118.519 41 118.775 40.7481 119.097 40.5625C119.419 40.3769 119.778 40.2367 120.176 40.142C120.574 40.0473 120.979 39.9754 121.392 39.9261C121.915 39.8655 122.339 39.8163 122.665 39.7784C122.991 39.7367 123.227 39.6705 123.375 39.5795C123.523 39.4886 123.597 39.3409 123.597 39.1364V39.0966C123.597 38.6004 123.456 38.2159 123.176 37.9432C122.9 37.6705 122.487 37.5341 121.938 37.5341C121.366 37.5341 120.915 37.661 120.585 37.9148C120.259 38.1648 120.034 38.4432 119.909 38.75L118.312 38.3864C118.502 37.8561 118.778 37.428 119.142 37.1023C119.509 36.7727 119.932 36.5341 120.409 36.3864C120.886 36.2348 121.388 36.1591 121.915 36.1591C122.263 36.1591 122.633 36.2008 123.023 36.2841C123.417 36.3636 123.784 36.5114 124.125 36.7273C124.47 36.9432 124.752 37.2519 124.972 37.6534C125.191 38.0511 125.301 38.5682 125.301 39.2045V45H123.642V43.8068H123.574C123.464 44.0265 123.299 44.2424 123.08 44.4545C122.86 44.6667 122.578 44.8428 122.233 44.983C121.888 45.1231 121.475 45.1932 120.994 45.1932ZM121.364 43.8295C121.833 43.8295 122.235 43.7367 122.568 43.5511C122.905 43.3655 123.161 43.1231 123.335 42.8239C123.513 42.5208 123.602 42.197 123.602 41.8523V40.7273C123.542 40.7879 123.424 40.8447 123.25 40.8977C123.08 40.947 122.884 40.9905 122.665 41.0284C122.445 41.0625 122.231 41.0947 122.023 41.125C121.814 41.1515 121.64 41.1742 121.5 41.1932C121.17 41.2348 120.869 41.3049 120.597 41.4034C120.328 41.5019 120.112 41.6439 119.949 41.8295C119.79 42.0114 119.71 42.2538 119.71 42.5568C119.71 42.9773 119.866 43.2955 120.176 43.5114C120.487 43.7235 120.883 43.8295 121.364 43.8295ZM129.263 39.8182V45H127.564V36.2727H129.195V37.6932H129.303C129.503 37.2311 129.818 36.8598 130.246 36.5795C130.678 36.2992 131.221 36.1591 131.876 36.1591C132.471 36.1591 132.992 36.2841 133.439 36.5341C133.886 36.7803 134.232 37.1477 134.479 37.6364C134.725 38.125 134.848 38.7292 134.848 39.4489V45H133.149V39.6534C133.149 39.0208 132.984 38.5265 132.655 38.1705C132.325 37.8106 131.873 37.6307 131.297 37.6307C130.903 37.6307 130.553 37.7159 130.246 37.8864C129.943 38.0568 129.702 38.3068 129.524 38.6364C129.35 38.9621 129.263 39.3561 129.263 39.8182ZM141.2 36.2727V37.6364H136.433V36.2727H141.2ZM137.712 34.1818H139.411V42.4375C139.411 42.767 139.46 43.0152 139.558 43.1818C139.657 43.3447 139.784 43.4564 139.939 43.517C140.098 43.5739 140.27 43.6023 140.456 43.6023C140.592 43.6023 140.712 43.5928 140.814 43.5739C140.916 43.5549 140.996 43.5398 141.053 43.5284L141.359 44.9318C141.261 44.9697 141.121 45.0076 140.939 45.0455C140.757 45.0871 140.53 45.1098 140.257 45.1136C139.81 45.1212 139.393 45.0417 139.007 44.875C138.621 44.7083 138.308 44.4508 138.07 44.1023C137.831 43.7538 137.712 43.3163 137.712 42.7898V34.1818ZM151.467 36.2727V37.6364H146.536V36.2727H151.467ZM147.888 45V35.2614C147.888 34.7159 148.007 34.2633 148.246 33.9034C148.484 33.5398 148.801 33.2689 149.195 33.0909C149.589 32.9091 150.017 32.8182 150.479 32.8182C150.82 32.8182 151.111 32.8466 151.354 32.9034C151.596 32.9564 151.776 33.0057 151.893 33.0511L151.496 34.4261C151.416 34.4034 151.314 34.3769 151.189 34.3466C151.064 34.3125 150.912 34.2955 150.734 34.2955C150.321 34.2955 150.026 34.3977 149.848 34.6023C149.674 34.8068 149.587 35.1023 149.587 35.4886V45H147.888ZM155.494 45.1932C154.941 45.1932 154.441 45.0909 153.994 44.8864C153.547 44.678 153.193 44.3769 152.932 43.983C152.674 43.589 152.545 43.1061 152.545 42.5341C152.545 42.0417 152.64 41.6364 152.83 41.3182C153.019 41 153.275 40.7481 153.597 40.5625C153.919 40.3769 154.278 40.2367 154.676 40.142C155.074 40.0473 155.479 39.9754 155.892 39.9261C156.415 39.8655 156.839 39.8163 157.165 39.7784C157.491 39.7367 157.727 39.6705 157.875 39.5795C158.023 39.4886 158.097 39.3409 158.097 39.1364V39.0966C158.097 38.6004 157.956 38.2159 157.676 37.9432C157.4 37.6705 156.987 37.5341 156.438 37.5341C155.866 37.5341 155.415 37.661 155.085 37.9148C154.759 38.1648 154.534 38.4432 154.409 38.75L152.812 38.3864C153.002 37.8561 153.278 37.428 153.642 37.1023C154.009 36.7727 154.432 36.5341 154.909 36.3864C155.386 36.2348 155.888 36.1591 156.415 36.1591C156.763 36.1591 157.133 36.2008 157.523 36.2841C157.917 36.3636 158.284 36.5114 158.625 36.7273C158.97 36.9432 159.252 37.2519 159.472 37.6534C159.691 38.0511 159.801 38.5682 159.801 39.2045V45H158.142V43.8068H158.074C157.964 44.0265 157.799 44.2424 157.58 44.4545C157.36 44.6667 157.078 44.8428 156.733 44.983C156.388 45.1231 155.975 45.1932 155.494 45.1932ZM155.864 43.8295C156.333 43.8295 156.735 43.7367 157.068 43.5511C157.405 43.3655 157.661 43.1231 157.835 42.8239C158.013 42.5208 158.102 42.197 158.102 41.8523V40.7273C158.042 40.7879 157.924 40.8447 157.75 40.8977C157.58 40.947 157.384 40.9905 157.165 41.0284C156.945 41.0625 156.731 41.0947 156.523 41.125C156.314 41.1515 156.14 41.1742 156 41.1932C155.67 41.2348 155.369 41.3049 155.097 41.4034C154.828 41.5019 154.612 41.6439 154.449 41.8295C154.29 42.0114 154.21 42.2538 154.21 42.5568C154.21 42.9773 154.366 43.2955 154.676 43.5114C154.987 43.7235 155.383 43.8295 155.864 43.8295ZM162.2 45V33.3636H163.899V37.6875H164.001C164.1 37.5057 164.242 37.2955 164.428 37.0568C164.613 36.8182 164.871 36.6098 165.2 36.4318C165.53 36.25 165.965 36.1591 166.507 36.1591C167.212 36.1591 167.84 36.3371 168.393 36.6932C168.946 37.0492 169.38 37.5625 169.695 38.233C170.013 38.9034 170.172 39.7102 170.172 40.6534C170.172 41.5966 170.015 42.4053 169.7 43.0795C169.386 43.75 168.954 44.267 168.405 44.6307C167.856 44.9905 167.229 45.1705 166.524 45.1705C165.994 45.1705 165.56 45.0814 165.223 44.9034C164.89 44.7254 164.628 44.517 164.439 44.2784C164.25 44.0398 164.104 43.8277 164.001 43.642H163.859V45H162.2ZM163.865 40.6364C163.865 41.25 163.954 41.7879 164.132 42.25C164.31 42.7121 164.568 43.0739 164.905 43.3352C165.242 43.5928 165.655 43.7216 166.143 43.7216C166.651 43.7216 167.075 43.5871 167.416 43.3182C167.757 43.0455 168.015 42.6761 168.189 42.2102C168.367 41.7443 168.456 41.2197 168.456 40.6364C168.456 40.0606 168.369 39.5436 168.195 39.0852C168.024 38.6269 167.767 38.2652 167.422 38C167.081 37.7348 166.655 37.6023 166.143 37.6023C165.651 37.6023 165.234 37.7292 164.893 37.983C164.556 38.2367 164.301 38.5909 164.126 39.0455C163.952 39.5 163.865 40.0303 163.865 40.6364ZM172.08 45V36.2727H173.722V37.6591H173.812C173.972 37.1894 174.252 36.8201 174.653 36.5511C175.059 36.2784 175.517 36.142 176.028 36.142C176.134 36.142 176.259 36.1458 176.403 36.1534C176.551 36.161 176.667 36.1705 176.75 36.1818V37.8068C176.682 37.7879 176.561 37.767 176.386 37.7443C176.212 37.7178 176.038 37.7045 175.864 37.7045C175.462 37.7045 175.104 37.7898 174.79 37.9602C174.479 38.1269 174.233 38.3598 174.051 38.6591C173.869 38.9545 173.778 39.2917 173.778 39.6705V45H172.08ZM178.22 45V36.2727H179.919V45H178.22ZM179.078 34.9261C178.783 34.9261 178.529 34.8277 178.317 34.6307C178.108 34.4299 178.004 34.1913 178.004 33.9148C178.004 33.6345 178.108 33.3958 178.317 33.1989C178.529 32.9981 178.783 32.8977 179.078 32.8977C179.374 32.8977 179.625 32.9981 179.834 33.1989C180.046 33.3958 180.152 33.6345 180.152 33.9148C180.152 34.1913 180.046 34.4299 179.834 34.6307C179.625 34.8277 179.374 34.9261 179.078 34.9261ZM185.881 45.1761C185.036 45.1761 184.309 44.9848 183.699 44.6023C183.093 44.2159 182.627 43.6837 182.301 43.0057C181.975 42.3277 181.812 41.5511 181.812 40.6761C181.812 39.7898 181.979 39.0076 182.312 38.3295C182.646 37.6477 183.116 37.1155 183.722 36.733C184.328 36.3504 185.042 36.1591 185.864 36.1591C186.527 36.1591 187.117 36.2822 187.636 36.5284C188.155 36.7708 188.574 37.1117 188.892 37.5511C189.214 37.9905 189.405 38.5038 189.466 39.0909H187.812C187.722 38.6818 187.513 38.3295 187.188 38.0341C186.866 37.7386 186.434 37.5909 185.892 37.5909C185.419 37.5909 185.004 37.7159 184.648 37.9659C184.295 38.2121 184.021 38.5644 183.824 39.0227C183.627 39.4773 183.528 40.0152 183.528 40.6364C183.528 41.2727 183.625 41.822 183.818 42.2841C184.011 42.7462 184.284 43.1042 184.636 43.358C184.992 43.6117 185.411 43.7386 185.892 43.7386C186.214 43.7386 186.506 43.6799 186.767 43.5625C187.032 43.4413 187.254 43.2689 187.432 43.0455C187.614 42.822 187.741 42.553 187.812 42.2386H189.466C189.405 42.803 189.222 43.3068 188.915 43.75C188.608 44.1932 188.197 44.5417 187.682 44.7955C187.17 45.0492 186.57 45.1761 185.881 45.1761ZM197.822 38.4034L196.283 38.6761C196.218 38.4792 196.116 38.2917 195.976 38.1136C195.839 37.9356 195.654 37.7898 195.419 37.6761C195.184 37.5625 194.891 37.5057 194.538 37.5057C194.057 37.5057 193.656 37.6136 193.334 37.8295C193.012 38.0417 192.851 38.3163 192.851 38.6534C192.851 38.9451 192.959 39.1799 193.175 39.358C193.391 39.536 193.739 39.6818 194.22 39.7955L195.607 40.1136C196.41 40.2992 197.008 40.5852 197.402 40.9716C197.796 41.358 197.993 41.8598 197.993 42.4773C197.993 43 197.841 43.4659 197.538 43.875C197.239 44.2803 196.821 44.5985 196.283 44.8295C195.749 45.0606 195.129 45.1761 194.425 45.1761C193.447 45.1761 192.65 44.9678 192.033 44.5511C191.415 44.1307 191.036 43.5341 190.896 42.7614L192.538 42.5114C192.641 42.9394 192.851 43.2633 193.169 43.483C193.487 43.6989 193.902 43.8068 194.413 43.8068C194.97 43.8068 195.415 43.6913 195.749 43.4602C196.082 43.2254 196.249 42.9394 196.249 42.6023C196.249 42.3295 196.146 42.1004 195.942 41.9148C195.741 41.7292 195.432 41.589 195.016 41.4943L193.538 41.1705C192.724 40.9848 192.122 40.6894 191.732 40.2841C191.345 39.8788 191.152 39.3655 191.152 38.7443C191.152 38.2292 191.296 37.7784 191.584 37.392C191.872 37.0057 192.269 36.7045 192.777 36.4886C193.285 36.2689 193.866 36.1591 194.521 36.1591C195.464 36.1591 196.207 36.3636 196.749 36.7727C197.29 37.178 197.648 37.7216 197.822 38.4034Z" fill="#111111"/>
<defs>
<filter id="filter0_di_396_15" x="0" y="0" width="62" height="62" filterUnits="userSpaceOnUse" color-interpolation-filters="sRGB">
<feFlood flood-opacity="0" result="BackgroundImageFix"/>
<feColorMatrix in="SourceAlpha" type="matrix" values="0 0 0 0 0 0 0 0 0 0 0 0 0 0 0 0 0 0 127 0" result="hardAlpha"/>
<feOffset dy="1"/>
<feGaussianBlur stdDeviation="1.5"/>
<feComposite in2="hardAlpha" operator="out"/>
<feColorMatrix type="matrix" values="0 0 0 0 0.184314 0 0 0 0 0.168627 0 0 0 0 0.262745 0 0 0 0.1 0"/>
<feBlend mode="normal" in2="BackgroundImageFix" result="effect1_dropShadow_396_15"/>
<feBlend mode="normal" in="SourceGraphic" in2="effect1_dropShadow_396_15" result="shape"/>
<feColorMatrix in="SourceAlpha" type="matrix" values="0 0 0 0 0 0 0 0 0 0 0 0 0 0 0 0 0 0 127 0" result="hardAlpha"/>
<feOffset dy="-1"/>
<feComposite in2="hardAlpha" operator="arithmetic" k2="-1" k3="1"/>
<feColorMatrix type="matrix" values="0 0 0 0 0.184314 0 0 0 0 0.168627 0 0 0 0 0.262745 0 0 0 0.1 0"/>
<feBlend mode="normal" in2="shape" result="effect2_innerShadow_396_15"/>
</filter>
<clipPath id="clip0_396_15">
<rect width="24" height="24" fill="white" transform="translate(19 18)"/>
</clipPath>
</defs>
</svg>
