<svg width="1219" height="121" viewBox="0 0 1219 121" fill="none" xmlns="http://www.w3.org/2000/svg">
<line opacity="0.1" x1="3" y1="0.5" x2="1219" y2="0.5" stroke="black"/>
<g filter="url(#filter0_di_706_12)">
<rect x="3" y="33" width="56" height="56" rx="8" fill="white"/>
<rect x="3.5" y="33.5" width="55" height="55" rx="7.5" stroke="#2F2B43" stroke-opacity="0.1"/>
<g clip-path="url(#clip0_706_12)">
<path d="M36.9314 60.9949C36.9314 57.7909 31 49.8572 31 49.8572C31 49.8572 25.0686 57.7909 25.0686 60.9949C25.0683 61.7738 25.2216 62.5451 25.5197 63.2648C25.8177 63.9844 26.2546 64.6382 26.8054 65.1889C27.3563 65.7396 28.0103 66.1764 28.73 66.4742C29.4497 66.772 30.2211 66.9251 31 66.9246C32.5728 66.9246 34.0812 66.2999 35.1935 65.1879C36.3059 64.0759 36.931 62.5677 36.9314 60.9949Z" stroke="black" stroke-width="2" stroke-linecap="round" stroke-linejoin="round"/>
<path d="M19.8571 66.9932C21.1787 68.6666 22.8768 70.0042 24.8131 70.8973C26.7494 71.7904 28.8692 72.2136 31 72.1326C33.1308 72.2134 35.2505 71.79 37.1868 70.8969C39.123 70.0039 40.8211 68.6664 42.1429 66.9932" stroke="black" stroke-width="2" stroke-linecap="round" stroke-linejoin="round"/>
</g>
</g>
<path d="M76.2784 57V45.3636H80.4261C81.3314 45.3636 82.0814 45.5284 82.6761 45.858C83.2708 46.1875 83.7159 46.6383 84.0114 47.2102C84.3068 47.7784 84.4545 48.4186 84.4545 49.1307C84.4545 49.8466 84.3049 50.4905 84.0057 51.0625C83.7102 51.6307 83.2633 52.0814 82.6648 52.4148C82.0701 52.7443 81.322 52.9091 80.4205 52.9091H77.5682V51.4205H80.2614C80.8333 51.4205 81.2973 51.322 81.6534 51.125C82.0095 50.9242 82.2708 50.6515 82.4375 50.3068C82.6042 49.9621 82.6875 49.5701 82.6875 49.1307C82.6875 48.6913 82.6042 48.3011 82.4375 47.9602C82.2708 47.6193 82.0076 47.3523 81.6477 47.1591C81.2917 46.9659 80.822 46.8693 80.2386 46.8693H78.0341V57H76.2784ZM86.3764 57V48.2727H88.0185V49.6591H88.1094C88.2685 49.1894 88.5488 48.8201 88.9503 48.5511C89.3556 48.2784 89.8139 48.142 90.3253 48.142C90.4313 48.142 90.5563 48.1458 90.7003 48.1534C90.848 48.161 90.9635 48.1705 91.0469 48.1818V49.8068C90.9787 49.7879 90.8575 49.767 90.6832 49.7443C90.509 49.7178 90.3348 49.7045 90.1605 49.7045C89.759 49.7045 89.401 49.7898 89.0866 49.9602C88.776 50.1269 88.5298 50.3598 88.348 50.6591C88.1662 50.9545 88.0753 51.2917 88.0753 51.6705V57H86.3764ZM95.9659 57.1761C95.1061 57.1761 94.3655 56.9924 93.7443 56.625C93.1269 56.2538 92.6496 55.733 92.3125 55.0625C91.9792 54.3883 91.8125 53.5985 91.8125 52.6932C91.8125 51.7992 91.9792 51.0114 92.3125 50.3295C92.6496 49.6477 93.1193 49.1155 93.7216 48.733C94.3277 48.3504 95.036 48.1591 95.8466 48.1591C96.339 48.1591 96.8163 48.2405 97.2784 48.4034C97.7405 48.5663 98.1553 48.822 98.5227 49.1705C98.8902 49.5189 99.1799 49.9716 99.392 50.5284C99.6042 51.0814 99.7102 51.7538 99.7102 52.5455V53.1477H92.7727V51.875H98.0455C98.0455 51.428 97.9545 51.0322 97.7727 50.6875C97.5909 50.339 97.3352 50.0644 97.0057 49.8636C96.6799 49.6629 96.2973 49.5625 95.858 49.5625C95.3807 49.5625 94.964 49.6799 94.608 49.9148C94.2557 50.1458 93.983 50.4489 93.7898 50.8239C93.6004 51.1951 93.5057 51.5985 93.5057 52.0341V53.0284C93.5057 53.6117 93.608 54.108 93.8125 54.517C94.0208 54.9261 94.3106 55.2386 94.6818 55.4545C95.053 55.6667 95.4867 55.7727 95.983 55.7727C96.3049 55.7727 96.5985 55.7273 96.8636 55.6364C97.1288 55.5417 97.358 55.4015 97.5511 55.2159C97.7443 55.0303 97.892 54.8011 97.9943 54.5284L99.6023 54.8182C99.4735 55.2917 99.2424 55.7064 98.9091 56.0625C98.5795 56.4148 98.1648 56.6894 97.6648 56.8864C97.1686 57.0795 96.6023 57.1761 95.9659 57.1761ZM101.595 57V48.2727H103.226V49.6932H103.334C103.516 49.2121 103.813 48.8371 104.226 48.5682C104.639 48.2955 105.133 48.1591 105.709 48.1591C106.292 48.1591 106.781 48.2955 107.175 48.5682C107.572 48.8409 107.866 49.2159 108.055 49.6932H108.146C108.355 49.2273 108.686 48.8561 109.141 48.5795C109.595 48.2992 110.137 48.1591 110.766 48.1591C111.557 48.1591 112.203 48.4072 112.703 48.9034C113.207 49.3996 113.459 50.1477 113.459 51.1477V57H111.76V51.3068C111.76 50.7159 111.599 50.2879 111.277 50.0227C110.955 49.7576 110.571 49.625 110.124 49.625C109.571 49.625 109.141 49.7955 108.834 50.1364C108.527 50.4735 108.374 50.9072 108.374 51.4375V57H106.68V51.1989C106.68 50.7254 106.533 50.3447 106.237 50.0568C105.942 49.7689 105.557 49.625 105.084 49.625C104.762 49.625 104.464 49.7102 104.192 49.8807C103.923 50.0473 103.705 50.2803 103.538 50.5795C103.375 50.8788 103.294 51.2254 103.294 51.6193V57H101.595ZM115.736 57V48.2727H117.435V57H115.736ZM116.594 46.9261C116.298 46.9261 116.045 46.8277 115.832 46.6307C115.624 46.4299 115.52 46.1913 115.52 45.9148C115.52 45.6345 115.624 45.3958 115.832 45.1989C116.045 44.9981 116.298 44.8977 116.594 44.8977C116.889 44.8977 117.141 44.9981 117.349 45.1989C117.562 45.3958 117.668 45.6345 117.668 45.9148C117.668 46.1913 117.562 46.4299 117.349 46.6307C117.141 46.8277 116.889 46.9261 116.594 46.9261ZM125.249 53.3807V48.2727H126.953V57H125.283V55.4886H125.192C124.991 55.9545 124.669 56.3428 124.226 56.6534C123.786 56.9602 123.239 57.1136 122.584 57.1136C122.023 57.1136 121.527 56.9905 121.095 56.7443C120.667 56.4943 120.33 56.125 120.084 55.6364C119.841 55.1477 119.72 54.5436 119.72 53.8239V48.2727H121.419V53.6193C121.419 54.214 121.584 54.6875 121.913 55.0398C122.243 55.392 122.671 55.5682 123.197 55.5682C123.516 55.5682 123.832 55.4886 124.146 55.3295C124.464 55.1705 124.728 54.9299 124.936 54.608C125.148 54.286 125.252 53.8769 125.249 53.3807ZM129.236 57V48.2727H130.866V49.6932H130.974C131.156 49.2121 131.454 48.8371 131.866 48.5682C132.279 48.2955 132.774 48.1591 133.349 48.1591C133.933 48.1591 134.421 48.2955 134.815 48.5682C135.213 48.8409 135.507 49.2159 135.696 49.6932H135.787C135.995 49.2273 136.327 48.8561 136.781 48.5795C137.236 48.2992 137.777 48.1591 138.406 48.1591C139.198 48.1591 139.844 48.4072 140.344 48.9034C140.848 49.3996 141.099 50.1477 141.099 51.1477V57H139.401V51.3068C139.401 50.7159 139.24 50.2879 138.918 50.0227C138.596 49.7576 138.211 49.625 137.764 49.625C137.211 49.625 136.781 49.7955 136.474 50.1364C136.168 50.4735 136.014 50.9072 136.014 51.4375V57H134.321V51.1989C134.321 50.7254 134.173 50.3447 133.878 50.0568C133.582 49.7689 133.198 49.625 132.724 49.625C132.402 49.625 132.105 49.7102 131.832 49.8807C131.563 50.0473 131.346 50.2803 131.179 50.5795C131.016 50.8788 130.935 51.2254 130.935 51.6193V57H129.236ZM154.151 50.4034L152.611 50.6761C152.546 50.4792 152.444 50.2917 152.304 50.1136C152.168 49.9356 151.982 49.7898 151.747 49.6761C151.512 49.5625 151.219 49.5057 150.866 49.5057C150.385 49.5057 149.984 49.6136 149.662 49.8295C149.34 50.0417 149.179 50.3163 149.179 50.6534C149.179 50.9451 149.287 51.1799 149.503 51.358C149.719 51.536 150.067 51.6818 150.548 51.7955L151.935 52.1136C152.738 52.2992 153.336 52.5852 153.73 52.9716C154.124 53.358 154.321 53.8598 154.321 54.4773C154.321 55 154.17 55.4659 153.866 55.875C153.567 56.2803 153.149 56.5985 152.611 56.8295C152.077 57.0606 151.457 57.1761 150.753 57.1761C149.776 57.1761 148.978 56.9678 148.361 56.5511C147.743 56.1307 147.365 55.5341 147.224 54.7614L148.866 54.5114C148.969 54.9394 149.179 55.2633 149.497 55.483C149.815 55.6989 150.23 55.8068 150.741 55.8068C151.298 55.8068 151.743 55.6913 152.077 55.4602C152.41 55.2254 152.577 54.9394 152.577 54.6023C152.577 54.3295 152.474 54.1004 152.27 53.9148C152.069 53.7292 151.76 53.589 151.344 53.4943L149.866 53.1705C149.052 52.9848 148.45 52.6894 148.06 52.2841C147.673 51.8788 147.48 51.3655 147.48 50.7443C147.48 50.2292 147.624 49.7784 147.912 49.392C148.2 49.0057 148.598 48.7045 149.105 48.4886C149.613 48.2689 150.194 48.1591 150.849 48.1591C151.793 48.1591 152.535 48.3636 153.077 48.7727C153.618 49.178 153.976 49.7216 154.151 50.4034ZM160.263 48.2727V49.6364H155.496V48.2727H160.263ZM156.774 46.1818H158.473V54.4375C158.473 54.767 158.522 55.0152 158.621 55.1818C158.719 55.3447 158.846 55.4564 159.001 55.517C159.161 55.5739 159.333 55.6023 159.518 55.6023C159.655 55.6023 159.774 55.5928 159.876 55.5739C159.979 55.5549 160.058 55.5398 160.115 55.5284L160.422 56.9318C160.323 56.9697 160.183 57.0076 160.001 57.0455C159.82 57.0871 159.592 57.1098 159.32 57.1136C158.873 57.1212 158.456 57.0417 158.07 56.875C157.683 56.7083 157.371 56.4508 157.132 56.1023C156.893 55.7538 156.774 55.3163 156.774 54.7898V46.1818ZM164.682 57.1932C164.129 57.1932 163.629 57.0909 163.182 56.8864C162.735 56.678 162.381 56.3769 162.119 55.983C161.862 55.589 161.733 55.1061 161.733 54.5341C161.733 54.0417 161.828 53.6364 162.017 53.3182C162.206 53 162.462 52.7481 162.784 52.5625C163.106 52.3769 163.466 52.2367 163.864 52.142C164.261 52.0473 164.667 51.9754 165.08 51.9261C165.602 51.8655 166.027 51.8163 166.352 51.7784C166.678 51.7367 166.915 51.6705 167.062 51.5795C167.21 51.4886 167.284 51.3409 167.284 51.1364V51.0966C167.284 50.6004 167.144 50.2159 166.864 49.9432C166.587 49.6705 166.174 49.5341 165.625 49.5341C165.053 49.5341 164.602 49.661 164.273 49.9148C163.947 50.1648 163.722 50.4432 163.597 50.75L162 50.3864C162.189 49.8561 162.466 49.428 162.83 49.1023C163.197 48.7727 163.619 48.5341 164.097 48.3864C164.574 48.2348 165.076 48.1591 165.602 48.1591C165.951 48.1591 166.32 48.2008 166.71 48.2841C167.104 48.3636 167.472 48.5114 167.812 48.7273C168.157 48.9432 168.439 49.2519 168.659 49.6534C168.879 50.0511 168.989 50.5682 168.989 51.2045V57H167.33V55.8068H167.261C167.152 56.0265 166.987 56.2424 166.767 56.4545C166.547 56.6667 166.265 56.8428 165.92 56.983C165.576 57.1231 165.163 57.1932 164.682 57.1932ZM165.051 55.8295C165.521 55.8295 165.922 55.7367 166.256 55.5511C166.593 55.3655 166.848 55.1231 167.023 54.8239C167.201 54.5208 167.29 54.197 167.29 53.8523V52.7273C167.229 52.7879 167.112 52.8447 166.938 52.8977C166.767 52.947 166.572 52.9905 166.352 53.0284C166.133 53.0625 165.919 53.0947 165.71 53.125C165.502 53.1515 165.328 53.1742 165.188 53.1932C164.858 53.2348 164.557 53.3049 164.284 53.4034C164.015 53.5019 163.799 53.6439 163.636 53.8295C163.477 54.0114 163.398 54.2538 163.398 54.5568C163.398 54.9773 163.553 55.2955 163.864 55.5114C164.174 55.7235 164.57 55.8295 165.051 55.8295ZM171.251 57V48.2727H172.95V57H171.251ZM172.109 46.9261C171.814 46.9261 171.56 46.8277 171.348 46.6307C171.14 46.4299 171.036 46.1913 171.036 45.9148C171.036 45.6345 171.14 45.3958 171.348 45.1989C171.56 44.9981 171.814 44.8977 172.109 44.8977C172.405 44.8977 172.657 44.9981 172.865 45.1989C173.077 45.3958 173.183 45.6345 173.183 45.9148C173.183 46.1913 173.077 46.4299 172.865 46.6307C172.657 46.8277 172.405 46.9261 172.109 46.9261ZM176.935 51.8182V57H175.236V48.2727H176.866V49.6932H176.974C177.175 49.2311 177.49 48.8598 177.918 48.5795C178.349 48.2992 178.893 48.1591 179.548 48.1591C180.143 48.1591 180.664 48.2841 181.111 48.5341C181.558 48.7803 181.904 49.1477 182.151 49.6364C182.397 50.125 182.52 50.7292 182.52 51.4489V57H180.821V51.6534C180.821 51.0208 180.656 50.5265 180.327 50.1705C179.997 49.8106 179.545 49.6307 178.969 49.6307C178.575 49.6307 178.224 49.7159 177.918 49.8864C177.615 50.0568 177.374 50.3068 177.196 50.6364C177.022 50.9621 176.935 51.3561 176.935 51.8182ZM76.142 76V67.2727H77.7841V68.6591H77.875C78.0341 68.1894 78.3144 67.8201 78.7159 67.5511C79.1212 67.2784 79.5795 67.142 80.0909 67.142C80.197 67.142 80.322 67.1458 80.4659 67.1534C80.6136 67.161 80.7292 67.1705 80.8125 67.1818V68.8068C80.7443 68.7879 80.6231 68.767 80.4489 68.7443C80.2746 68.7178 80.1004 68.7045 79.9261 68.7045C79.5246 68.7045 79.1667 68.7898 78.8523 68.9602C78.5417 69.1269 78.2955 69.3598 78.1136 69.6591C77.9318 69.9545 77.8409 70.2917 77.8409 70.6705V76H76.142ZM85.7315 76.1761C84.8717 76.1761 84.1312 75.9924 83.5099 75.625C82.8925 75.2538 82.4152 74.733 82.0781 74.0625C81.7448 73.3883 81.5781 72.5985 81.5781 71.6932C81.5781 70.7992 81.7448 70.0114 82.0781 69.3295C82.4152 68.6477 82.8849 68.1155 83.4872 67.733C84.0933 67.3504 84.8016 67.1591 85.6122 67.1591C86.1046 67.1591 86.5819 67.2405 87.044 67.4034C87.5062 67.5663 87.9209 67.822 88.2884 68.1705C88.6558 68.5189 88.9455 68.9716 89.1577 69.5284C89.3698 70.0814 89.4759 70.7538 89.4759 71.5455V72.1477H82.5384V70.875H87.8111C87.8111 70.428 87.7202 70.0322 87.5384 69.6875C87.3565 69.339 87.1009 69.0644 86.7713 68.8636C86.4455 68.6629 86.063 68.5625 85.6236 68.5625C85.1463 68.5625 84.7296 68.6799 84.3736 68.9148C84.0213 69.1458 83.7486 69.4489 83.5554 69.8239C83.366 70.1951 83.2713 70.5985 83.2713 71.0341V72.0284C83.2713 72.6117 83.3736 73.108 83.5781 73.517C83.7865 73.9261 84.0762 74.2386 84.4474 74.4545C84.8187 74.6667 85.2524 74.7727 85.7486 74.7727C86.0705 74.7727 86.3641 74.7273 86.6293 74.6364C86.8944 74.5417 87.1236 74.4015 87.3168 74.2159C87.5099 74.0303 87.6577 73.8011 87.7599 73.5284L89.3679 73.8182C89.2391 74.2917 89.008 74.7064 88.6747 75.0625C88.3452 75.4148 87.9304 75.6894 87.4304 75.8864C86.9342 76.0795 86.3679 76.1761 85.7315 76.1761ZM97.9006 69.4034L96.3608 69.6761C96.2964 69.4792 96.1941 69.2917 96.054 69.1136C95.9176 68.9356 95.732 68.7898 95.4972 68.6761C95.2623 68.5625 94.9688 68.5057 94.6165 68.5057C94.1354 68.5057 93.7339 68.6136 93.4119 68.8295C93.09 69.0417 92.929 69.3163 92.929 69.6534C92.929 69.9451 93.0369 70.1799 93.2528 70.358C93.4688 70.536 93.8172 70.6818 94.2983 70.7955L95.6847 71.1136C96.4877 71.2992 97.0862 71.5852 97.4801 71.9716C97.8741 72.358 98.071 72.8598 98.071 73.4773C98.071 74 97.9195 74.4659 97.6165 74.875C97.3172 75.2803 96.8987 75.5985 96.3608 75.8295C95.8267 76.0606 95.2074 76.1761 94.5028 76.1761C93.5256 76.1761 92.7282 75.9678 92.1108 75.5511C91.4934 75.1307 91.1146 74.5341 90.9744 73.7614L92.6165 73.5114C92.7188 73.9394 92.929 74.2633 93.2472 74.483C93.5653 74.6989 93.9801 74.8068 94.4915 74.8068C95.0483 74.8068 95.4934 74.6913 95.8267 74.4602C96.16 74.2254 96.3267 73.9394 96.3267 73.6023C96.3267 73.3295 96.2244 73.1004 96.0199 72.9148C95.8191 72.7292 95.5104 72.589 95.0938 72.4943L93.6165 72.1705C92.8021 71.9848 92.1998 71.6894 91.8097 71.2841C91.4233 70.8788 91.2301 70.3655 91.2301 69.7443C91.2301 69.2292 91.3741 68.7784 91.6619 68.392C91.9498 68.0057 92.3475 67.7045 92.8551 67.4886C93.3627 67.2689 93.9441 67.1591 94.5994 67.1591C95.5426 67.1591 96.285 67.3636 96.8267 67.7727C97.3684 68.178 97.7263 68.7216 97.9006 69.4034ZM99.9389 76V67.2727H101.638V76H99.9389ZM100.797 65.9261C100.501 65.9261 100.248 65.8277 100.036 65.6307C99.8272 65.4299 99.723 65.1913 99.723 64.9148C99.723 64.6345 99.8272 64.3958 100.036 64.1989C100.248 63.9981 100.501 63.8977 100.797 63.8977C101.092 63.8977 101.344 63.9981 101.553 64.1989C101.765 64.3958 101.871 64.6345 101.871 64.9148C101.871 65.1913 101.765 65.4299 101.553 65.6307C101.344 65.8277 101.092 65.9261 100.797 65.9261ZM110.463 69.4034L108.923 69.6761C108.859 69.4792 108.757 69.2917 108.616 69.1136C108.48 68.9356 108.295 68.7898 108.06 68.6761C107.825 68.5625 107.531 68.5057 107.179 68.5057C106.698 68.5057 106.296 68.6136 105.974 68.8295C105.652 69.0417 105.491 69.3163 105.491 69.6534C105.491 69.9451 105.599 70.1799 105.815 70.358C106.031 70.536 106.38 70.6818 106.861 70.7955L108.247 71.1136C109.05 71.2992 109.649 71.5852 110.043 71.9716C110.437 72.358 110.634 72.8598 110.634 73.4773C110.634 74 110.482 74.4659 110.179 74.875C109.88 75.2803 109.461 75.5985 108.923 75.8295C108.389 76.0606 107.77 76.1761 107.065 76.1761C106.088 76.1761 105.291 75.9678 104.673 75.5511C104.056 75.1307 103.677 74.5341 103.537 73.7614L105.179 73.5114C105.281 73.9394 105.491 74.2633 105.81 74.483C106.128 74.6989 106.543 74.8068 107.054 74.8068C107.611 74.8068 108.056 74.6913 108.389 74.4602C108.723 74.2254 108.889 73.9394 108.889 73.6023C108.889 73.3295 108.787 73.1004 108.582 72.9148C108.382 72.7292 108.073 72.589 107.656 72.4943L106.179 72.1705C105.365 71.9848 104.762 71.6894 104.372 71.2841C103.986 70.8788 103.793 70.3655 103.793 69.7443C103.793 69.2292 103.937 68.7784 104.224 68.392C104.512 68.0057 104.91 67.7045 105.418 67.4886C105.925 67.2689 106.507 67.1591 107.162 67.1591C108.105 67.1591 108.848 67.3636 109.389 67.7727C109.931 68.178 110.289 68.7216 110.463 69.4034ZM116.575 67.2727V68.6364H111.808V67.2727H116.575ZM113.087 65.1818H114.786V73.4375C114.786 73.767 114.835 74.0152 114.933 74.1818C115.032 74.3447 115.159 74.4564 115.314 74.517C115.473 74.5739 115.645 74.6023 115.831 74.6023C115.967 74.6023 116.087 74.5928 116.189 74.5739C116.291 74.5549 116.371 74.5398 116.428 74.5284L116.734 75.9318C116.636 75.9697 116.496 76.0076 116.314 76.0455C116.132 76.0871 115.905 76.1098 115.632 76.1136C115.185 76.1212 114.768 76.0417 114.382 75.875C113.996 75.7083 113.683 75.4508 113.445 75.1023C113.206 74.7538 113.087 74.3163 113.087 73.7898V65.1818ZM120.994 76.1932C120.441 76.1932 119.941 76.0909 119.494 75.8864C119.047 75.678 118.693 75.3769 118.432 74.983C118.174 74.589 118.045 74.1061 118.045 73.5341C118.045 73.0417 118.14 72.6364 118.33 72.3182C118.519 72 118.775 71.7481 119.097 71.5625C119.419 71.3769 119.778 71.2367 120.176 71.142C120.574 71.0473 120.979 70.9754 121.392 70.9261C121.915 70.8655 122.339 70.8163 122.665 70.7784C122.991 70.7367 123.227 70.6705 123.375 70.5795C123.523 70.4886 123.597 70.3409 123.597 70.1364V70.0966C123.597 69.6004 123.456 69.2159 123.176 68.9432C122.9 68.6705 122.487 68.5341 121.938 68.5341C121.366 68.5341 120.915 68.661 120.585 68.9148C120.259 69.1648 120.034 69.4432 119.909 69.75L118.312 69.3864C118.502 68.8561 118.778 68.428 119.142 68.1023C119.509 67.7727 119.932 67.5341 120.409 67.3864C120.886 67.2348 121.388 67.1591 121.915 67.1591C122.263 67.1591 122.633 67.2008 123.023 67.2841C123.417 67.3636 123.784 67.5114 124.125 67.7273C124.47 67.9432 124.752 68.2519 124.972 68.6534C125.191 69.0511 125.301 69.5682 125.301 70.2045V76H123.642V74.8068H123.574C123.464 75.0265 123.299 75.2424 123.08 75.4545C122.86 75.6667 122.578 75.8428 122.233 75.983C121.888 76.1231 121.475 76.1932 120.994 76.1932ZM121.364 74.8295C121.833 74.8295 122.235 74.7367 122.568 74.5511C122.905 74.3655 123.161 74.1231 123.335 73.8239C123.513 73.5208 123.602 73.197 123.602 72.8523V71.7273C123.542 71.7879 123.424 71.8447 123.25 71.8977C123.08 71.947 122.884 71.9905 122.665 72.0284C122.445 72.0625 122.231 72.0947 122.023 72.125C121.814 72.1515 121.64 72.1742 121.5 72.1932C121.17 72.2348 120.869 72.3049 120.597 72.4034C120.328 72.5019 120.112 72.6439 119.949 72.8295C119.79 73.0114 119.71 73.2538 119.71 73.5568C119.71 73.9773 119.866 74.2955 120.176 74.5114C120.487 74.7235 120.883 74.8295 121.364 74.8295ZM129.263 70.8182V76H127.564V67.2727H129.195V68.6932H129.303C129.503 68.2311 129.818 67.8598 130.246 67.5795C130.678 67.2992 131.221 67.1591 131.876 67.1591C132.471 67.1591 132.992 67.2841 133.439 67.5341C133.886 67.7803 134.232 68.1477 134.479 68.6364C134.725 69.125 134.848 69.7292 134.848 70.4489V76H133.149V70.6534C133.149 70.0208 132.984 69.5265 132.655 69.1705C132.325 68.8106 131.873 68.6307 131.297 68.6307C130.903 68.6307 130.553 68.7159 130.246 68.8864C129.943 69.0568 129.702 69.3068 129.524 69.6364C129.35 69.9621 129.263 70.3561 129.263 70.8182ZM141.2 67.2727V68.6364H136.433V67.2727H141.2ZM137.712 65.1818H139.411V73.4375C139.411 73.767 139.46 74.0152 139.558 74.1818C139.657 74.3447 139.784 74.4564 139.939 74.517C140.098 74.5739 140.27 74.6023 140.456 74.6023C140.592 74.6023 140.712 74.5928 140.814 74.5739C140.916 74.5549 140.996 74.5398 141.053 74.5284L141.359 75.9318C141.261 75.9697 141.121 76.0076 140.939 76.0455C140.757 76.0871 140.53 76.1098 140.257 76.1136C139.81 76.1212 139.393 76.0417 139.007 75.875C138.621 75.7083 138.308 75.4508 138.07 75.1023C137.831 74.7538 137.712 74.3163 137.712 73.7898V65.1818ZM151.467 67.2727V68.6364H146.536V67.2727H151.467ZM147.888 76V66.2614C147.888 65.7159 148.007 65.2633 148.246 64.9034C148.484 64.5398 148.801 64.2689 149.195 64.0909C149.589 63.9091 150.017 63.8182 150.479 63.8182C150.82 63.8182 151.111 63.8466 151.354 63.9034C151.596 63.9564 151.776 64.0057 151.893 64.0511L151.496 65.4261C151.416 65.4034 151.314 65.3769 151.189 65.3466C151.064 65.3125 150.912 65.2955 150.734 65.2955C150.321 65.2955 150.026 65.3977 149.848 65.6023C149.674 65.8068 149.587 66.1023 149.587 66.4886V76H147.888ZM155.494 76.1932C154.941 76.1932 154.441 76.0909 153.994 75.8864C153.547 75.678 153.193 75.3769 152.932 74.983C152.674 74.589 152.545 74.1061 152.545 73.5341C152.545 73.0417 152.64 72.6364 152.83 72.3182C153.019 72 153.275 71.7481 153.597 71.5625C153.919 71.3769 154.278 71.2367 154.676 71.142C155.074 71.0473 155.479 70.9754 155.892 70.9261C156.415 70.8655 156.839 70.8163 157.165 70.7784C157.491 70.7367 157.727 70.6705 157.875 70.5795C158.023 70.4886 158.097 70.3409 158.097 70.1364V70.0966C158.097 69.6004 157.956 69.2159 157.676 68.9432C157.4 68.6705 156.987 68.5341 156.438 68.5341C155.866 68.5341 155.415 68.661 155.085 68.9148C154.759 69.1648 154.534 69.4432 154.409 69.75L152.812 69.3864C153.002 68.8561 153.278 68.428 153.642 68.1023C154.009 67.7727 154.432 67.5341 154.909 67.3864C155.386 67.2348 155.888 67.1591 156.415 67.1591C156.763 67.1591 157.133 67.2008 157.523 67.2841C157.917 67.3636 158.284 67.5114 158.625 67.7273C158.97 67.9432 159.252 68.2519 159.472 68.6534C159.691 69.0511 159.801 69.5682 159.801 70.2045V76H158.142V74.8068H158.074C157.964 75.0265 157.799 75.2424 157.58 75.4545C157.36 75.6667 157.078 75.8428 156.733 75.983C156.388 76.1231 155.975 76.1932 155.494 76.1932ZM155.864 74.8295C156.333 74.8295 156.735 74.7367 157.068 74.5511C157.405 74.3655 157.661 74.1231 157.835 73.8239C158.013 73.5208 158.102 73.197 158.102 72.8523V71.7273C158.042 71.7879 157.924 71.8447 157.75 71.8977C157.58 71.947 157.384 71.9905 157.165 72.0284C156.945 72.0625 156.731 72.0947 156.523 72.125C156.314 72.1515 156.14 72.1742 156 72.1932C155.67 72.2348 155.369 72.3049 155.097 72.4034C154.828 72.5019 154.612 72.6439 154.449 72.8295C154.29 73.0114 154.21 73.2538 154.21 73.5568C154.21 73.9773 154.366 74.2955 154.676 74.5114C154.987 74.7235 155.383 74.8295 155.864 74.8295ZM162.2 76V64.3636H163.899V68.6875H164.001C164.1 68.5057 164.242 68.2955 164.428 68.0568C164.613 67.8182 164.871 67.6098 165.2 67.4318C165.53 67.25 165.965 67.1591 166.507 67.1591C167.212 67.1591 167.84 67.3371 168.393 67.6932C168.946 68.0492 169.38 68.5625 169.695 69.233C170.013 69.9034 170.172 70.7102 170.172 71.6534C170.172 72.5966 170.015 73.4053 169.7 74.0795C169.386 74.75 168.954 75.267 168.405 75.6307C167.856 75.9905 167.229 76.1705 166.524 76.1705C165.994 76.1705 165.56 76.0814 165.223 75.9034C164.89 75.7254 164.628 75.517 164.439 75.2784C164.25 75.0398 164.104 74.8277 164.001 74.642H163.859V76H162.2ZM163.865 71.6364C163.865 72.25 163.954 72.7879 164.132 73.25C164.31 73.7121 164.568 74.0739 164.905 74.3352C165.242 74.5928 165.655 74.7216 166.143 74.7216C166.651 74.7216 167.075 74.5871 167.416 74.3182C167.757 74.0455 168.015 73.6761 168.189 73.2102C168.367 72.7443 168.456 72.2197 168.456 71.6364C168.456 71.0606 168.369 70.5436 168.195 70.0852C168.024 69.6269 167.767 69.2652 167.422 69C167.081 68.7348 166.655 68.6023 166.143 68.6023C165.651 68.6023 165.234 68.7292 164.893 68.983C164.556 69.2367 164.301 69.5909 164.126 70.0455C163.952 70.5 163.865 71.0303 163.865 71.6364ZM172.08 76V67.2727H173.722V68.6591H173.812C173.972 68.1894 174.252 67.8201 174.653 67.5511C175.059 67.2784 175.517 67.142 176.028 67.142C176.134 67.142 176.259 67.1458 176.403 67.1534C176.551 67.161 176.667 67.1705 176.75 67.1818V68.8068C176.682 68.7879 176.561 68.767 176.386 68.7443C176.212 68.7178 176.038 68.7045 175.864 68.7045C175.462 68.7045 175.104 68.7898 174.79 68.9602C174.479 69.1269 174.233 69.3598 174.051 69.6591C173.869 69.9545 173.778 70.2917 173.778 70.6705V76H172.08ZM178.22 76V67.2727H179.919V76H178.22ZM179.078 65.9261C178.783 65.9261 178.529 65.8277 178.317 65.6307C178.108 65.4299 178.004 65.1913 178.004 64.9148C178.004 64.6345 178.108 64.3958 178.317 64.1989C178.529 63.9981 178.783 63.8977 179.078 63.8977C179.374 63.8977 179.625 63.9981 179.834 64.1989C180.046 64.3958 180.152 64.6345 180.152 64.9148C180.152 65.1913 180.046 65.4299 179.834 65.6307C179.625 65.8277 179.374 65.9261 179.078 65.9261ZM185.881 76.1761C185.036 76.1761 184.309 75.9848 183.699 75.6023C183.093 75.2159 182.627 74.6837 182.301 74.0057C181.975 73.3277 181.812 72.5511 181.812 71.6761C181.812 70.7898 181.979 70.0076 182.312 69.3295C182.646 68.6477 183.116 68.1155 183.722 67.733C184.328 67.3504 185.042 67.1591 185.864 67.1591C186.527 67.1591 187.117 67.2822 187.636 67.5284C188.155 67.7708 188.574 68.1117 188.892 68.5511C189.214 68.9905 189.405 69.5038 189.466 70.0909H187.812C187.722 69.6818 187.513 69.3295 187.188 69.0341C186.866 68.7386 186.434 68.5909 185.892 68.5909C185.419 68.5909 185.004 68.7159 184.648 68.9659C184.295 69.2121 184.021 69.5644 183.824 70.0227C183.627 70.4773 183.528 71.0152 183.528 71.6364C183.528 72.2727 183.625 72.822 183.818 73.2841C184.011 73.7462 184.284 74.1042 184.636 74.358C184.992 74.6117 185.411 74.7386 185.892 74.7386C186.214 74.7386 186.506 74.6799 186.767 74.5625C187.032 74.4413 187.254 74.2689 187.432 74.0455C187.614 73.822 187.741 73.553 187.812 73.2386H189.466C189.405 73.803 189.222 74.3068 188.915 74.75C188.608 75.1932 188.197 75.5417 187.682 75.7955C187.17 76.0492 186.57 76.1761 185.881 76.1761ZM197.822 69.4034L196.283 69.6761C196.218 69.4792 196.116 69.2917 195.976 69.1136C195.839 68.9356 195.654 68.7898 195.419 68.6761C195.184 68.5625 194.891 68.5057 194.538 68.5057C194.057 68.5057 193.656 68.6136 193.334 68.8295C193.012 69.0417 192.851 69.3163 192.851 69.6534C192.851 69.9451 192.959 70.1799 193.175 70.358C193.391 70.536 193.739 70.6818 194.22 70.7955L195.607 71.1136C196.41 71.2992 197.008 71.5852 197.402 71.9716C197.796 72.358 197.993 72.8598 197.993 73.4773C197.993 74 197.841 74.4659 197.538 74.875C197.239 75.2803 196.821 75.5985 196.283 75.8295C195.749 76.0606 195.129 76.1761 194.425 76.1761C193.447 76.1761 192.65 75.9678 192.033 75.5511C191.415 75.1307 191.036 74.5341 190.896 73.7614L192.538 73.5114C192.641 73.9394 192.851 74.2633 193.169 74.483C193.487 74.6989 193.902 74.8068 194.413 74.8068C194.97 74.8068 195.415 74.6913 195.749 74.4602C196.082 74.2254 196.249 73.9394 196.249 73.6023C196.249 73.3295 196.146 73.1004 195.942 72.9148C195.741 72.7292 195.432 72.589 195.016 72.4943L193.538 72.1705C192.724 71.9848 192.122 71.6894 191.732 71.2841C191.345 70.8788 191.152 70.3655 191.152 69.7443C191.152 69.2292 191.296 68.7784 191.584 68.392C191.872 68.0057 192.269 67.7045 192.777 67.4886C193.285 67.2689 193.866 67.1591 194.521 67.1591C195.464 67.1591 196.207 67.3636 196.749 67.7727C197.29 68.178 197.648 68.7216 197.822 69.4034Z" fill="#111111"/>
<g filter="url(#filter1_di_706_12)">
<rect x="337.667" y="33" width="56" height="56" rx="8" fill="white"/>
<rect x="338.167" y="33.5" width="55" height="55" rx="7.5" stroke="#2F2B43" stroke-opacity="0.1"/>
<path d="M363.458 49.8572V55.5606" stroke="black" stroke-width="2" stroke-linecap="round" stroke-linejoin="round"/>
<path d="M372.727 57.9468V55.5605H354.19V66.9674C354.19 67.1547 354.227 67.3402 354.299 67.5132C354.371 67.6863 354.476 67.8435 354.608 67.9759C354.741 68.1084 354.898 68.2134 355.071 68.2851C355.244 68.3568 355.429 68.3937 355.617 68.3937H361.852" stroke="black" stroke-width="2" stroke-linecap="round" stroke-linejoin="round"/>
<path d="M354.19 55.5606L356.33 51.4395C356.56 50.9751 356.913 50.5824 357.35 50.3036C357.787 50.0248 358.292 49.8704 358.81 49.8572H368.107C368.638 49.8573 369.158 50.0054 369.609 50.285C370.06 50.5645 370.424 50.9643 370.66 51.4395L372.727 55.5606" stroke="black" stroke-width="2" stroke-linecap="round" stroke-linejoin="round"/>
<path d="M371.333 73C372.925 73 374.451 72.3679 375.576 71.2426C376.701 70.1174 377.333 68.5913 377.333 67C377.333 65.4087 376.701 63.8826 375.576 62.7574C374.451 61.6321 372.925 61 371.333 61C369.742 61 368.216 61.6321 367.091 62.7574C365.965 63.8826 365.333 65.4087 365.333 67C365.333 68.5913 365.965 70.1174 367.091 71.2426C368.216 72.3679 369.742 73 371.333 73Z" stroke="black" stroke-width="2" stroke-linecap="round" stroke-linejoin="round"/>
<path d="M373.733 64.6001L371.333 67.0001" stroke="black" stroke-width="2" stroke-linecap="round" stroke-linejoin="round"/>
</g>
<path d="M410.945 57V45.3636H418.161V46.875H412.701V50.4205H417.644V51.9261H412.701V57H410.945ZM420.074 57V48.2727H421.716V49.6591H421.807C421.966 49.1894 422.247 48.8201 422.648 48.5511C423.053 48.2784 423.512 48.142 424.023 48.142C424.129 48.142 424.254 48.1458 424.398 48.1534C424.546 48.161 424.661 48.1705 424.745 48.1818V49.8068C424.677 49.7879 424.555 49.767 424.381 49.7443C424.207 49.7178 424.033 49.7045 423.858 49.7045C423.457 49.7045 423.099 49.7898 422.785 49.9602C422.474 50.1269 422.228 50.3598 422.046 50.6591C421.864 50.9545 421.773 51.2917 421.773 51.6705V57H420.074ZM429.664 57.1761C428.804 57.1761 428.063 56.9924 427.442 56.625C426.825 56.2538 426.347 55.733 426.01 55.0625C425.677 54.3883 425.51 53.5985 425.51 52.6932C425.51 51.7992 425.677 51.0114 426.01 50.3295C426.347 49.6477 426.817 49.1155 427.419 48.733C428.026 48.3504 428.734 48.1591 429.544 48.1591C430.037 48.1591 430.514 48.2405 430.976 48.4034C431.438 48.5663 431.853 48.822 432.221 49.1705C432.588 49.5189 432.878 49.9716 433.09 50.5284C433.302 51.0814 433.408 51.7538 433.408 52.5455V53.1477H426.471V51.875H431.743C431.743 51.428 431.652 51.0322 431.471 50.6875C431.289 50.339 431.033 50.0644 430.704 49.8636C430.378 49.6629 429.995 49.5625 429.556 49.5625C429.079 49.5625 428.662 49.6799 428.306 49.9148C427.954 50.1458 427.681 50.4489 427.488 50.8239C427.298 51.1951 427.204 51.5985 427.204 52.0341V53.0284C427.204 53.6117 427.306 54.108 427.51 54.517C427.719 54.9261 428.008 55.2386 428.38 55.4545C428.751 55.6667 429.185 55.7727 429.681 55.7727C430.003 55.7727 430.296 55.7273 430.562 55.6364C430.827 55.5417 431.056 55.4015 431.249 55.2159C431.442 55.0303 431.59 54.8011 431.692 54.5284L433.3 54.8182C433.171 55.2917 432.94 55.7064 432.607 56.0625C432.277 56.4148 431.863 56.6894 431.363 56.8864C430.866 57.0795 430.3 57.1761 429.664 57.1761ZM439.054 57.1761C438.195 57.1761 437.454 56.9924 436.833 56.625C436.215 56.2538 435.738 55.733 435.401 55.0625C435.068 54.3883 434.901 53.5985 434.901 52.6932C434.901 51.7992 435.068 51.0114 435.401 50.3295C435.738 49.6477 436.208 49.1155 436.81 48.733C437.416 48.3504 438.124 48.1591 438.935 48.1591C439.428 48.1591 439.905 48.2405 440.367 48.4034C440.829 48.5663 441.244 48.822 441.611 49.1705C441.979 49.5189 442.268 49.9716 442.481 50.5284C442.693 51.0814 442.799 51.7538 442.799 52.5455V53.1477H435.861V51.875H441.134C441.134 51.428 441.043 51.0322 440.861 50.6875C440.679 50.339 440.424 50.0644 440.094 49.8636C439.768 49.6629 439.386 49.5625 438.946 49.5625C438.469 49.5625 438.053 49.6799 437.696 49.9148C437.344 50.1458 437.071 50.4489 436.878 50.8239C436.689 51.1951 436.594 51.5985 436.594 52.0341V53.0284C436.594 53.6117 436.696 54.108 436.901 54.517C437.109 54.9261 437.399 55.2386 437.77 55.4545C438.142 55.6667 438.575 55.7727 439.071 55.7727C439.393 55.7727 439.687 55.7273 439.952 55.6364C440.217 55.5417 440.446 55.4015 440.64 55.2159C440.833 55.0303 440.981 54.8011 441.083 54.5284L442.691 54.8182C442.562 55.2917 442.331 55.7064 441.998 56.0625C441.668 56.4148 441.253 56.6894 440.753 56.8864C440.257 57.0795 439.691 57.1761 439.054 57.1761ZM449.054 57V45.3636H456.35V46.875H450.81V50.4205H455.969V51.9261H450.81V55.4886H456.418V57H449.054ZM459.9 48.2727L461.826 51.6705L463.769 48.2727H465.627L462.905 52.6364L465.65 57H463.792L461.826 53.7386L459.865 57H458.002L460.718 52.6364L458.036 48.2727H459.9ZM467.371 60.2727V48.2727H469.03V49.6875H469.172C469.271 49.5057 469.413 49.2955 469.598 49.0568C469.784 48.8182 470.042 48.6098 470.371 48.4318C470.701 48.25 471.136 48.1591 471.678 48.1591C472.383 48.1591 473.011 48.3371 473.564 48.6932C474.117 49.0492 474.551 49.5625 474.865 50.233C475.184 50.9034 475.343 51.7102 475.343 52.6534C475.343 53.5966 475.186 54.4053 474.871 55.0795C474.557 55.75 474.125 56.267 473.576 56.6307C473.026 56.9905 472.4 57.1705 471.695 57.1705C471.165 57.1705 470.731 57.0814 470.394 56.9034C470.061 56.7254 469.799 56.517 469.61 56.2784C469.42 56.0398 469.275 55.8277 469.172 55.642H469.07V60.2727H467.371ZM469.036 52.6364C469.036 53.25 469.125 53.7879 469.303 54.25C469.481 54.7121 469.739 55.0739 470.076 55.3352C470.413 55.5928 470.826 55.7216 471.314 55.7216C471.822 55.7216 472.246 55.5871 472.587 55.3182C472.928 55.0455 473.186 54.6761 473.36 54.2102C473.538 53.7443 473.627 53.2197 473.627 52.6364C473.627 52.0606 473.54 51.5436 473.365 51.0852C473.195 50.6269 472.937 50.2652 472.593 50C472.252 49.7348 471.826 49.6023 471.314 49.6023C470.822 49.6023 470.405 49.7292 470.064 49.983C469.727 50.2367 469.472 50.5909 469.297 51.0455C469.123 51.5 469.036 52.0303 469.036 52.6364ZM477.246 57V48.2727H478.888V49.6591H478.979C479.138 49.1894 479.419 48.8201 479.82 48.5511C480.225 48.2784 480.684 48.142 481.195 48.142C481.301 48.142 481.426 48.1458 481.57 48.1534C481.718 48.161 481.833 48.1705 481.917 48.1818V49.8068C481.848 49.7879 481.727 49.767 481.553 49.7443C481.379 49.7178 481.205 49.7045 481.03 49.7045C480.629 49.7045 480.271 49.7898 479.956 49.9602C479.646 50.1269 479.4 50.3598 479.218 50.6591C479.036 50.9545 478.945 51.2917 478.945 51.6705V57H477.246ZM486.836 57.1761C485.976 57.1761 485.235 56.9924 484.614 56.625C483.997 56.2538 483.519 55.733 483.182 55.0625C482.849 54.3883 482.682 53.5985 482.682 52.6932C482.682 51.7992 482.849 51.0114 483.182 50.3295C483.519 49.6477 483.989 49.1155 484.591 48.733C485.197 48.3504 485.906 48.1591 486.716 48.1591C487.209 48.1591 487.686 48.2405 488.148 48.4034C488.61 48.5663 489.025 48.822 489.392 49.1705C489.76 49.5189 490.05 49.9716 490.262 50.5284C490.474 51.0814 490.58 51.7538 490.58 52.5455V53.1477H483.642V51.875H488.915C488.915 51.428 488.824 51.0322 488.642 50.6875C488.461 50.339 488.205 50.0644 487.875 49.8636C487.55 49.6629 487.167 49.5625 486.728 49.5625C486.25 49.5625 485.834 49.6799 485.478 49.9148C485.125 50.1458 484.853 50.4489 484.66 50.8239C484.47 51.1951 484.375 51.5985 484.375 52.0341V53.0284C484.375 53.6117 484.478 54.108 484.682 54.517C484.891 54.9261 485.18 55.2386 485.552 55.4545C485.923 55.6667 486.356 55.7727 486.853 55.7727C487.175 55.7727 487.468 55.7273 487.733 55.6364C487.999 55.5417 488.228 55.4015 488.421 55.2159C488.614 55.0303 488.762 54.8011 488.864 54.5284L490.472 54.8182C490.343 55.2917 490.112 55.7064 489.779 56.0625C489.449 56.4148 489.035 56.6894 488.535 56.8864C488.038 57.0795 487.472 57.1761 486.836 57.1761ZM499.005 50.4034L497.465 50.6761C497.401 50.4792 497.298 50.2917 497.158 50.1136C497.022 49.9356 496.836 49.7898 496.601 49.6761C496.366 49.5625 496.073 49.5057 495.721 49.5057C495.24 49.5057 494.838 49.6136 494.516 49.8295C494.194 50.0417 494.033 50.3163 494.033 50.6534C494.033 50.9451 494.141 51.1799 494.357 51.358C494.573 51.536 494.921 51.6818 495.402 51.7955L496.789 52.1136C497.592 52.2992 498.19 52.5852 498.584 52.9716C498.978 53.358 499.175 53.8598 499.175 54.4773C499.175 55 499.024 55.4659 498.721 55.875C498.421 56.2803 498.003 56.5985 497.465 56.8295C496.931 57.0606 496.312 57.1761 495.607 57.1761C494.63 57.1761 493.832 56.9678 493.215 56.5511C492.597 56.1307 492.219 55.5341 492.079 54.7614L493.721 54.5114C493.823 54.9394 494.033 55.2633 494.351 55.483C494.669 55.6989 495.084 55.8068 495.596 55.8068C496.152 55.8068 496.597 55.6913 496.931 55.4602C497.264 55.2254 497.431 54.9394 497.431 54.6023C497.431 54.3295 497.329 54.1004 497.124 53.9148C496.923 53.7292 496.615 53.589 496.198 53.4943L494.721 53.1705C493.906 52.9848 493.304 52.6894 492.914 52.2841C492.527 51.8788 492.334 51.3655 492.334 50.7443C492.334 50.2292 492.478 49.7784 492.766 49.392C493.054 49.0057 493.452 48.7045 493.959 48.4886C494.467 48.2689 495.048 48.1591 495.704 48.1591C496.647 48.1591 497.389 48.3636 497.931 48.7727C498.472 49.178 498.83 49.7216 499.005 50.4034ZM507.583 50.4034L506.043 50.6761C505.979 50.4792 505.876 50.2917 505.736 50.1136C505.6 49.9356 505.414 49.7898 505.179 49.6761C504.945 49.5625 504.651 49.5057 504.299 49.5057C503.818 49.5057 503.416 49.6136 503.094 49.8295C502.772 50.0417 502.611 50.3163 502.611 50.6534C502.611 50.9451 502.719 51.1799 502.935 51.358C503.151 51.536 503.499 51.6818 503.981 51.7955L505.367 52.1136C506.17 52.2992 506.768 52.5852 507.162 52.9716C507.556 53.358 507.753 53.8598 507.753 54.4773C507.753 55 507.602 55.4659 507.299 55.875C506.999 56.2803 506.581 56.5985 506.043 56.8295C505.509 57.0606 504.89 57.1761 504.185 57.1761C503.208 57.1761 502.41 56.9678 501.793 56.5511C501.176 56.1307 500.797 55.5341 500.657 54.7614L502.299 54.5114C502.401 54.9394 502.611 55.2633 502.929 55.483C503.248 55.6989 503.662 55.8068 504.174 55.8068C504.731 55.8068 505.176 55.6913 505.509 55.4602C505.842 55.2254 506.009 54.9394 506.009 54.6023C506.009 54.3295 505.907 54.1004 505.702 53.9148C505.501 53.7292 505.193 53.589 504.776 53.4943L503.299 53.1705C502.484 52.9848 501.882 52.6894 501.492 52.2841C501.106 51.8788 500.912 51.3655 500.912 50.7443C500.912 50.2292 501.056 49.7784 501.344 49.392C501.632 49.0057 502.03 48.7045 502.537 48.4886C503.045 48.2689 503.626 48.1591 504.282 48.1591C505.225 48.1591 505.967 48.3636 506.509 48.7727C507.051 49.178 507.409 49.7216 507.583 50.4034ZM417.292 67.4205C417.231 66.8826 416.981 66.4659 416.542 66.1705C416.102 65.8712 415.549 65.7216 414.883 65.7216C414.405 65.7216 413.992 65.7973 413.644 65.9489C413.295 66.0966 413.025 66.3011 412.831 66.5625C412.642 66.8201 412.547 67.1136 412.547 67.4432C412.547 67.7197 412.612 67.9583 412.74 68.1591C412.873 68.3598 413.045 68.5284 413.258 68.6648C413.473 68.7973 413.705 68.9091 413.951 69C414.197 69.0871 414.434 69.1591 414.661 69.2159L415.797 69.5114C416.169 69.6023 416.549 69.7254 416.939 69.8807C417.33 70.036 417.691 70.2405 418.025 70.4943C418.358 70.7481 418.627 71.0625 418.831 71.4375C419.04 71.8125 419.144 72.2614 419.144 72.7841C419.144 73.4432 418.973 74.0284 418.633 74.5398C418.295 75.0511 417.805 75.4545 417.161 75.75C416.521 76.0455 415.746 76.1932 414.837 76.1932C413.966 76.1932 413.212 76.0549 412.576 75.7784C411.939 75.5019 411.441 75.1098 411.081 74.6023C410.722 74.0909 410.523 73.4848 410.485 72.7841H412.246C412.28 73.2045 412.417 73.5549 412.655 73.8352C412.898 74.1117 413.206 74.3182 413.581 74.4545C413.96 74.5871 414.375 74.6534 414.826 74.6534C415.322 74.6534 415.763 74.5758 416.15 74.4205C416.54 74.2614 416.847 74.0417 417.07 73.7614C417.294 73.4773 417.405 73.1458 417.405 72.767C417.405 72.4223 417.307 72.1402 417.11 71.9205C416.917 71.7008 416.653 71.5189 416.32 71.375C415.99 71.2311 415.617 71.1042 415.201 70.9943L413.826 70.6193C412.894 70.3655 412.155 69.9924 411.61 69.5C411.068 69.0076 410.797 68.3561 410.797 67.5455C410.797 66.875 410.979 66.2898 411.343 65.7898C411.706 65.2898 412.199 64.9015 412.82 64.625C413.441 64.3447 414.142 64.2045 414.922 64.2045C415.71 64.2045 416.405 64.3428 417.008 64.6193C417.614 64.8958 418.091 65.2765 418.439 65.7614C418.788 66.2424 418.97 66.7955 418.985 67.4205H417.292ZM422.804 70.8182V76H421.106V64.3636H422.782V68.6932H422.89C423.094 68.2235 423.407 67.8504 423.827 67.5739C424.248 67.2973 424.797 67.1591 425.475 67.1591C426.073 67.1591 426.596 67.2822 427.043 67.5284C427.494 67.7746 427.842 68.142 428.089 68.6307C428.339 69.1155 428.464 69.7216 428.464 70.4489V76H426.765V70.6534C426.765 70.0133 426.6 69.517 426.27 69.1648C425.941 68.8087 425.482 68.6307 424.895 68.6307C424.494 68.6307 424.134 68.7159 423.816 68.8864C423.501 69.0568 423.253 69.3068 423.071 69.6364C422.893 69.9621 422.804 70.3561 422.804 70.8182ZM430.731 76V67.2727H432.429V76H430.731ZM431.589 65.9261C431.293 65.9261 431.039 65.8277 430.827 65.6307C430.619 65.4299 430.515 65.1913 430.515 64.9148C430.515 64.6345 430.619 64.3958 430.827 64.1989C431.039 63.9981 431.293 63.8977 431.589 63.8977C431.884 63.8977 432.136 63.9981 432.344 64.1989C432.556 64.3958 432.662 64.6345 432.662 64.9148C432.662 65.1913 432.556 65.4299 432.344 65.6307C432.136 65.8277 431.884 65.9261 431.589 65.9261ZM434.715 79.2727V67.2727H436.374V68.6875H436.516C436.615 68.5057 436.757 68.2955 436.942 68.0568C437.128 67.8182 437.385 67.6098 437.715 67.4318C438.044 67.25 438.48 67.1591 439.022 67.1591C439.726 67.1591 440.355 67.3371 440.908 67.6932C441.461 68.0492 441.895 68.5625 442.209 69.233C442.527 69.9034 442.687 70.7102 442.687 71.6534C442.687 72.5966 442.529 73.4053 442.215 74.0795C441.901 74.75 441.469 75.267 440.919 75.6307C440.37 75.9905 439.743 76.1705 439.039 76.1705C438.508 76.1705 438.075 76.0814 437.738 75.9034C437.404 75.7254 437.143 75.517 436.954 75.2784C436.764 75.0398 436.618 74.8277 436.516 74.642H436.414V79.2727H434.715ZM436.38 71.6364C436.38 72.25 436.469 72.7879 436.647 73.25C436.825 73.7121 437.082 74.0739 437.419 74.3352C437.757 74.5928 438.169 74.7216 438.658 74.7216C439.166 74.7216 439.59 74.5871 439.931 74.3182C440.272 74.0455 440.529 73.6761 440.704 73.2102C440.882 72.7443 440.971 72.2197 440.971 71.6364C440.971 71.0606 440.883 70.5436 440.709 70.0852C440.539 69.6269 440.281 69.2652 439.937 69C439.596 68.7348 439.169 68.6023 438.658 68.6023C438.166 68.6023 437.749 68.7292 437.408 68.983C437.071 69.2367 436.815 69.5909 436.641 70.0455C436.467 70.5 436.38 71.0303 436.38 71.6364ZM444.59 79.2727V67.2727H446.249V68.6875H446.391C446.49 68.5057 446.632 68.2955 446.817 68.0568C447.003 67.8182 447.26 67.6098 447.59 67.4318C447.919 67.25 448.355 67.1591 448.897 67.1591C449.601 67.1591 450.23 67.3371 450.783 67.6932C451.336 68.0492 451.77 68.5625 452.084 69.233C452.402 69.9034 452.562 70.7102 452.562 71.6534C452.562 72.5966 452.404 73.4053 452.09 74.0795C451.776 74.75 451.344 75.267 450.794 75.6307C450.245 75.9905 449.618 76.1705 448.914 76.1705C448.383 76.1705 447.95 76.0814 447.613 75.9034C447.279 75.7254 447.018 75.517 446.829 75.2784C446.639 75.0398 446.493 74.8277 446.391 74.642H446.289V79.2727H444.59ZM446.255 71.6364C446.255 72.25 446.344 72.7879 446.522 73.25C446.7 73.7121 446.957 74.0739 447.294 74.3352C447.632 74.5928 448.044 74.7216 448.533 74.7216C449.041 74.7216 449.465 74.5871 449.806 74.3182C450.147 74.0455 450.404 73.6761 450.579 73.2102C450.757 72.7443 450.846 72.2197 450.846 71.6364C450.846 71.0606 450.758 70.5436 450.584 70.0852C450.414 69.6269 450.156 69.2652 449.812 69C449.471 68.7348 449.044 68.6023 448.533 68.6023C448.041 68.6023 447.624 68.7292 447.283 68.983C446.946 69.2367 446.69 69.5909 446.516 70.0455C446.342 70.5 446.255 71.0303 446.255 71.6364ZM454.465 76V67.2727H456.164V76H454.465ZM455.323 65.9261C455.027 65.9261 454.774 65.8277 454.562 65.6307C454.353 65.4299 454.249 65.1913 454.249 64.9148C454.249 64.6345 454.353 64.3958 454.562 64.1989C454.774 63.9981 455.027 63.8977 455.323 63.8977C455.618 63.8977 455.87 63.9981 456.079 64.1989C456.291 64.3958 456.397 64.6345 456.397 64.9148C456.397 65.1913 456.291 65.4299 456.079 65.6307C455.87 65.8277 455.618 65.9261 455.323 65.9261ZM460.148 70.8182V76H458.449V67.2727H460.08V68.6932H460.188C460.389 68.2311 460.703 67.8598 461.131 67.5795C461.563 67.2992 462.106 67.1591 462.762 67.1591C463.356 67.1591 463.877 67.2841 464.324 67.5341C464.771 67.7803 465.118 68.1477 465.364 68.6364C465.61 69.125 465.733 69.7292 465.733 70.4489V76H464.035V70.6534C464.035 70.0208 463.87 69.5265 463.54 69.1705C463.211 68.8106 462.758 68.6307 462.182 68.6307C461.788 68.6307 461.438 68.7159 461.131 68.8864C460.828 69.0568 460.588 69.3068 460.41 69.6364C460.235 69.9621 460.148 70.3561 460.148 70.8182ZM471.671 79.4545C470.978 79.4545 470.381 79.3636 469.881 79.1818C469.385 79 468.98 78.7595 468.665 78.4602C468.351 78.161 468.116 77.8333 467.961 77.4773L469.421 76.875C469.523 77.0417 469.66 77.2178 469.83 77.4034C470.004 77.5928 470.239 77.7538 470.535 77.8864C470.834 78.0189 471.218 78.0852 471.688 78.0852C472.332 78.0852 472.864 77.928 473.285 77.6136C473.705 77.303 473.915 76.8068 473.915 76.125V74.4091H473.807C473.705 74.5947 473.557 74.8011 473.364 75.0284C473.175 75.2557 472.913 75.4527 472.58 75.6193C472.247 75.786 471.813 75.8693 471.279 75.8693C470.589 75.8693 469.968 75.7083 469.415 75.3864C468.866 75.0606 468.43 74.5814 468.108 73.9489C467.79 73.3125 467.631 72.5303 467.631 71.6023C467.631 70.6742 467.788 69.8788 468.103 69.2159C468.421 68.553 468.856 68.0455 469.41 67.6932C469.963 67.3371 470.589 67.1591 471.29 67.1591C471.832 67.1591 472.269 67.25 472.603 67.4318C472.936 67.6098 473.196 67.8182 473.381 68.0568C473.571 68.2955 473.716 68.5057 473.819 68.6875H473.944V67.2727H475.608V76.1932C475.608 76.9432 475.434 77.5587 475.086 78.0398C474.737 78.5208 474.266 78.8769 473.671 79.108C473.08 79.339 472.413 79.4545 471.671 79.4545ZM471.654 74.4602C472.142 74.4602 472.555 74.3466 472.892 74.1193C473.233 73.8883 473.491 73.5587 473.665 73.1307C473.843 72.6989 473.932 72.1818 473.932 71.5795C473.932 70.9924 473.845 70.4754 473.671 70.0284C473.497 69.5814 473.241 69.233 472.904 68.983C472.567 68.7292 472.15 68.6023 471.654 68.6023C471.142 68.6023 470.716 68.7348 470.375 69C470.035 69.2614 469.777 69.6174 469.603 70.0682C469.432 70.5189 469.347 71.0227 469.347 71.5795C469.347 72.1515 469.434 72.6534 469.608 73.0852C469.783 73.517 470.04 73.8542 470.381 74.0966C470.726 74.339 471.15 74.4602 471.654 74.4602Z" fill="#111111"/>
<g filter="url(#filter2_di_706_12)">
<rect x="672.333" y="33" width="56" height="56" rx="8" fill="white"/>
<rect x="672.833" y="33.5" width="55" height="55" rx="7.5" stroke="#2F2B43" stroke-opacity="0.1"/>
<g clip-path="url(#clip1_706_12)">
<path d="M698.458 49.8572V55.5606" stroke="black" stroke-width="2" stroke-linecap="round" stroke-linejoin="round"/>
<path d="M707.727 61V55.5605H689.19V66.9674C689.19 67.1547 689.227 67.3402 689.299 67.5132C689.371 67.6863 689.476 67.8435 689.608 67.9759C689.741 68.1084 689.898 68.2134 690.071 68.2851C690.244 68.3568 690.429 68.3937 690.617 68.3937H698.619" stroke="black" stroke-width="2" stroke-linecap="round" stroke-linejoin="round"/>
<path d="M689.19 55.5606L691.33 51.4395C691.56 50.9751 691.913 50.5824 692.35 50.3036C692.787 50.0248 693.292 49.8704 693.81 49.8572H703.107C703.638 49.8573 704.158 50.0054 704.609 50.285C705.059 50.5645 705.423 50.9643 705.66 51.4395L707.727 55.5606" stroke="black" stroke-width="2" stroke-linecap="round" stroke-linejoin="round"/>
<path d="M702.048 66.1428H708.476C710.132 66.1428 711.476 67.4868 711.476 69.1428C711.476 69.9385 711.16 70.7015 710.597 71.2641C710.035 71.8268 709.272 72.1428 708.476 72.1428H702.905" stroke="black" stroke-width="2" stroke-linecap="round" stroke-linejoin="round"/>
<path d="M704.619 68.7144L702.048 66.143L704.619 63.5715" stroke="black" stroke-width="2" stroke-linecap="round" stroke-linejoin="round"/>
</g>
</g>
<path d="M745.612 57V45.3636H752.828V46.875H747.367V50.4205H752.311V51.9261H747.367V57H745.612ZM754.741 57V48.2727H756.383V49.6591H756.474C756.633 49.1894 756.913 48.8201 757.315 48.5511C757.72 48.2784 758.178 48.142 758.69 48.142C758.796 48.142 758.921 48.1458 759.065 48.1534C759.213 48.161 759.328 48.1705 759.411 48.1818V49.8068C759.343 49.7879 759.222 49.767 759.048 49.7443C758.873 49.7178 758.699 49.7045 758.525 49.7045C758.123 49.7045 757.766 49.7898 757.451 49.9602C757.141 50.1269 756.894 50.3598 756.713 50.6591C756.531 50.9545 756.44 51.2917 756.44 51.6705V57H754.741ZM764.33 57.1761C763.471 57.1761 762.73 56.9924 762.109 56.625C761.491 56.2538 761.014 55.733 760.677 55.0625C760.344 54.3883 760.177 53.5985 760.177 52.6932C760.177 51.7992 760.344 51.0114 760.677 50.3295C761.014 49.6477 761.484 49.1155 762.086 48.733C762.692 48.3504 763.4 48.1591 764.211 48.1591C764.704 48.1591 765.181 48.2405 765.643 48.4034C766.105 48.5663 766.52 48.822 766.887 49.1705C767.255 49.5189 767.544 49.9716 767.757 50.5284C767.969 51.0814 768.075 51.7538 768.075 52.5455V53.1477H761.137V51.875H766.41C766.41 51.428 766.319 51.0322 766.137 50.6875C765.955 50.339 765.7 50.0644 765.37 49.8636C765.044 49.6629 764.662 49.5625 764.222 49.5625C763.745 49.5625 763.329 49.6799 762.972 49.9148C762.62 50.1458 762.347 50.4489 762.154 50.8239C761.965 51.1951 761.87 51.5985 761.87 52.0341V53.0284C761.87 53.6117 761.972 54.108 762.177 54.517C762.385 54.9261 762.675 55.2386 763.046 55.4545C763.418 55.6667 763.851 55.7727 764.347 55.7727C764.669 55.7727 764.963 55.7273 765.228 55.6364C765.493 55.5417 765.722 55.4015 765.916 55.2159C766.109 55.0303 766.257 54.8011 766.359 54.5284L767.967 54.8182C767.838 55.2917 767.607 55.7064 767.274 56.0625C766.944 56.4148 766.529 56.6894 766.029 56.8864C765.533 57.0795 764.967 57.1761 764.33 57.1761ZM773.721 57.1761C772.861 57.1761 772.121 56.9924 771.499 56.625C770.882 56.2538 770.405 55.733 770.068 55.0625C769.734 54.3883 769.568 53.5985 769.568 52.6932C769.568 51.7992 769.734 51.0114 770.068 50.3295C770.405 49.6477 770.874 49.1155 771.477 48.733C772.083 48.3504 772.791 48.1591 773.602 48.1591C774.094 48.1591 774.571 48.2405 775.034 48.4034C775.496 48.5663 775.91 48.822 776.278 49.1705C776.645 49.5189 776.935 49.9716 777.147 50.5284C777.359 51.0814 777.465 51.7538 777.465 52.5455V53.1477H770.528V51.875H775.801C775.801 51.428 775.71 51.0322 775.528 50.6875C775.346 50.339 775.09 50.0644 774.761 49.8636C774.435 49.6629 774.052 49.5625 773.613 49.5625C773.136 49.5625 772.719 49.6799 772.363 49.9148C772.011 50.1458 771.738 50.4489 771.545 50.8239C771.356 51.1951 771.261 51.5985 771.261 52.0341V53.0284C771.261 53.6117 771.363 54.108 771.568 54.517C771.776 54.9261 772.066 55.2386 772.437 55.4545C772.808 55.6667 773.242 55.7727 773.738 55.7727C774.06 55.7727 774.354 55.7273 774.619 55.6364C774.884 55.5417 775.113 55.4015 775.306 55.2159C775.499 55.0303 775.647 54.8011 775.749 54.5284L777.357 54.8182C777.229 55.2917 776.998 55.7064 776.664 56.0625C776.335 56.4148 775.92 56.6894 775.42 56.8864C774.924 57.0795 774.357 57.1761 773.721 57.1761ZM783.585 57V48.2727H785.227V49.6591H785.318C785.477 49.1894 785.757 48.8201 786.159 48.5511C786.564 48.2784 787.022 48.142 787.534 48.142C787.64 48.142 787.765 48.1458 787.909 48.1534C788.056 48.161 788.172 48.1705 788.255 48.1818V49.8068C788.187 49.7879 788.066 49.767 787.891 49.7443C787.717 49.7178 787.543 49.7045 787.369 49.7045C786.967 49.7045 786.609 49.7898 786.295 49.9602C785.984 50.1269 785.738 50.3598 785.556 50.6591C785.374 50.9545 785.284 51.2917 785.284 51.6705V57H783.585ZM793.174 57.1761C792.314 57.1761 791.574 56.9924 790.953 56.625C790.335 56.2538 789.858 55.733 789.521 55.0625C789.187 54.3883 789.021 53.5985 789.021 52.6932C789.021 51.7992 789.187 51.0114 789.521 50.3295C789.858 49.6477 790.328 49.1155 790.93 48.733C791.536 48.3504 792.244 48.1591 793.055 48.1591C793.547 48.1591 794.025 48.2405 794.487 48.4034C794.949 48.5663 795.364 48.822 795.731 49.1705C796.098 49.5189 796.388 49.9716 796.6 50.5284C796.812 51.0814 796.918 51.7538 796.918 52.5455V53.1477H789.981V51.875H795.254C795.254 51.428 795.163 51.0322 794.981 50.6875C794.799 50.339 794.543 50.0644 794.214 49.8636C793.888 49.6629 793.506 49.5625 793.066 49.5625C792.589 49.5625 792.172 49.6799 791.816 49.9148C791.464 50.1458 791.191 50.4489 790.998 50.8239C790.809 51.1951 790.714 51.5985 790.714 52.0341V53.0284C790.714 53.6117 790.816 54.108 791.021 54.517C791.229 54.9261 791.519 55.2386 791.89 55.4545C792.261 55.6667 792.695 55.7727 793.191 55.7727C793.513 55.7727 793.807 55.7273 794.072 55.6364C794.337 55.5417 794.566 55.4015 794.759 55.2159C794.953 55.0303 795.1 54.8011 795.203 54.5284L796.811 54.8182C796.682 55.2917 796.451 55.7064 796.117 56.0625C795.788 56.4148 795.373 56.6894 794.873 56.8864C794.377 57.0795 793.811 57.1761 793.174 57.1761ZM802.877 48.2727V49.6364H798.11V48.2727H802.877ZM799.389 46.1818H801.088V54.4375C801.088 54.767 801.137 55.0152 801.235 55.1818C801.334 55.3447 801.461 55.4564 801.616 55.517C801.775 55.5739 801.947 55.6023 802.133 55.6023C802.269 55.6023 802.389 55.5928 802.491 55.5739C802.593 55.5549 802.673 55.5398 802.73 55.5284L803.036 56.9318C802.938 56.9697 802.798 57.0076 802.616 57.0455C802.434 57.0871 802.207 57.1098 801.934 57.1136C801.487 57.1212 801.07 57.0417 800.684 56.875C800.298 56.7083 799.985 56.4508 799.747 56.1023C799.508 55.7538 799.389 55.3163 799.389 54.7898V46.1818ZM810.285 53.3807V48.2727H811.99V57H810.319V55.4886H810.228C810.027 55.9545 809.705 56.3428 809.262 56.6534C808.823 56.9602 808.275 57.1136 807.62 57.1136C807.06 57.1136 806.563 56.9905 806.132 56.7443C805.704 56.4943 805.366 56.125 805.12 55.6364C804.878 55.1477 804.757 54.5436 804.757 53.8239V48.2727H806.455V53.6193C806.455 54.214 806.62 54.6875 806.95 55.0398C807.279 55.392 807.707 55.5682 808.234 55.5682C808.552 55.5682 808.868 55.4886 809.183 55.3295C809.501 55.1705 809.764 54.9299 809.972 54.608C810.185 54.286 810.289 53.8769 810.285 53.3807ZM814.272 57V48.2727H815.914V49.6591H816.005C816.164 49.1894 816.445 48.8201 816.846 48.5511C817.251 48.2784 817.71 48.142 818.221 48.142C818.327 48.142 818.452 48.1458 818.596 48.1534C818.744 48.161 818.859 48.1705 818.943 48.1818V49.8068C818.874 49.7879 818.753 49.767 818.579 49.7443C818.405 49.7178 818.231 49.7045 818.056 49.7045C817.655 49.7045 817.297 49.7898 816.982 49.9602C816.672 50.1269 816.426 50.3598 816.244 50.6591C816.062 50.9545 815.971 51.2917 815.971 51.6705V57H814.272ZM822.112 51.8182V57H820.413V48.2727H822.043V49.6932H822.151C822.352 49.2311 822.667 48.8598 823.095 48.5795C823.526 48.2992 824.07 48.1591 824.725 48.1591C825.32 48.1591 825.841 48.2841 826.288 48.5341C826.735 48.7803 827.081 49.1477 827.328 49.6364C827.574 50.125 827.697 50.7292 827.697 51.4489V57H825.998V51.6534C825.998 51.0208 825.833 50.5265 825.504 50.1705C825.174 49.8106 824.722 49.6307 824.146 49.6307C823.752 49.6307 823.401 49.7159 823.095 49.8864C822.792 50.0568 822.551 50.3068 822.373 50.6364C822.199 50.9621 822.112 51.3561 822.112 51.8182ZM836.515 50.4034L834.975 50.6761C834.911 50.4792 834.809 50.2917 834.668 50.1136C834.532 49.9356 834.347 49.7898 834.112 49.6761C833.877 49.5625 833.583 49.5057 833.231 49.5057C832.75 49.5057 832.348 49.6136 832.026 49.8295C831.704 50.0417 831.543 50.3163 831.543 50.6534C831.543 50.9451 831.651 51.1799 831.867 51.358C832.083 51.536 832.432 51.6818 832.913 51.7955L834.299 52.1136C835.102 52.2992 835.701 52.5852 836.095 52.9716C836.489 53.358 836.686 53.8598 836.686 54.4773C836.686 55 836.534 55.4659 836.231 55.875C835.932 56.2803 835.513 56.5985 834.975 56.8295C834.441 57.0606 833.822 57.1761 833.117 57.1761C832.14 57.1761 831.343 56.9678 830.725 56.5511C830.108 56.1307 829.729 55.5341 829.589 54.7614L831.231 54.5114C831.333 54.9394 831.543 55.2633 831.862 55.483C832.18 55.6989 832.595 55.8068 833.106 55.8068C833.663 55.8068 834.108 55.6913 834.441 55.4602C834.775 55.2254 834.941 54.9394 834.941 54.6023C834.941 54.3295 834.839 54.1004 834.634 53.9148C834.434 53.7292 834.125 53.589 833.708 53.4943L832.231 53.1705C831.417 52.9848 830.814 52.6894 830.424 52.2841C830.038 51.8788 829.845 51.3655 829.845 50.7443C829.845 50.2292 829.989 49.7784 830.276 49.392C830.564 49.0057 830.962 48.7045 831.47 48.4886C831.977 48.2689 832.559 48.1591 833.214 48.1591C834.157 48.1591 834.9 48.3636 835.441 48.7727C835.983 49.178 836.341 49.7216 836.515 50.4034ZM747.367 76L744.799 67.2727H746.555L748.265 73.6818H748.35L750.066 67.2727H751.822L753.526 73.6534H753.612L755.311 67.2727H757.066L754.504 76H752.771L750.998 69.6989H750.867L749.095 76H747.367ZM758.678 76V67.2727H760.377V76H758.678ZM759.536 65.9261C759.241 65.9261 758.987 65.8277 758.775 65.6307C758.567 65.4299 758.463 65.1913 758.463 64.9148C758.463 64.6345 758.567 64.3958 758.775 64.1989C758.987 63.9981 759.241 63.8977 759.536 63.8977C759.832 63.8977 760.084 63.9981 760.292 64.1989C760.504 64.3958 760.61 64.6345 760.61 64.9148C760.61 65.1913 760.504 65.4299 760.292 65.6307C760.084 65.8277 759.832 65.9261 759.536 65.9261ZM766.737 67.2727V68.6364H761.97V67.2727H766.737ZM763.248 65.1818H764.947V73.4375C764.947 73.767 764.996 74.0152 765.095 74.1818C765.193 74.3447 765.32 74.4564 765.475 74.517C765.634 74.5739 765.807 74.6023 765.992 74.6023C766.129 74.6023 766.248 74.5928 766.35 74.5739C766.453 74.5549 766.532 74.5398 766.589 74.5284L766.896 75.9318C766.797 75.9697 766.657 76.0076 766.475 76.0455C766.293 76.0871 766.066 76.1098 765.793 76.1136C765.347 76.1212 764.93 76.0417 764.543 75.875C764.157 75.7083 763.845 75.4508 763.606 75.1023C763.367 74.7538 763.248 74.3163 763.248 73.7898V65.1818ZM770.502 70.8182V76H768.803V64.3636H770.48V68.6932H770.588C770.792 68.2235 771.105 67.8504 771.525 67.5739C771.945 67.2973 772.495 67.1591 773.173 67.1591C773.771 67.1591 774.294 67.2822 774.741 67.5284C775.192 67.7746 775.54 68.142 775.786 68.6307C776.036 69.1155 776.161 69.7216 776.161 70.4489V76H774.463V70.6534C774.463 70.0133 774.298 69.517 773.968 69.1648C773.639 68.8087 773.18 68.6307 772.593 68.6307C772.192 68.6307 771.832 68.7159 771.514 68.8864C771.199 69.0568 770.951 69.3068 770.769 69.6364C770.591 69.9621 770.502 70.3561 770.502 70.8182ZM778.428 76V67.2727H780.127V76H778.428ZM779.286 65.9261C778.991 65.9261 778.737 65.8277 778.525 65.6307C778.317 65.4299 778.213 65.1913 778.213 64.9148C778.213 64.6345 778.317 64.3958 778.525 64.1989C778.737 63.9981 778.991 63.8977 779.286 63.8977C779.582 63.8977 779.834 63.9981 780.042 64.1989C780.254 64.3958 780.36 64.6345 780.36 64.9148C780.36 65.1913 780.254 65.4299 780.042 65.6307C779.834 65.8277 779.582 65.9261 779.286 65.9261ZM784.112 70.8182V76H782.413V67.2727H784.043V68.6932H784.151C784.352 68.2311 784.667 67.8598 785.095 67.5795C785.526 67.2992 786.07 67.1591 786.725 67.1591C787.32 67.1591 787.841 67.2841 788.288 67.5341C788.735 67.7803 789.081 68.1477 789.328 68.6364C789.574 69.125 789.697 69.7292 789.697 70.4489V76H787.998V70.6534C787.998 70.0208 787.833 69.5265 787.504 69.1705C787.174 68.8106 786.722 68.6307 786.146 68.6307C785.752 68.6307 785.401 68.7159 785.095 68.8864C784.792 69.0568 784.551 69.3068 784.373 69.6364C784.199 69.9621 784.112 70.3561 784.112 70.8182ZM800.363 76.1591C799.583 76.1591 798.886 76.0246 798.272 75.7557C797.662 75.4867 797.179 75.1136 796.823 74.6364C796.471 74.1553 796.282 73.5985 796.255 72.9659H798.039C798.062 73.3106 798.177 73.6098 798.386 73.8636C798.598 74.1136 798.874 74.3068 799.215 74.4432C799.556 74.5795 799.935 74.6477 800.352 74.6477C800.81 74.6477 801.215 74.5682 801.568 74.4091C801.924 74.25 802.202 74.0284 802.403 73.7443C802.604 73.4564 802.704 73.125 802.704 72.75C802.704 72.3598 802.604 72.017 802.403 71.7216C802.206 71.4223 801.916 71.1875 801.534 71.017C801.155 70.8466 800.696 70.7614 800.159 70.7614H799.176V69.3295H800.159C800.59 69.3295 800.969 69.2519 801.295 69.0966C801.624 68.9413 801.882 68.7254 802.068 68.4489C802.253 68.1686 802.346 67.8409 802.346 67.4659C802.346 67.1061 802.265 66.7936 802.102 66.5284C801.943 66.2595 801.715 66.0492 801.42 65.8977C801.128 65.7462 800.784 65.6705 800.386 65.6705C800.007 65.6705 799.653 65.7405 799.323 65.8807C798.998 66.017 798.732 66.214 798.528 66.4716C798.323 66.7254 798.213 67.0303 798.198 67.3864H796.499C796.518 66.7576 796.704 66.2045 797.056 65.7273C797.412 65.25 797.882 64.8769 798.465 64.608C799.049 64.339 799.696 64.2045 800.409 64.2045C801.155 64.2045 801.799 64.3504 802.34 64.642C802.886 64.9299 803.306 65.3144 803.602 65.7955C803.901 66.2765 804.049 66.803 804.045 67.375C804.049 68.0265 803.867 68.5795 803.499 69.0341C803.136 69.4886 802.651 69.7936 802.045 69.9489V70.0398C802.818 70.1572 803.416 70.464 803.84 70.9602C804.268 71.4564 804.481 72.072 804.477 72.8068C804.481 73.447 804.302 74.0208 803.943 74.5284C803.587 75.036 803.1 75.4356 802.482 75.7273C801.865 76.0152 801.159 76.1591 800.363 76.1591ZM810.887 76.1932C809.99 76.1894 809.222 75.9527 808.586 75.483C807.95 75.0133 807.463 74.3295 807.126 73.4318C806.789 72.5341 806.62 71.4527 806.62 70.1875C806.62 68.9261 806.789 67.8485 807.126 66.9545C807.467 66.0606 807.955 65.3788 808.592 64.9091C809.232 64.4394 809.997 64.2045 810.887 64.2045C811.777 64.2045 812.541 64.4413 813.177 64.9148C813.813 65.3845 814.3 66.0663 814.637 66.9602C814.978 67.8504 815.149 68.9261 815.149 70.1875C815.149 71.4564 814.98 72.5398 814.643 73.4375C814.306 74.3314 813.819 75.0152 813.183 75.4886C812.546 75.9583 811.781 76.1932 810.887 76.1932ZM810.887 74.6761C811.675 74.6761 812.291 74.2917 812.734 73.5227C813.181 72.7538 813.404 71.642 813.404 70.1875C813.404 69.2216 813.302 68.4053 813.097 67.7386C812.897 67.0682 812.607 66.5606 812.228 66.2159C811.853 65.8674 811.406 65.6932 810.887 65.6932C810.103 65.6932 809.488 66.0795 809.041 66.8523C808.594 67.625 808.368 68.7367 808.365 70.1875C808.365 71.1572 808.465 71.9773 808.666 72.6477C808.87 73.3144 809.16 73.8201 809.535 74.1648C809.91 74.5057 810.361 74.6761 810.887 74.6761ZM824.805 76.1705C824.1 76.1705 823.472 75.9905 822.918 75.6307C822.369 75.267 821.937 74.75 821.623 74.0795C821.312 73.4053 821.157 72.5966 821.157 71.6534C821.157 70.7102 821.314 69.9034 821.629 69.233C821.947 68.5625 822.382 68.0492 822.936 67.6932C823.489 67.3371 824.115 67.1591 824.816 67.1591C825.358 67.1591 825.793 67.25 826.123 67.4318C826.456 67.6098 826.714 67.8182 826.896 68.0568C827.081 68.2955 827.225 68.5057 827.328 68.6875H827.43V64.3636H829.129V76H827.47V74.642H827.328C827.225 74.8277 827.078 75.0398 826.884 75.2784C826.695 75.517 826.434 75.7254 826.1 75.9034C825.767 76.0814 825.335 76.1705 824.805 76.1705ZM825.18 74.7216C825.668 74.7216 826.081 74.5928 826.418 74.3352C826.759 74.0739 827.017 73.7121 827.191 73.25C827.369 72.7879 827.458 72.25 827.458 71.6364C827.458 71.0303 827.371 70.5 827.197 70.0455C827.023 69.5909 826.767 69.2367 826.43 68.983C826.093 68.7292 825.676 68.6023 825.18 68.6023C824.668 68.6023 824.242 68.7348 823.901 69C823.561 69.2652 823.303 69.6269 823.129 70.0852C822.958 70.5436 822.873 71.0606 822.873 71.6364C822.873 72.2197 822.96 72.7443 823.134 73.2102C823.309 73.6761 823.566 74.0455 823.907 74.3182C824.252 74.5871 824.676 74.7216 825.18 74.7216ZM834.093 76.1932C833.54 76.1932 833.04 76.0909 832.593 75.8864C832.146 75.678 831.792 75.3769 831.531 74.983C831.273 74.589 831.144 74.1061 831.144 73.5341C831.144 73.0417 831.239 72.6364 831.428 72.3182C831.618 72 831.873 71.7481 832.195 71.5625C832.517 71.3769 832.877 71.2367 833.275 71.142C833.673 71.0473 834.078 70.9754 834.491 70.9261C835.014 70.8655 835.438 70.8163 835.764 70.7784C836.089 70.7367 836.326 70.6705 836.474 70.5795C836.622 70.4886 836.695 70.3409 836.695 70.1364V70.0966C836.695 69.6004 836.555 69.2159 836.275 68.9432C835.998 68.6705 835.586 68.5341 835.036 68.5341C834.464 68.5341 834.014 68.661 833.684 68.9148C833.358 69.1648 833.133 69.4432 833.008 69.75L831.411 69.3864C831.601 68.8561 831.877 68.428 832.241 68.1023C832.608 67.7727 833.031 67.5341 833.508 67.3864C833.985 67.2348 834.487 67.1591 835.014 67.1591C835.362 67.1591 835.731 67.2008 836.122 67.2841C836.516 67.3636 836.883 67.5114 837.224 67.7273C837.569 67.9432 837.851 68.2519 838.07 68.6534C838.29 69.0511 838.4 69.5682 838.4 70.2045V76H836.741V74.8068H836.673C836.563 75.0265 836.398 75.2424 836.178 75.4545C835.959 75.6667 835.677 75.8428 835.332 75.983C834.987 76.1231 834.574 76.1932 834.093 76.1932ZM834.463 74.8295C834.932 74.8295 835.334 74.7367 835.667 74.5511C836.004 74.3655 836.26 74.1231 836.434 73.8239C836.612 73.5208 836.701 73.197 836.701 72.8523V71.7273C836.641 71.7879 836.523 71.8447 836.349 71.8977C836.178 71.947 835.983 71.9905 835.764 72.0284C835.544 72.0625 835.33 72.0947 835.122 72.125C834.913 72.1515 834.739 72.1742 834.599 72.1932C834.269 72.2348 833.968 72.3049 833.695 72.4034C833.427 72.5019 833.211 72.6439 833.048 72.8295C832.889 73.0114 832.809 73.2538 832.809 73.5568C832.809 73.9773 832.964 74.2955 833.275 74.5114C833.586 74.7235 833.981 74.8295 834.463 74.8295ZM841.424 79.2727C841.17 79.2727 840.939 79.2519 840.731 79.2102C840.523 79.1723 840.367 79.1307 840.265 79.0852L840.674 77.6932C840.985 77.7765 841.261 77.8125 841.504 77.8011C841.746 77.7898 841.96 77.6989 842.146 77.5284C842.335 77.358 842.502 77.0795 842.646 76.6932L842.856 76.1136L839.663 67.2727H841.481L843.691 74.0455H843.782L845.992 67.2727H847.816L844.22 77.1648C844.053 77.6193 843.841 78.0038 843.583 78.3182C843.326 78.6364 843.019 78.875 842.663 79.0341C842.307 79.1932 841.894 79.2727 841.424 79.2727ZM855.953 69.4034L854.413 69.6761C854.348 69.4792 854.246 69.2917 854.106 69.1136C853.97 68.9356 853.784 68.7898 853.549 68.6761C853.314 68.5625 853.021 68.5057 852.668 68.5057C852.187 68.5057 851.786 68.6136 851.464 68.8295C851.142 69.0417 850.981 69.3163 850.981 69.6534C850.981 69.9451 851.089 70.1799 851.305 70.358C851.521 70.536 851.869 70.6818 852.35 70.7955L853.737 71.1136C854.54 71.2992 855.138 71.5852 855.532 71.9716C855.926 72.358 856.123 72.8598 856.123 73.4773C856.123 74 855.972 74.4659 855.668 74.875C855.369 75.2803 854.951 75.5985 854.413 75.8295C853.879 76.0606 853.259 76.1761 852.555 76.1761C851.578 76.1761 850.78 75.9678 850.163 75.5511C849.545 75.1307 849.167 74.5341 849.026 73.7614L850.668 73.5114C850.771 73.9394 850.981 74.2633 851.299 74.483C851.617 74.6989 852.032 74.8068 852.543 74.8068C853.1 74.8068 853.545 74.6913 853.879 74.4602C854.212 74.2254 854.379 73.9394 854.379 73.6023C854.379 73.3295 854.276 73.1004 854.072 72.9148C853.871 72.7292 853.562 72.589 853.146 72.4943L851.668 72.1705C850.854 71.9848 850.252 71.6894 849.862 71.2841C849.475 70.8788 849.282 70.3655 849.282 69.7443C849.282 69.2292 849.426 68.7784 849.714 68.392C850.002 68.0057 850.4 67.7045 850.907 67.4886C851.415 67.2689 851.996 67.1591 852.651 67.1591C853.595 67.1591 854.337 67.3636 854.879 67.7727C855.42 68.178 855.778 68.7216 855.953 69.4034Z" fill="#111111"/>
<g filter="url(#filter3_di_706_12)">
<rect x="1007" y="33" width="56" height="56" rx="8" fill="white"/>
<rect x="1007.5" y="33.5" width="55" height="55" rx="7.5" stroke="#2F2B43" stroke-opacity="0.1"/>
<g clip-path="url(#clip2_706_12)">
<path d="M1035.84 50.8685L1038.57 56.3713C1038.63 56.511 1038.73 56.632 1038.85 56.7222C1038.97 56.8125 1039.12 56.8688 1039.27 56.8856L1045.29 57.777C1045.46 57.7994 1045.62 57.8709 1045.76 57.9832C1045.89 58.0954 1045.99 58.2438 1046.05 58.411C1046.1 58.5782 1046.11 58.7572 1046.06 58.9273C1046.02 59.0973 1045.93 59.2513 1045.8 59.3713L1041.46 63.6742C1041.35 63.7776 1041.27 63.9071 1041.22 64.0508C1041.17 64.1945 1041.16 64.3479 1041.19 64.497L1042.23 70.5485C1042.26 70.7224 1042.25 70.9012 1042.18 71.0648C1042.11 71.2283 1042 71.37 1041.86 71.4736C1041.72 71.5772 1041.55 71.6386 1041.37 71.6508C1041.19 71.663 1041.02 71.6256 1040.86 71.5428L1035.45 68.6799C1035.31 68.6118 1035.15 68.5764 1035 68.5764C1034.85 68.5764 1034.69 68.6118 1034.55 68.6799L1029.14 71.5428C1028.98 71.6256 1028.81 71.663 1028.63 71.6508C1028.45 71.6386 1028.28 71.5772 1028.14 71.4736C1028 71.37 1027.89 71.2283 1027.82 71.0648C1027.75 70.9012 1027.74 70.7224 1027.77 70.5485L1028.81 64.4285C1028.84 64.2793 1028.83 64.1259 1028.78 63.9822C1028.73 63.8385 1028.65 63.709 1028.54 63.6056L1024.15 59.3713C1024.02 59.2481 1023.93 59.0898 1023.89 58.9157C1023.84 58.7416 1023.85 58.5591 1023.91 58.3904C1023.97 58.2217 1024.08 58.0739 1024.22 57.9651C1024.37 57.8562 1024.54 57.7909 1024.71 57.777L1030.73 56.8856C1030.88 56.8688 1031.03 56.8125 1031.15 56.7222C1031.27 56.632 1031.37 56.511 1031.43 56.3713L1034.16 50.8685C1034.23 50.7082 1034.35 50.5725 1034.5 50.4774C1034.65 50.3823 1034.82 50.3318 1035 50.3318C1035.18 50.3318 1035.35 50.3823 1035.5 50.4774C1035.65 50.5725 1035.77 50.7082 1035.84 50.8685Z" stroke="black" stroke-width="2" stroke-linecap="round" stroke-linejoin="round"/>
</g>
</g>
<path d="M1089.94 49.1477H1088.17C1088.1 48.7689 1087.98 48.4356 1087.79 48.1477C1087.6 47.8598 1087.38 47.6155 1087.11 47.4148C1086.84 47.214 1086.54 47.0625 1086.2 46.9602C1085.88 46.858 1085.52 46.8068 1085.15 46.8068C1084.48 46.8068 1083.88 46.9754 1083.35 47.3125C1082.83 47.6496 1082.41 48.1439 1082.1 48.7955C1081.8 49.447 1081.65 50.2424 1081.65 51.1818C1081.65 52.1288 1081.8 52.928 1082.1 53.5795C1082.41 54.2311 1082.83 54.7235 1083.36 55.0568C1083.89 55.3902 1084.48 55.5568 1085.15 55.5568C1085.52 55.5568 1085.86 55.5076 1086.19 55.4091C1086.53 55.3068 1086.83 55.1572 1087.1 54.9602C1087.37 54.7633 1087.59 54.5227 1087.78 54.2386C1087.97 53.9508 1088.1 53.6212 1088.17 53.25L1089.94 53.2557C1089.85 53.8277 1089.66 54.3542 1089.39 54.8352C1089.12 55.3125 1088.78 55.7254 1088.35 56.0739C1087.93 56.4186 1087.45 56.6856 1086.91 56.875C1086.37 57.0644 1085.78 57.1591 1085.14 57.1591C1084.13 57.1591 1083.23 56.9205 1082.44 56.4432C1081.66 55.9621 1081.03 55.2746 1080.58 54.3807C1080.13 53.4867 1079.9 52.4205 1079.9 51.1818C1079.9 49.9394 1080.13 48.8731 1080.59 47.983C1081.04 47.089 1081.66 46.4034 1082.45 45.9261C1083.24 45.4451 1084.13 45.2045 1085.14 45.2045C1085.75 45.2045 1086.33 45.2936 1086.86 45.4716C1087.4 45.6458 1087.88 45.9034 1088.31 46.2443C1088.74 46.5814 1089.09 46.9943 1089.38 47.483C1089.66 47.9678 1089.84 48.5227 1089.94 49.1477ZM1097.44 53.3807V48.2727H1099.14V57H1097.47V55.4886H1097.38C1097.18 55.9545 1096.86 56.3428 1096.41 56.6534C1095.97 56.9602 1095.43 57.1136 1094.77 57.1136C1094.21 57.1136 1093.71 56.9905 1093.28 56.7443C1092.85 56.4943 1092.52 56.125 1092.27 55.6364C1092.03 55.1477 1091.91 54.5436 1091.91 53.8239V48.2727H1093.61V53.6193C1093.61 54.214 1093.77 54.6875 1094.1 55.0398C1094.43 55.392 1094.86 55.5682 1095.38 55.5682C1095.7 55.5682 1096.02 55.4886 1096.33 55.3295C1096.65 55.1705 1096.92 54.9299 1097.12 54.608C1097.34 54.286 1097.44 53.8769 1097.44 53.3807ZM1107.96 50.4034L1106.42 50.6761C1106.36 50.4792 1106.26 50.2917 1106.12 50.1136C1105.98 49.9356 1105.79 49.7898 1105.56 49.6761C1105.32 49.5625 1105.03 49.5057 1104.68 49.5057C1104.2 49.5057 1103.8 49.6136 1103.47 49.8295C1103.15 50.0417 1102.99 50.3163 1102.99 50.6534C1102.99 50.9451 1103.1 51.1799 1103.32 51.358C1103.53 51.536 1103.88 51.6818 1104.36 51.7955L1105.75 52.1136C1106.55 52.2992 1107.15 52.5852 1107.54 52.9716C1107.94 53.358 1108.13 53.8598 1108.13 54.4773C1108.13 55 1107.98 55.4659 1107.68 55.875C1107.38 56.2803 1106.96 56.5985 1106.42 56.8295C1105.89 57.0606 1105.27 57.1761 1104.57 57.1761C1103.59 57.1761 1102.79 56.9678 1102.17 56.5511C1101.56 56.1307 1101.18 55.5341 1101.04 54.7614L1102.68 54.5114C1102.78 54.9394 1102.99 55.2633 1103.31 55.483C1103.63 55.6989 1104.04 55.8068 1104.55 55.8068C1105.11 55.8068 1105.56 55.6913 1105.89 55.4602C1106.22 55.2254 1106.39 54.9394 1106.39 54.6023C1106.39 54.3295 1106.29 54.1004 1106.08 53.9148C1105.88 53.7292 1105.57 53.589 1105.16 53.4943L1103.68 53.1705C1102.86 52.9848 1102.26 52.6894 1101.87 52.2841C1101.49 51.8788 1101.29 51.3655 1101.29 50.7443C1101.29 50.2292 1101.44 49.7784 1101.72 49.392C1102.01 49.0057 1102.41 48.7045 1102.92 48.4886C1103.43 48.2689 1104.01 48.1591 1104.66 48.1591C1105.61 48.1591 1106.35 48.3636 1106.89 48.7727C1107.43 49.178 1107.79 49.7216 1107.96 50.4034ZM1114.08 48.2727V49.6364H1109.31V48.2727H1114.08ZM1110.59 46.1818H1112.29V54.4375C1112.29 54.767 1112.33 55.0152 1112.43 55.1818C1112.53 55.3447 1112.66 55.4564 1112.81 55.517C1112.97 55.5739 1113.15 55.6023 1113.33 55.6023C1113.47 55.6023 1113.59 55.5928 1113.69 55.5739C1113.79 55.5549 1113.87 55.5398 1113.93 55.5284L1114.23 56.9318C1114.14 56.9697 1114 57.0076 1113.81 57.0455C1113.63 57.0871 1113.4 57.1098 1113.13 57.1136C1112.69 57.1212 1112.27 57.0417 1111.88 56.875C1111.5 56.7083 1111.18 56.4508 1110.94 56.1023C1110.71 55.7538 1110.59 55.3163 1110.59 54.7898V46.1818ZM1119.54 57.1761C1118.72 57.1761 1118 56.9886 1117.39 56.6136C1116.79 56.2386 1116.31 55.714 1115.97 55.0398C1115.64 54.3655 1115.47 53.5777 1115.47 52.6761C1115.47 51.7708 1115.64 50.9792 1115.97 50.3011C1116.31 49.6231 1116.79 49.0966 1117.39 48.7216C1118 48.3466 1118.72 48.1591 1119.54 48.1591C1120.36 48.1591 1121.07 48.3466 1121.68 48.7216C1122.29 49.0966 1122.76 49.6231 1123.1 50.3011C1123.44 50.9792 1123.61 51.7708 1123.61 52.6761C1123.61 53.5777 1123.44 54.3655 1123.1 55.0398C1122.76 55.714 1122.29 56.2386 1121.68 56.6136C1121.07 56.9886 1120.36 57.1761 1119.54 57.1761ZM1119.54 55.75C1120.07 55.75 1120.51 55.6098 1120.86 55.3295C1121.21 55.0492 1121.47 54.6761 1121.63 54.2102C1121.8 53.7443 1121.89 53.2311 1121.89 52.6705C1121.89 52.1136 1121.8 51.6023 1121.63 51.1364C1121.47 50.6667 1121.21 50.2898 1120.86 50.0057C1120.51 49.7216 1120.07 49.5795 1119.54 49.5795C1119.01 49.5795 1118.57 49.7216 1118.21 50.0057C1117.86 50.2898 1117.61 50.6667 1117.43 51.1364C1117.27 51.6023 1117.18 52.1136 1117.18 52.6705C1117.18 53.2311 1117.27 53.7443 1117.43 54.2102C1117.61 54.6761 1117.86 55.0492 1118.21 55.3295C1118.57 55.6098 1119.01 55.75 1119.54 55.75ZM1125.5 57V48.2727H1127.13V49.6932H1127.24C1127.42 49.2121 1127.72 48.8371 1128.13 48.5682C1128.54 48.2955 1129.04 48.1591 1129.62 48.1591C1130.2 48.1591 1130.69 48.2955 1131.08 48.5682C1131.48 48.8409 1131.77 49.2159 1131.96 49.6932H1132.05C1132.26 49.2273 1132.59 48.8561 1133.05 48.5795C1133.5 48.2992 1134.04 48.1591 1134.67 48.1591C1135.46 48.1591 1136.11 48.4072 1136.61 48.9034C1137.11 49.3996 1137.37 50.1477 1137.37 51.1477V57H1135.67V51.3068C1135.67 50.7159 1135.51 50.2879 1135.18 50.0227C1134.86 49.7576 1134.48 49.625 1134.03 49.625C1133.48 49.625 1133.05 49.7955 1132.74 50.1364C1132.43 50.4735 1132.28 50.9072 1132.28 51.4375V57H1130.59V51.1989C1130.59 50.7254 1130.44 50.3447 1130.14 50.0568C1129.85 49.7689 1129.46 49.625 1128.99 49.625C1128.67 49.625 1128.37 49.7102 1128.1 49.8807C1127.83 50.0473 1127.61 50.2803 1127.44 50.5795C1127.28 50.8788 1127.2 51.2254 1127.2 51.6193V57H1125.5ZM1143.4 57.1761C1142.54 57.1761 1141.8 56.9924 1141.18 56.625C1140.56 56.2538 1140.09 55.733 1139.75 55.0625C1139.42 54.3883 1139.25 53.5985 1139.25 52.6932C1139.25 51.7992 1139.42 51.0114 1139.75 50.3295C1140.09 49.6477 1140.56 49.1155 1141.16 48.733C1141.77 48.3504 1142.47 48.1591 1143.28 48.1591C1143.78 48.1591 1144.25 48.2405 1144.72 48.4034C1145.18 48.5663 1145.59 48.822 1145.96 49.1705C1146.33 49.5189 1146.62 49.9716 1146.83 50.5284C1147.04 51.0814 1147.15 51.7538 1147.15 52.5455V53.1477H1140.21V51.875H1145.48C1145.48 51.428 1145.39 51.0322 1145.21 50.6875C1145.03 50.339 1144.77 50.0644 1144.44 49.8636C1144.12 49.6629 1143.73 49.5625 1143.3 49.5625C1142.82 49.5625 1142.4 49.6799 1142.05 49.9148C1141.69 50.1458 1141.42 50.4489 1141.23 50.8239C1141.04 51.1951 1140.94 51.5985 1140.94 52.0341V53.0284C1140.94 53.6117 1141.05 54.108 1141.25 54.517C1141.46 54.9261 1141.75 55.2386 1142.12 55.4545C1142.49 55.6667 1142.92 55.7727 1143.42 55.7727C1143.74 55.7727 1144.04 55.7273 1144.3 55.6364C1144.57 55.5417 1144.8 55.4015 1144.99 55.2159C1145.18 55.0303 1145.33 54.8011 1145.43 54.5284L1147.04 54.8182C1146.91 55.2917 1146.68 55.7064 1146.35 56.0625C1146.02 56.4148 1145.6 56.6894 1145.1 56.8864C1144.61 57.0795 1144.04 57.1761 1143.4 57.1761ZM1149.03 57V48.2727H1150.67V49.6591H1150.77C1150.92 49.1894 1151.21 48.8201 1151.61 48.5511C1152.01 48.2784 1152.47 48.142 1152.98 48.142C1153.09 48.142 1153.21 48.1458 1153.36 48.1534C1153.5 48.161 1153.62 48.1705 1153.7 48.1818V49.8068C1153.63 49.7879 1153.51 49.767 1153.34 49.7443C1153.17 49.7178 1152.99 49.7045 1152.82 49.7045C1152.42 49.7045 1152.06 49.7898 1151.74 49.9602C1151.43 50.1269 1151.19 50.3598 1151 50.6591C1150.82 50.9545 1150.73 51.2917 1150.73 51.6705V57H1149.03ZM1161.71 50.4034L1160.17 50.6761C1160.11 50.4792 1160.01 50.2917 1159.87 50.1136C1159.73 49.9356 1159.54 49.7898 1159.31 49.6761C1159.07 49.5625 1158.78 49.5057 1158.43 49.5057C1157.95 49.5057 1157.55 49.6136 1157.22 49.8295C1156.9 50.0417 1156.74 50.3163 1156.74 50.6534C1156.74 50.9451 1156.85 51.1799 1157.07 51.358C1157.28 51.536 1157.63 51.6818 1158.11 51.7955L1159.5 52.1136C1160.3 52.2992 1160.9 52.5852 1161.29 52.9716C1161.69 53.358 1161.88 53.8598 1161.88 54.4773C1161.88 55 1161.73 55.4659 1161.43 55.875C1161.13 56.2803 1160.71 56.5985 1160.17 56.8295C1159.64 57.0606 1159.02 57.1761 1158.32 57.1761C1157.34 57.1761 1156.54 56.9678 1155.92 56.5511C1155.31 56.1307 1154.93 55.5341 1154.79 54.7614L1156.43 54.5114C1156.53 54.9394 1156.74 55.2633 1157.06 55.483C1157.38 55.6989 1157.79 55.8068 1158.3 55.8068C1158.86 55.8068 1159.31 55.6913 1159.64 55.4602C1159.97 55.2254 1160.14 54.9394 1160.14 54.6023C1160.14 54.3295 1160.04 54.1004 1159.83 53.9148C1159.63 53.7292 1159.32 53.589 1158.91 53.4943L1157.43 53.1705C1156.61 52.9848 1156.01 52.6894 1155.62 52.2841C1155.24 51.8788 1155.04 51.3655 1155.04 50.7443C1155.04 50.2292 1155.19 49.7784 1155.47 49.392C1155.76 49.0057 1156.16 48.7045 1156.67 48.4886C1157.18 48.2689 1157.76 48.1591 1158.41 48.1591C1159.36 48.1591 1160.1 48.3636 1160.64 48.7727C1161.18 49.178 1161.54 49.7216 1161.71 50.4034ZM1167.99 57V48.2727H1169.63V49.6591H1169.72C1169.88 49.1894 1170.16 48.8201 1170.56 48.5511C1170.96 48.2784 1171.42 48.142 1171.93 48.142C1172.04 48.142 1172.17 48.1458 1172.31 48.1534C1172.46 48.161 1172.57 48.1705 1172.66 48.1818V49.8068C1172.59 49.7879 1172.47 49.767 1172.29 49.7443C1172.12 49.7178 1171.94 49.7045 1171.77 49.7045C1171.37 49.7045 1171.01 49.7898 1170.7 49.9602C1170.39 50.1269 1170.14 50.3598 1169.96 50.6591C1169.78 50.9545 1169.68 51.2917 1169.68 51.6705V57H1167.99ZM1176.59 57.1932C1176.04 57.1932 1175.54 57.0909 1175.09 56.8864C1174.64 56.678 1174.29 56.3769 1174.03 55.983C1173.77 55.589 1173.64 55.1061 1173.64 54.5341C1173.64 54.0417 1173.73 53.6364 1173.92 53.3182C1174.11 53 1174.37 52.7481 1174.69 52.5625C1175.01 52.3769 1175.37 52.2367 1175.77 52.142C1176.17 52.0473 1176.57 51.9754 1176.99 51.9261C1177.51 51.8655 1177.93 51.8163 1178.26 51.7784C1178.58 51.7367 1178.82 51.6705 1178.97 51.5795C1179.12 51.4886 1179.19 51.3409 1179.19 51.1364V51.0966C1179.19 50.6004 1179.05 50.2159 1178.77 49.9432C1178.49 49.6705 1178.08 49.5341 1177.53 49.5341C1176.96 49.5341 1176.51 49.661 1176.18 49.9148C1175.85 50.1648 1175.63 50.4432 1175.5 50.75L1173.91 50.3864C1174.1 49.8561 1174.37 49.428 1174.74 49.1023C1175.1 48.7727 1175.53 48.5341 1176 48.3864C1176.48 48.2348 1176.98 48.1591 1177.51 48.1591C1177.86 48.1591 1178.23 48.2008 1178.62 48.2841C1179.01 48.3636 1179.38 48.5114 1179.72 48.7273C1180.06 48.9432 1180.35 49.2519 1180.57 49.6534C1180.79 50.0511 1180.89 50.5682 1180.89 51.2045V57H1179.24V55.8068H1179.17C1179.06 56.0265 1178.89 56.2424 1178.67 56.4545C1178.45 56.6667 1178.17 56.8428 1177.83 56.983C1177.48 57.1231 1177.07 57.1932 1176.59 57.1932ZM1176.96 55.8295C1177.43 55.8295 1177.83 55.7367 1178.16 55.5511C1178.5 55.3655 1178.75 55.1231 1178.93 54.8239C1179.11 54.5208 1179.2 54.197 1179.2 53.8523V52.7273C1179.14 52.7879 1179.02 52.8447 1178.84 52.8977C1178.67 52.947 1178.48 52.9905 1178.26 53.0284C1178.04 53.0625 1177.82 53.0947 1177.62 53.125C1177.41 53.1515 1177.23 53.1742 1177.09 53.1932C1176.76 53.2348 1176.46 53.3049 1176.19 53.4034C1175.92 53.5019 1175.71 53.6439 1175.54 53.8295C1175.38 54.0114 1175.3 54.2538 1175.3 54.5568C1175.3 54.9773 1175.46 55.2955 1175.77 55.5114C1176.08 55.7235 1176.48 55.8295 1176.96 55.8295ZM1187.23 48.2727V49.6364H1182.46V48.2727H1187.23ZM1183.74 46.1818H1185.44V54.4375C1185.44 54.767 1185.49 55.0152 1185.59 55.1818C1185.69 55.3447 1185.81 55.4564 1185.97 55.517C1186.13 55.5739 1186.3 55.6023 1186.49 55.6023C1186.62 55.6023 1186.74 55.5928 1186.85 55.5739C1186.95 55.5549 1187.03 55.5398 1187.08 55.5284L1187.39 56.9318C1187.29 56.9697 1187.15 57.0076 1186.97 57.0455C1186.79 57.0871 1186.56 57.1098 1186.29 57.1136C1185.84 57.1212 1185.42 57.0417 1185.04 56.875C1184.65 56.7083 1184.34 56.4508 1184.1 56.1023C1183.86 55.7538 1183.74 55.3163 1183.74 54.7898V46.1818ZM1192.78 57.1761C1191.92 57.1761 1191.18 56.9924 1190.56 56.625C1189.94 56.2538 1189.46 55.733 1189.12 55.0625C1188.79 54.3883 1188.62 53.5985 1188.62 52.6932C1188.62 51.7992 1188.79 51.0114 1189.12 50.3295C1189.46 49.6477 1189.93 49.1155 1190.53 48.733C1191.14 48.3504 1191.85 48.1591 1192.66 48.1591C1193.15 48.1591 1193.63 48.2405 1194.09 48.4034C1194.55 48.5663 1194.97 48.822 1195.34 49.1705C1195.7 49.5189 1195.99 49.9716 1196.2 50.5284C1196.42 51.0814 1196.52 51.7538 1196.52 52.5455V53.1477H1189.59V51.875H1194.86C1194.86 51.428 1194.77 51.0322 1194.59 50.6875C1194.4 50.339 1194.15 50.0644 1193.82 49.8636C1193.49 49.6629 1193.11 49.5625 1192.67 49.5625C1192.19 49.5625 1191.78 49.6799 1191.42 49.9148C1191.07 50.1458 1190.8 50.4489 1190.6 50.8239C1190.41 51.1951 1190.32 51.5985 1190.32 52.0341V53.0284C1190.32 53.6117 1190.42 54.108 1190.62 54.517C1190.83 54.9261 1191.12 55.2386 1191.49 55.4545C1191.87 55.6667 1192.3 55.7727 1192.8 55.7727C1193.12 55.7727 1193.41 55.7273 1193.68 55.6364C1193.94 55.5417 1194.17 55.4015 1194.36 55.2159C1194.56 55.0303 1194.7 54.8011 1194.81 54.5284L1196.41 54.8182C1196.29 55.2917 1196.05 55.7064 1195.72 56.0625C1195.39 56.4148 1194.98 56.6894 1194.48 56.8864C1193.98 57.0795 1193.41 57.1761 1192.78 57.1761ZM1085.67 72.3807V67.2727H1087.38V76H1085.7V74.4886H1085.61C1085.41 74.9545 1085.09 75.3428 1084.65 75.6534C1084.21 75.9602 1083.66 76.1136 1083.01 76.1136C1082.45 76.1136 1081.95 75.9905 1081.52 75.7443C1081.09 75.4943 1080.75 75.125 1080.51 74.6364C1080.26 74.1477 1080.14 73.5436 1080.14 72.8239V67.2727H1081.84V72.6193C1081.84 73.214 1082.01 73.6875 1082.34 74.0398C1082.66 74.392 1083.09 74.5682 1083.62 74.5682C1083.94 74.5682 1084.25 74.4886 1084.57 74.3295C1084.89 74.1705 1085.15 73.9299 1085.36 73.608C1085.57 73.286 1085.67 72.8769 1085.67 72.3807ZM1096.2 69.4034L1094.66 69.6761C1094.59 69.4792 1094.49 69.2917 1094.35 69.1136C1094.21 68.9356 1094.03 68.7898 1093.79 68.6761C1093.56 68.5625 1093.27 68.5057 1092.91 68.5057C1092.43 68.5057 1092.03 68.6136 1091.71 68.8295C1091.39 69.0417 1091.23 69.3163 1091.23 69.6534C1091.23 69.9451 1091.33 70.1799 1091.55 70.358C1091.77 70.536 1092.11 70.6818 1092.6 70.7955L1093.98 71.1136C1094.78 71.2992 1095.38 71.5852 1095.78 71.9716C1096.17 72.358 1096.37 72.8598 1096.37 73.4773C1096.37 74 1096.22 74.4659 1095.91 74.875C1095.61 75.2803 1095.2 75.5985 1094.66 75.8295C1094.12 76.0606 1093.5 76.1761 1092.8 76.1761C1091.82 76.1761 1091.03 75.9678 1090.41 75.5511C1089.79 75.1307 1089.41 74.5341 1089.27 73.7614L1090.91 73.5114C1091.02 73.9394 1091.23 74.2633 1091.54 74.483C1091.86 74.6989 1092.28 74.8068 1092.79 74.8068C1093.35 74.8068 1093.79 74.6913 1094.12 74.4602C1094.46 74.2254 1094.62 73.9394 1094.62 73.6023C1094.62 73.3295 1094.52 73.1004 1094.32 72.9148C1094.12 72.7292 1093.81 72.589 1093.39 72.4943L1091.91 72.1705C1091.1 71.9848 1090.5 71.6894 1090.11 71.2841C1089.72 70.8788 1089.53 70.3655 1089.53 69.7443C1089.53 69.2292 1089.67 68.7784 1089.96 68.392C1090.25 68.0057 1090.64 67.7045 1091.15 67.4886C1091.66 67.2689 1092.24 67.1591 1092.9 67.1591C1093.84 67.1591 1094.58 67.3636 1095.12 67.7727C1095.67 68.178 1096.02 68.7216 1096.2 69.4034ZM1102.2 73.7273V72.3068L1107.23 64.3636H1108.35V66.4545H1107.64L1104.04 72.1477V72.2386H1110.94V73.7273H1102.2ZM1107.72 76V73.2955L1107.73 72.6477V64.3636H1109.4V76H1107.72ZM1114.14 76.108C1113.83 76.108 1113.56 75.9981 1113.34 75.7784C1113.11 75.5549 1113 75.286 1113 74.9716C1113 74.661 1113.11 74.3958 1113.34 74.1761C1113.56 73.9527 1113.83 73.8409 1114.14 73.8409C1114.45 73.8409 1114.72 73.9527 1114.94 74.1761C1115.16 74.3958 1115.27 74.661 1115.27 74.9716C1115.27 75.1799 1115.22 75.3712 1115.12 75.5455C1115.01 75.7159 1114.88 75.8523 1114.71 75.9545C1114.54 76.0568 1114.35 76.108 1114.14 76.108ZM1121.66 76.1591C1120.85 76.1591 1120.13 76.0189 1119.5 75.7386C1118.88 75.4583 1118.4 75.072 1118.04 74.5795C1117.69 74.0871 1117.52 73.5265 1117.52 72.8977C1117.52 72.4053 1117.62 71.9527 1117.82 71.5398C1118.03 71.1231 1118.31 70.7765 1118.67 70.5C1119.03 70.2197 1119.42 70.0417 1119.86 69.9659V69.8977C1119.28 69.7576 1118.82 69.447 1118.47 68.9659C1118.12 68.4848 1117.95 67.9318 1117.95 67.3068C1117.95 66.7121 1118.11 66.1818 1118.42 65.7159C1118.75 65.2462 1119.19 64.8769 1119.75 64.608C1120.31 64.339 1120.95 64.2045 1121.66 64.2045C1122.37 64.2045 1123 64.3409 1123.56 64.6136C1124.12 64.8826 1124.56 65.2519 1124.88 65.7216C1125.21 66.1875 1125.37 66.7159 1125.37 67.3068C1125.37 67.9318 1125.19 68.4848 1124.84 68.9659C1124.49 69.447 1124.03 69.7576 1123.46 69.8977V69.9659C1123.9 70.0417 1124.29 70.2197 1124.64 70.5C1124.99 70.7765 1125.27 71.1231 1125.48 71.5398C1125.69 71.9527 1125.8 72.4053 1125.81 72.8977C1125.8 73.5265 1125.62 74.0871 1125.27 74.5795C1124.92 75.072 1124.43 75.4583 1123.81 75.7386C1123.18 76.0189 1122.47 76.1591 1121.66 76.1591ZM1121.66 74.7216C1122.14 74.7216 1122.56 74.642 1122.91 74.483C1123.27 74.3201 1123.54 74.0947 1123.73 73.8068C1123.92 73.5152 1124.02 73.1742 1124.03 72.7841C1124.02 72.3788 1123.92 72.0208 1123.71 71.7102C1123.5 71.3996 1123.23 71.1553 1122.87 70.9773C1122.52 70.7992 1122.12 70.7102 1121.66 70.7102C1121.21 70.7102 1120.8 70.7992 1120.44 70.9773C1120.09 71.1553 1119.81 71.3996 1119.6 71.7102C1119.4 72.0208 1119.3 72.3788 1119.3 72.7841C1119.3 73.1742 1119.39 73.5152 1119.58 73.8068C1119.77 74.0947 1120.05 74.3201 1120.4 74.483C1120.76 74.642 1121.18 74.7216 1121.66 74.7216ZM1121.66 69.3068C1122.05 69.3068 1122.39 69.2292 1122.69 69.0739C1122.99 68.9186 1123.23 68.7027 1123.4 68.4261C1123.57 68.1496 1123.66 67.8258 1123.66 67.4545C1123.66 67.0909 1123.57 66.7727 1123.4 66.5C1123.24 66.2273 1123 66.017 1122.7 65.8693C1122.4 65.7178 1122.06 65.642 1121.66 65.642C1121.26 65.642 1120.91 65.7178 1120.61 65.8693C1120.31 66.017 1120.07 66.2273 1119.91 66.5C1119.74 66.7727 1119.66 67.0909 1119.66 67.4545C1119.66 67.8258 1119.74 68.1496 1119.91 68.4261C1120.08 68.7027 1120.32 68.9186 1120.62 69.0739C1120.92 69.2292 1121.27 69.3068 1121.66 69.3068ZM1136.75 63.8182L1133 77.75H1131.48L1135.23 63.8182H1136.75ZM1146.53 76.1591C1145.81 76.1591 1145.17 76.0227 1144.61 75.75C1144.04 75.4735 1143.59 75.0947 1143.25 74.6136C1142.92 74.1326 1142.74 73.5833 1142.71 72.9659H1144.42C1144.46 73.4659 1144.68 73.8769 1145.08 74.1989C1145.48 74.5208 1145.96 74.6818 1146.53 74.6818C1146.97 74.6818 1147.37 74.5795 1147.71 74.375C1148.06 74.1667 1148.33 73.8807 1148.53 73.517C1148.73 73.1534 1148.83 72.7386 1148.83 72.2727C1148.83 71.7992 1148.73 71.3769 1148.53 71.0057C1148.32 70.6345 1148.04 70.3428 1147.68 70.1307C1147.32 69.9186 1146.91 69.8106 1146.45 69.8068C1146.1 69.8068 1145.75 69.8674 1145.39 69.9886C1145.03 70.1098 1144.75 70.2689 1144.53 70.4659L1142.92 70.2273L1143.57 64.3636H1149.97V65.8693H1145.03L1144.66 69.125H1144.73C1144.96 68.9053 1145.26 68.7216 1145.63 68.5739C1146.01 68.4261 1146.42 68.3523 1146.85 68.3523C1147.56 68.3523 1148.19 68.5208 1148.74 68.858C1149.3 69.1951 1149.74 69.6553 1150.05 70.2386C1150.38 70.8182 1150.54 71.4848 1150.53 72.2386C1150.54 72.9924 1150.36 73.6648 1150.02 74.2557C1149.68 74.8466 1149.21 75.3125 1148.6 75.6534C1148 75.9905 1147.31 76.1591 1146.53 76.1591ZM1154.11 76.108C1153.8 76.108 1153.53 75.9981 1153.31 75.7784C1153.08 75.5549 1152.97 75.286 1152.97 74.9716C1152.97 74.661 1153.08 74.3958 1153.31 74.1761C1153.53 73.9527 1153.8 73.8409 1154.11 73.8409C1154.42 73.8409 1154.68 73.9527 1154.91 74.1761C1155.13 74.3958 1155.24 74.661 1155.24 74.9716C1155.24 75.1799 1155.19 75.3712 1155.08 75.5455C1154.98 75.7159 1154.85 75.8523 1154.67 75.9545C1154.5 76.0568 1154.31 76.108 1154.11 76.108ZM1161.63 76.1932C1160.73 76.1894 1159.97 75.9527 1159.33 75.483C1158.69 75.0133 1158.21 74.3295 1157.87 73.4318C1157.53 72.5341 1157.37 71.4527 1157.37 70.1875C1157.37 68.9261 1157.53 67.8485 1157.87 66.9545C1158.21 66.0606 1158.7 65.3788 1159.34 64.9091C1159.98 64.4394 1160.74 64.2045 1161.63 64.2045C1162.52 64.2045 1163.29 64.4413 1163.92 64.9148C1164.56 65.3845 1165.04 66.0663 1165.38 66.9602C1165.72 67.8504 1165.89 68.9261 1165.89 70.1875C1165.89 71.4564 1165.72 72.5398 1165.39 73.4375C1165.05 74.3314 1164.56 75.0152 1163.93 75.4886C1163.29 75.9583 1162.53 76.1932 1161.63 76.1932ZM1161.63 74.6761C1162.42 74.6761 1163.04 74.2917 1163.48 73.5227C1163.93 72.7538 1164.15 71.642 1164.15 70.1875C1164.15 69.2216 1164.05 68.4053 1163.84 67.7386C1163.64 67.0682 1163.35 66.5606 1162.97 66.2159C1162.6 65.8674 1162.15 65.6932 1161.63 65.6932C1160.85 65.6932 1160.23 66.0795 1159.79 66.8523C1159.34 67.625 1159.11 68.7367 1159.11 70.1875C1159.11 71.1572 1159.21 71.9773 1159.41 72.6477C1159.62 73.3144 1159.9 73.8201 1160.28 74.1648C1160.65 74.5057 1161.11 74.6761 1161.63 74.6761Z" fill="#111111"/>
<line opacity="0.1" x1="3" y1="120.5" x2="1219" y2="120.5" stroke="black"/>
<defs>
<filter id="filter0_di_706_12" x="0" y="31" width="62" height="62" filterUnits="userSpaceOnUse" color-interpolation-filters="sRGB">
<feFlood flood-opacity="0" result="BackgroundImageFix"/>
<feColorMatrix in="SourceAlpha" type="matrix" values="0 0 0 0 0 0 0 0 0 0 0 0 0 0 0 0 0 0 127 0" result="hardAlpha"/>
<feOffset dy="1"/>
<feGaussianBlur stdDeviation="1.5"/>
<feComposite in2="hardAlpha" operator="out"/>
<feColorMatrix type="matrix" values="0 0 0 0 0.184314 0 0 0 0 0.168627 0 0 0 0 0.262745 0 0 0 0.1 0"/>
<feBlend mode="normal" in2="BackgroundImageFix" result="effect1_dropShadow_706_12"/>
<feBlend mode="normal" in="SourceGraphic" in2="effect1_dropShadow_706_12" result="shape"/>
<feColorMatrix in="SourceAlpha" type="matrix" values="0 0 0 0 0 0 0 0 0 0 0 0 0 0 0 0 0 0 127 0" result="hardAlpha"/>
<feOffset dy="-1"/>
<feComposite in2="hardAlpha" operator="arithmetic" k2="-1" k3="1"/>
<feColorMatrix type="matrix" values="0 0 0 0 0.184314 0 0 0 0 0.168627 0 0 0 0 0.262745 0 0 0 0.1 0"/>
<feBlend mode="normal" in2="shape" result="effect2_innerShadow_706_12"/>
</filter>
<filter id="filter1_di_706_12" x="334.667" y="31" width="62" height="62" filterUnits="userSpaceOnUse" color-interpolation-filters="sRGB">
<feFlood flood-opacity="0" result="BackgroundImageFix"/>
<feColorMatrix in="SourceAlpha" type="matrix" values="0 0 0 0 0 0 0 0 0 0 0 0 0 0 0 0 0 0 127 0" result="hardAlpha"/>
<feOffset dy="1"/>
<feGaussianBlur stdDeviation="1.5"/>
<feComposite in2="hardAlpha" operator="out"/>
<feColorMatrix type="matrix" values="0 0 0 0 0.184314 0 0 0 0 0.168627 0 0 0 0 0.262745 0 0 0 0.1 0"/>
<feBlend mode="normal" in2="BackgroundImageFix" result="effect1_dropShadow_706_12"/>
<feBlend mode="normal" in="SourceGraphic" in2="effect1_dropShadow_706_12" result="shape"/>
<feColorMatrix in="SourceAlpha" type="matrix" values="0 0 0 0 0 0 0 0 0 0 0 0 0 0 0 0 0 0 127 0" result="hardAlpha"/>
<feOffset dy="-1"/>
<feComposite in2="hardAlpha" operator="arithmetic" k2="-1" k3="1"/>
<feColorMatrix type="matrix" values="0 0 0 0 0.184314 0 0 0 0 0.168627 0 0 0 0 0.262745 0 0 0 0.1 0"/>
<feBlend mode="normal" in2="shape" result="effect2_innerShadow_706_12"/>
</filter>
<filter id="filter2_di_706_12" x="669.333" y="31" width="62" height="62" filterUnits="userSpaceOnUse" color-interpolation-filters="sRGB">
<feFlood flood-opacity="0" result="BackgroundImageFix"/>
<feColorMatrix in="SourceAlpha" type="matrix" values="0 0 0 0 0 0 0 0 0 0 0 0 0 0 0 0 0 0 127 0" result="hardAlpha"/>
<feOffset dy="1"/>
<feGaussianBlur stdDeviation="1.5"/>
<feComposite in2="hardAlpha" operator="out"/>
<feColorMatrix type="matrix" values="0 0 0 0 0.184314 0 0 0 0 0.168627 0 0 0 0 0.262745 0 0 0 0.1 0"/>
<feBlend mode="normal" in2="BackgroundImageFix" result="effect1_dropShadow_706_12"/>
<feBlend mode="normal" in="SourceGraphic" in2="effect1_dropShadow_706_12" result="shape"/>
<feColorMatrix in="SourceAlpha" type="matrix" values="0 0 0 0 0 0 0 0 0 0 0 0 0 0 0 0 0 0 127 0" result="hardAlpha"/>
<feOffset dy="-1"/>
<feComposite in2="hardAlpha" operator="arithmetic" k2="-1" k3="1"/>
<feColorMatrix type="matrix" values="0 0 0 0 0.184314 0 0 0 0 0.168627 0 0 0 0 0.262745 0 0 0 0.1 0"/>
<feBlend mode="normal" in2="shape" result="effect2_innerShadow_706_12"/>
</filter>
<filter id="filter3_di_706_12" x="1004" y="31" width="62" height="62" filterUnits="userSpaceOnUse" color-interpolation-filters="sRGB">
<feFlood flood-opacity="0" result="BackgroundImageFix"/>
<feColorMatrix in="SourceAlpha" type="matrix" values="0 0 0 0 0 0 0 0 0 0 0 0 0 0 0 0 0 0 127 0" result="hardAlpha"/>
<feOffset dy="1"/>
<feGaussianBlur stdDeviation="1.5"/>
<feComposite in2="hardAlpha" operator="out"/>
<feColorMatrix type="matrix" values="0 0 0 0 0.184314 0 0 0 0 0.168627 0 0 0 0 0.262745 0 0 0 0.1 0"/>
<feBlend mode="normal" in2="BackgroundImageFix" result="effect1_dropShadow_706_12"/>
<feBlend mode="normal" in="SourceGraphic" in2="effect1_dropShadow_706_12" result="shape"/>
<feColorMatrix in="SourceAlpha" type="matrix" values="0 0 0 0 0 0 0 0 0 0 0 0 0 0 0 0 0 0 127 0" result="hardAlpha"/>
<feOffset dy="-1"/>
<feComposite in2="hardAlpha" operator="arithmetic" k2="-1" k3="1"/>
<feColorMatrix type="matrix" values="0 0 0 0 0.184314 0 0 0 0 0.168627 0 0 0 0 0.262745 0 0 0 0.1 0"/>
<feBlend mode="normal" in2="shape" result="effect2_innerShadow_706_12"/>
</filter>
<clipPath id="clip0_706_12">
<rect width="24" height="24" fill="white" transform="translate(19 49)"/>
</clipPath>
<clipPath id="clip1_706_12">
<rect width="24" height="24" fill="white" transform="translate(688.333 49)"/>
</clipPath>
<clipPath id="clip2_706_12">
<rect width="24" height="24" fill="white" transform="translate(1023 49)"/>
</clipPath>
</defs>
</svg>
